{"glyphs":{"0":{"ha":944,"x_min":82,"x_max":863,"o":"m 472 -13 q 184 115 286 -13 q 82 514 82 242 q 183 914 82 786 q 472 1041 284 1041 q 761 914 660 1041 q 863 514 863 786 q 761 115 863 242 q 472 -13 658 -13 m 473 115 q 602 152 549 115 q 683 277 654 189 q 712 513 712 365 q 683 750 712 662 q 602 876 654 839 q 473 913 549 913 q 343 876 396 913 q 262 751 290 839 q 233 515 233 664 q 262 277 233 365 q 343 152 290 189 q 473 115 395 115 z "},"1":{"ha":577,"x_min":21,"x_max":452,"o":"m 352 1031 l 452 1031 l 452 0 l 299 0 l 299 845 l 21 648 l 21 796 l 352 1031 z "},"2":{"ha":752,"x_min":31,"x_max":707,"o":"m 707 126 l 707 0 l 44 0 l 44 82 l 355 456 q 465 615 433 550 q 497 741 497 680 q 443 874 497 831 q 275 916 389 916 q 147 905 210 916 q 31 874 85 894 l 31 1001 q 150 1030 81 1019 q 288 1041 219 1041 q 558 971 467 1041 q 648 756 648 901 q 632 646 648 699 q 580 534 616 593 q 481 402 544 476 l 249 126 l 707 126 z "},"3":{"ha":763,"x_min":38,"x_max":713,"o":"m 492 534 q 656 448 599 512 q 713 283 713 385 q 612 64 713 142 q 309 -13 511 -13 q 169 -3 239 -13 q 38 26 100 8 l 38 144 q 170 114 101 125 q 304 103 240 103 q 568 292 568 103 q 508 423 568 378 q 322 468 449 468 l 172 468 l 172 585 l 264 585 q 530 762 530 585 q 474 883 530 841 q 308 924 418 924 q 184 914 247 924 q 64 885 122 904 l 64 1003 q 186 1031 118 1021 q 322 1041 255 1041 q 586 971 495 1041 q 678 774 678 901 q 628 623 678 685 q 492 534 579 561 z "},"4":{"ha":890,"x_min":32,"x_max":861,"o":"m 861 355 l 861 234 l 713 234 l 713 0 l 574 0 l 574 234 l 32 234 l 32 317 l 443 1028 l 594 1028 l 206 355 l 574 355 l 590 681 l 713 681 l 713 355 l 861 355 z "},"5":{"ha":772,"x_min":56,"x_max":731,"o":"m 286 603 q 544 558 446 594 q 686 458 642 522 q 731 297 731 394 q 629 66 731 146 q 328 -13 527 -13 q 188 -2 258 -13 q 56 28 118 9 l 56 146 q 189 116 119 126 q 323 105 258 105 q 521 152 456 105 q 586 295 586 200 q 554 396 586 357 q 446 458 522 435 q 237 488 370 481 l 95 496 l 132 1028 l 688 1028 l 688 909 l 268 909 l 247 606 l 286 603 z "},"6":{"ha":872,"x_min":88,"x_max":826,"o":"m 486 600 q 735 523 644 600 q 826 296 826 447 q 784 129 826 199 q 664 23 742 59 q 482 -13 586 -13 q 191 107 295 -13 q 88 480 88 227 q 209 900 88 760 q 565 1041 331 1041 q 776 1008 692 1041 l 776 889 q 678 914 731 906 q 573 922 626 922 q 322 826 406 922 q 237 531 239 729 q 352 581 285 563 q 486 600 419 600 m 483 100 q 631 148 576 100 q 686 292 686 196 q 627 439 686 390 q 459 487 568 487 q 342 470 401 487 q 238 420 283 453 q 306 174 244 248 q 483 100 368 100 z "},"7":{"ha":713,"x_min":9,"x_max":671,"o":"m 9 1028 l 671 1028 l 671 946 l 284 0 l 126 0 l 505 901 l 9 901 l 9 1028 z "},"8":{"ha":944,"x_min":71,"x_max":872,"o":"m 663 529 q 823 425 774 488 q 872 274 872 363 q 827 124 872 188 q 694 23 783 59 q 477 -13 606 -13 q 173 58 276 -13 q 71 258 71 130 q 122 415 71 348 q 269 519 174 482 q 144 623 183 562 q 105 765 105 683 q 148 911 105 849 q 275 1007 191 973 q 479 1041 359 1041 q 673 1010 592 1041 q 796 920 753 978 q 838 781 838 862 q 663 529 838 610 m 476 931 q 307 889 364 931 q 251 771 251 846 q 275 682 251 718 q 358 619 299 647 q 525 569 417 592 q 545 564 539 566 q 666 650 628 601 q 703 767 703 699 q 645 889 703 847 q 476 931 586 931 m 478 97 q 665 140 601 97 q 728 264 728 183 q 703 351 728 316 q 619 411 678 385 q 458 459 561 437 q 377 479 406 470 q 257 395 297 449 q 216 275 216 342 q 282 142 216 188 q 478 97 348 97 z "},"9":{"ha":872,"x_min":45,"x_max":784,"o":"m 390 1041 q 680 921 576 1041 q 784 548 784 801 q 662 127 784 268 q 306 -13 540 -13 q 96 19 179 -13 l 96 139 q 193 114 140 122 q 299 106 246 106 q 549 202 466 106 q 635 497 633 299 q 519 447 586 465 q 385 428 453 428 q 136 505 227 428 q 45 732 45 581 q 88 899 45 829 q 208 1005 130 969 q 390 1041 285 1041 m 185 736 q 244 589 185 638 q 413 541 303 541 q 529 558 470 541 q 634 608 588 574 q 566 854 628 780 q 389 928 503 928 q 240 880 295 928 q 185 736 185 832 z "},"\u0000":{"ha":0,"x_min":0,"x_max":0,"o":""},"\r":{"ha":367,"x_min":0,"x_max":0,"o":""}," ":{"ha":367,"x_min":0,"x_max":0,"o":""},"A":{"ha":1022,"x_min":21,"x_max":1002,"o":"m 849 0 l 735 314 l 285 314 l 172 0 l 21 0 l 402 1028 l 620 1028 l 1002 0 l 849 0 m 331 437 l 690 437 l 510 931 l 331 437 z "},"Á":{"ha":1022,"x_min":21,"x_max":1002,"o":"m 849 0 l 735 314 l 285 314 l 172 0 l 21 0 l 402 1028 l 620 1028 l 1002 0 l 849 0 m 331 437 l 690 437 l 510 931 l 331 437 m 441 1114 l 578 1315 l 741 1315 l 579 1114 l 441 1114 z "},"Ă":{"ha":1022,"x_min":21,"x_max":1002,"o":"m 849 0 l 735 314 l 285 314 l 172 0 l 21 0 l 402 1028 l 620 1028 l 1002 0 l 849 0 m 331 437 l 690 437 l 510 931 l 331 437 m 512 1119 q 333 1169 397 1119 q 260 1303 270 1219 l 357 1303 q 402 1226 366 1253 q 512 1199 439 1199 q 621 1226 585 1199 q 665 1303 656 1252 l 763 1303 q 690 1168 752 1218 q 512 1119 628 1119 z "},"Ắ":{"ha":1022,"x_min":21,"x_max":1002,"o":"m 849 0 l 735 314 l 285 314 l 172 0 l 21 0 l 402 1028 l 620 1028 l 1002 0 l 849 0 m 331 437 l 690 437 l 510 931 l 331 437 m 465 1276 l 576 1447 l 692 1447 l 558 1276 l 465 1276 m 512 1119 q 341 1165 401 1119 q 269 1291 281 1211 l 356 1291 q 400 1216 365 1241 q 512 1190 435 1190 q 623 1215 588 1190 q 669 1291 658 1240 l 753 1291 q 682 1165 742 1211 q 512 1119 622 1119 z "},"Ặ":{"ha":1022,"x_min":21,"x_max":1002,"o":"m 849 0 l 735 314 l 285 314 l 172 0 l 21 0 l 402 1028 l 620 1028 l 1002 0 l 849 0 m 331 437 l 690 437 l 510 931 l 331 437 m 512 -258 q 440 -237 465 -258 q 415 -182 415 -217 q 440 -126 415 -147 q 512 -106 465 -106 q 584 -126 559 -106 q 609 -182 609 -147 q 584 -237 609 -217 q 512 -258 559 -258 m 512 1119 q 333 1169 397 1119 q 260 1303 270 1219 l 357 1303 q 402 1226 366 1253 q 512 1199 439 1199 q 621 1226 585 1199 q 665 1303 656 1252 l 763 1303 q 690 1168 752 1218 q 512 1119 628 1119 z "},"Ằ":{"ha":1022,"x_min":21,"x_max":1002,"o":"m 849 0 l 735 314 l 285 314 l 172 0 l 21 0 l 402 1028 l 620 1028 l 1002 0 l 849 0 m 331 437 l 690 437 l 510 931 l 331 437 m 465 1276 l 331 1447 l 446 1447 l 558 1276 l 465 1276 m 510 1119 q 340 1165 399 1119 q 269 1291 281 1211 l 353 1291 q 399 1215 364 1240 q 510 1190 434 1190 q 622 1216 587 1190 q 667 1291 657 1241 l 753 1291 q 681 1165 742 1212 q 510 1119 621 1119 z "},"Ẳ":{"ha":1022,"x_min":21,"x_max":1002,"o":"m 849 0 l 735 314 l 285 314 l 172 0 l 21 0 l 402 1028 l 620 1028 l 1002 0 l 849 0 m 331 437 l 690 437 l 510 931 l 331 437 m 469 1276 q 489 1318 470 1303 q 543 1347 508 1333 q 579 1365 567 1358 q 590 1385 590 1373 q 508 1414 590 1414 q 437 1409 470 1414 q 366 1394 404 1405 l 366 1451 q 437 1467 397 1461 q 517 1472 476 1472 q 636 1451 597 1472 q 675 1392 675 1430 q 657 1350 675 1365 q 606 1321 640 1335 q 567 1300 580 1309 q 553 1276 555 1291 l 469 1276 m 510 1119 q 340 1165 399 1119 q 269 1291 281 1211 l 356 1291 q 399 1216 365 1241 q 510 1190 434 1190 q 622 1215 587 1190 q 669 1291 658 1240 l 753 1291 q 681 1165 742 1212 q 510 1119 621 1119 z "},"Ẵ":{"ha":1022,"x_min":21,"x_max":1002,"o":"m 849 0 l 735 314 l 285 314 l 172 0 l 21 0 l 402 1028 l 620 1028 l 1002 0 l 849 0 m 331 437 l 690 437 l 510 931 l 331 437 m 617 1333 q 562 1340 588 1333 q 498 1359 535 1347 q 445 1375 466 1370 q 404 1381 424 1381 q 337 1369 368 1381 q 269 1333 306 1358 l 269 1408 q 333 1441 301 1431 q 406 1451 365 1451 q 460 1444 434 1451 q 524 1425 487 1438 q 577 1409 556 1414 q 618 1403 598 1403 q 685 1415 654 1403 q 753 1451 716 1426 l 753 1376 q 689 1343 722 1353 q 617 1333 657 1333 m 510 1119 q 340 1165 399 1119 q 269 1291 281 1211 l 356 1291 q 399 1216 365 1241 q 510 1190 434 1190 q 622 1216 587 1190 q 667 1291 657 1241 l 753 1291 q 681 1165 742 1212 q 510 1119 621 1119 z "},"Â":{"ha":1022,"x_min":21,"x_max":1002,"o":"m 849 0 l 735 314 l 285 314 l 172 0 l 21 0 l 402 1028 l 620 1028 l 1002 0 l 849 0 m 331 437 l 690 437 l 510 931 l 331 437 m 768 1114 l 640 1114 l 511 1253 l 382 1114 l 254 1114 l 444 1315 l 578 1315 l 768 1114 z "},"Ấ":{"ha":1022,"x_min":21,"x_max":1002,"o":"m 849 0 l 735 314 l 285 314 l 172 0 l 21 0 l 402 1028 l 620 1028 l 1002 0 l 849 0 m 331 437 l 690 437 l 510 931 l 331 437 m 797 1433 l 913 1433 l 779 1254 l 685 1254 l 797 1433 m 444 1303 l 578 1303 l 768 1114 l 640 1114 l 511 1247 l 382 1114 l 254 1114 l 444 1303 z "},"Ậ":{"ha":1022,"x_min":21,"x_max":1002,"o":"m 849 0 l 735 314 l 285 314 l 172 0 l 21 0 l 402 1028 l 620 1028 l 1002 0 l 849 0 m 331 437 l 690 437 l 510 931 l 331 437 m 512 -258 q 440 -237 465 -258 q 415 -182 415 -217 q 440 -126 415 -147 q 512 -106 465 -106 q 584 -126 559 -106 q 609 -182 609 -147 q 584 -237 609 -217 q 512 -258 559 -258 m 768 1114 l 640 1114 l 511 1253 l 382 1114 l 254 1114 l 444 1315 l 578 1315 l 768 1114 z "},"Ầ":{"ha":1022,"x_min":21,"x_max":1002,"o":"m 849 0 l 735 314 l 285 314 l 172 0 l 21 0 l 402 1028 l 620 1028 l 1002 0 l 849 0 m 331 437 l 690 437 l 510 931 l 331 437 m 798 1254 l 705 1254 l 571 1433 l 686 1433 l 798 1254 m 444 1303 l 578 1303 l 768 1114 l 640 1114 l 511 1247 l 382 1114 l 254 1114 l 444 1303 z "},"Ẩ":{"ha":1022,"x_min":21,"x_max":1002,"o":"m 849 0 l 735 314 l 285 314 l 172 0 l 21 0 l 402 1028 l 620 1028 l 1002 0 l 849 0 m 331 437 l 690 437 l 510 931 l 331 437 m 733 1450 q 853 1429 814 1450 q 892 1370 892 1408 q 874 1328 892 1343 q 823 1299 856 1313 q 784 1278 797 1287 q 769 1254 772 1269 l 685 1254 q 706 1297 687 1282 q 760 1325 726 1311 q 795 1343 784 1335 q 807 1363 807 1351 q 788 1384 807 1377 q 724 1392 769 1392 q 654 1387 687 1392 q 583 1372 621 1383 l 583 1429 q 653 1444 614 1439 q 733 1450 693 1450 m 444 1303 l 578 1303 l 768 1114 l 640 1114 l 511 1247 l 382 1114 l 254 1114 l 444 1303 z "},"Ẫ":{"ha":1022,"x_min":21,"x_max":1002,"o":"m 849 0 l 735 314 l 285 314 l 172 0 l 21 0 l 402 1028 l 620 1028 l 1002 0 l 849 0 m 331 437 l 690 437 l 510 931 l 331 437 m 628 1403 q 699 1415 667 1403 q 768 1451 731 1426 l 768 1376 q 703 1343 738 1353 q 627 1333 669 1333 q 566 1340 595 1333 q 497 1359 537 1347 q 440 1375 463 1370 q 394 1381 417 1381 q 323 1369 356 1381 q 254 1333 291 1358 l 254 1408 q 319 1441 285 1431 q 395 1451 353 1451 q 456 1444 427 1451 q 525 1425 485 1438 q 582 1409 560 1414 q 628 1403 605 1403 m 444 1303 l 578 1303 l 768 1114 l 640 1114 l 511 1247 l 382 1114 l 254 1114 l 444 1303 z "},"Ȁ":{"ha":1022,"x_min":21,"x_max":1002,"o":"m 849 0 l 735 314 l 285 314 l 172 0 l 21 0 l 402 1028 l 620 1028 l 1002 0 l 849 0 m 331 437 l 690 437 l 510 931 l 331 437 m 324 1114 l 214 1315 l 336 1315 l 438 1114 l 324 1114 m 584 1114 l 474 1315 l 597 1315 l 699 1114 l 584 1114 z "},"Ä":{"ha":1022,"x_min":21,"x_max":1002,"o":"m 849 0 l 735 314 l 285 314 l 172 0 l 21 0 l 402 1028 l 620 1028 l 1002 0 l 849 0 m 331 437 l 690 437 l 510 931 l 331 437 m 331 1140 q 267 1160 290 1140 q 244 1216 244 1181 q 267 1272 244 1252 q 331 1292 290 1292 q 396 1272 374 1292 q 419 1216 419 1252 q 396 1160 419 1180 q 331 1140 374 1140 m 691 1140 q 626 1160 649 1140 q 603 1216 603 1180 q 626 1272 603 1252 q 691 1292 649 1292 q 755 1272 733 1292 q 778 1216 778 1252 q 755 1160 778 1181 q 691 1140 733 1140 z "},"Ạ":{"ha":1022,"x_min":21,"x_max":1002,"o":"m 849 0 l 735 314 l 285 314 l 172 0 l 21 0 l 402 1028 l 620 1028 l 1002 0 l 849 0 m 331 437 l 690 437 l 510 931 l 331 437 m 512 -258 q 440 -237 465 -258 q 415 -182 415 -217 q 440 -126 415 -147 q 512 -106 465 -106 q 584 -126 559 -106 q 609 -182 609 -147 q 584 -237 609 -217 q 512 -258 559 -258 z "},"À":{"ha":1022,"x_min":21,"x_max":1002,"o":"m 849 0 l 735 314 l 285 314 l 172 0 l 21 0 l 402 1028 l 620 1028 l 1002 0 l 849 0 m 331 437 l 690 437 l 510 931 l 331 437 m 442 1114 l 281 1315 l 443 1315 l 581 1114 l 442 1114 z "},"Ả":{"ha":1022,"x_min":21,"x_max":1002,"o":"m 849 0 l 735 314 l 285 314 l 172 0 l 21 0 l 402 1028 l 620 1028 l 1002 0 l 849 0 m 331 437 l 690 437 l 510 931 l 331 437 m 469 1114 q 490 1159 470 1143 q 544 1190 509 1174 q 579 1207 567 1199 q 590 1228 590 1215 q 571 1251 590 1243 q 508 1258 552 1258 q 437 1254 470 1258 q 366 1238 404 1249 l 366 1301 q 436 1317 397 1311 q 517 1323 476 1323 q 636 1300 597 1323 q 675 1238 675 1278 q 665 1203 675 1217 q 642 1181 656 1190 q 606 1161 628 1172 q 568 1139 581 1149 q 553 1114 555 1129 l 469 1114 z "},"Ȃ":{"ha":1022,"x_min":21,"x_max":1002,"o":"m 849 0 l 735 314 l 285 314 l 172 0 l 21 0 l 402 1028 l 620 1028 l 1002 0 l 849 0 m 331 437 l 690 437 l 510 931 l 331 437 m 260 1126 q 332 1260 270 1210 q 510 1310 394 1310 q 689 1260 626 1310 q 763 1126 752 1210 l 665 1126 q 620 1203 656 1176 q 510 1229 583 1229 q 401 1203 437 1229 q 357 1126 366 1177 l 260 1126 z "},"Ā":{"ha":1022,"x_min":21,"x_max":1002,"o":"m 849 0 l 735 314 l 285 314 l 172 0 l 21 0 l 402 1028 l 620 1028 l 1002 0 l 849 0 m 331 437 l 690 437 l 510 931 l 331 437 m 274 1168 l 274 1262 l 748 1262 l 748 1168 l 274 1168 z "},"Ą":{"ha":1022,"x_min":21,"x_max":1065,"o":"m 952 -228 q 1003 -222 976 -228 q 1065 -203 1030 -216 l 1065 -269 q 935 -294 1001 -294 q 802 -259 848 -294 q 757 -161 757 -224 q 783 -74 757 -114 q 868 0 809 -34 l 849 0 l 735 314 l 285 314 l 172 0 l 21 0 l 402 1028 l 620 1028 l 1002 0 q 882 -73 916 -37 q 848 -151 848 -108 q 874 -208 848 -188 q 952 -228 900 -228 m 331 437 l 690 437 l 510 931 l 331 437 z "},"Å":{"ha":1022,"x_min":21,"x_max":1002,"o":"m 849 0 l 735 314 l 285 314 l 172 0 l 21 0 l 402 1028 l 620 1028 l 1002 0 l 849 0 m 331 437 l 690 437 l 510 931 l 331 437 m 513 1033 q 441 1050 473 1033 q 391 1100 409 1068 q 372 1170 372 1131 q 390 1241 372 1210 q 441 1291 408 1273 q 513 1308 473 1308 q 584 1291 552 1308 q 635 1241 617 1273 q 653 1170 653 1210 q 634 1100 653 1131 q 584 1050 616 1068 q 513 1033 552 1033 m 513 1092 q 567 1114 547 1092 q 588 1170 588 1135 q 567 1227 588 1206 q 513 1248 547 1248 q 458 1227 478 1248 q 437 1170 437 1206 q 458 1114 437 1135 q 513 1092 478 1092 z "},"Ǻ":{"ha":1022,"x_min":21,"x_max":1002,"o":"m 849 0 l 735 314 l 285 314 l 172 0 l 21 0 l 402 1028 l 620 1028 l 1002 0 l 849 0 m 331 437 l 690 437 l 510 931 l 331 437 m 630 1249 q 653 1171 653 1215 q 635 1100 653 1131 q 584 1050 617 1068 q 513 1033 552 1033 q 441 1050 473 1033 q 390 1100 408 1068 q 372 1171 372 1131 q 391 1241 372 1210 q 441 1291 409 1273 q 513 1308 473 1308 q 566 1299 539 1308 l 647 1388 l 762 1388 l 630 1249 m 513 1093 q 567 1114 547 1093 q 588 1171 588 1135 q 567 1227 588 1206 q 513 1249 547 1249 q 458 1227 478 1249 q 437 1171 437 1206 q 458 1114 437 1135 q 513 1093 478 1093 z "},"Ã":{"ha":1022,"x_min":21,"x_max":1002,"o":"m 849 0 l 735 314 l 285 314 l 172 0 l 21 0 l 402 1028 l 620 1028 l 1002 0 l 849 0 m 331 437 l 690 437 l 510 931 l 331 437 m 628 1148 q 567 1155 596 1148 q 500 1176 538 1163 q 441 1194 465 1188 q 392 1200 417 1200 q 321 1189 351 1200 q 260 1151 290 1177 l 260 1244 q 318 1280 285 1268 q 394 1291 350 1291 q 453 1284 426 1291 q 522 1263 481 1277 q 581 1244 556 1251 q 630 1238 605 1238 q 701 1250 671 1238 q 762 1287 732 1261 l 762 1194 q 705 1159 738 1170 q 628 1148 672 1148 z "},"Æ":{"ha":1397,"x_min":21,"x_max":1336,"o":"m 840 123 l 1336 123 l 1336 0 l 697 0 l 673 314 l 289 314 l 172 0 l 21 0 l 407 1028 l 1329 1028 l 1329 905 l 775 905 l 801 588 l 1259 588 l 1259 465 l 811 465 l 840 123 m 334 437 l 663 437 l 626 905 l 508 905 l 334 437 z "},"Ǽ":{"ha":1397,"x_min":21,"x_max":1336,"o":"m 840 123 l 1336 123 l 1336 0 l 697 0 l 673 314 l 289 314 l 172 0 l 21 0 l 407 1028 l 1329 1028 l 1329 905 l 775 905 l 801 588 l 1259 588 l 1259 465 l 811 465 l 840 123 m 334 437 l 663 437 l 626 905 l 508 905 l 334 437 m 624 1114 l 761 1315 l 924 1315 l 762 1114 l 624 1114 z "},"B":{"ha":935,"x_min":118,"x_max":886,"o":"m 678 530 q 833 448 780 511 q 886 284 886 384 q 838 122 886 187 q 682 24 790 58 q 399 -10 575 -10 q 118 9 262 -10 l 118 1006 q 435 1039 274 1039 q 756 970 654 1039 q 857 760 857 901 q 812 613 857 674 q 678 530 767 552 m 451 925 q 267 910 349 925 l 267 585 l 474 585 q 656 626 599 585 q 713 753 713 667 q 686 852 713 815 q 603 907 660 890 q 451 925 546 925 m 435 105 q 619 125 551 105 q 715 185 687 145 q 744 290 744 226 q 683 426 744 383 q 492 469 623 469 l 267 469 l 267 115 q 435 105 338 105 z "},"C":{"ha":880,"x_min":75,"x_max":844,"o":"m 594 -13 q 209 113 344 -13 q 75 512 75 239 q 212 909 75 777 q 605 1041 349 1041 q 844 1011 726 1041 l 844 883 q 614 913 731 913 q 329 818 424 913 q 235 515 235 723 q 278 282 235 370 q 402 155 321 194 q 605 115 484 115 q 724 124 667 115 q 844 153 781 133 l 844 25 q 594 -13 729 -13 z "},"Ć":{"ha":880,"x_min":75,"x_max":844,"o":"m 594 -13 q 209 113 344 -13 q 75 512 75 239 q 212 909 75 777 q 605 1041 349 1041 q 844 1011 726 1041 l 844 883 q 614 913 731 913 q 329 818 424 913 q 235 515 235 723 q 278 282 235 370 q 402 155 321 194 q 605 115 484 115 q 724 124 667 115 q 844 153 781 133 l 844 25 q 594 -13 729 -13 m 459 1114 l 597 1315 l 759 1315 l 597 1114 l 459 1114 z "},"Č":{"ha":880,"x_min":75,"x_max":844,"o":"m 594 -13 q 209 113 344 -13 q 75 512 75 239 q 212 909 75 777 q 605 1041 349 1041 q 844 1011 726 1041 l 844 883 q 614 913 731 913 q 329 818 424 913 q 235 515 235 723 q 278 282 235 370 q 402 155 321 194 q 605 115 484 115 q 724 124 667 115 q 844 153 781 133 l 844 25 q 594 -13 729 -13 m 658 1315 l 786 1315 l 596 1114 l 463 1114 l 272 1315 l 400 1315 l 529 1175 l 658 1315 z "},"Ç":{"ha":880,"x_min":75,"x_max":844,"o":"m 614 913 q 329 818 424 913 q 235 515 235 723 q 278 282 235 370 q 402 155 321 194 q 605 115 484 115 q 724 124 667 115 q 844 153 781 133 l 844 25 q 594 -13 729 -13 l 568 -13 l 568 -67 q 664 -101 631 -72 q 698 -179 698 -130 q 654 -265 698 -235 q 528 -294 610 -294 q 387 -269 452 -294 l 387 -204 q 522 -230 453 -230 q 591 -217 568 -230 q 615 -175 615 -203 q 522 -119 615 -119 l 490 -119 l 490 -8 q 75 512 75 42 q 212 909 75 777 q 605 1041 349 1041 q 844 1011 726 1041 l 844 883 q 614 913 731 913 z "},"Ḉ":{"ha":880,"x_min":75,"x_max":844,"o":"m 759 1315 l 597 1114 l 459 1114 l 597 1315 l 759 1315 m 614 913 q 329 818 424 913 q 235 515 235 723 q 278 282 235 370 q 402 155 321 194 q 605 115 484 115 q 724 124 667 115 q 844 153 781 133 l 844 25 q 594 -13 729 -13 l 568 -13 l 568 -67 q 664 -101 631 -72 q 698 -179 698 -130 q 654 -265 698 -235 q 528 -294 610 -294 q 387 -269 452 -294 l 387 -204 q 522 -230 453 -230 q 591 -217 568 -230 q 615 -175 615 -203 q 522 -119 615 -119 l 490 -119 l 490 -8 q 75 512 75 42 q 212 909 75 777 q 605 1041 349 1041 q 844 1011 726 1041 l 844 883 q 614 913 731 913 z "},"Ĉ":{"ha":880,"x_min":75,"x_max":844,"o":"m 594 -13 q 209 113 344 -13 q 75 512 75 239 q 212 909 75 777 q 605 1041 349 1041 q 844 1011 726 1041 l 844 883 q 614 913 731 913 q 329 818 424 913 q 235 515 235 723 q 278 282 235 370 q 402 155 321 194 q 605 115 484 115 q 724 124 667 115 q 844 153 781 133 l 844 25 q 594 -13 729 -13 m 786 1114 l 658 1114 l 529 1253 l 400 1114 l 272 1114 l 463 1315 l 596 1315 l 786 1114 z "},"Ċ":{"ha":880,"x_min":75,"x_max":844,"o":"m 594 -13 q 209 113 344 -13 q 75 512 75 239 q 212 909 75 777 q 605 1041 349 1041 q 844 1011 726 1041 l 844 883 q 614 913 731 913 q 329 818 424 913 q 235 515 235 723 q 278 282 235 370 q 402 155 321 194 q 605 115 484 115 q 724 124 667 115 q 844 153 781 133 l 844 25 q 594 -13 729 -13 m 529 1140 q 457 1160 482 1140 q 432 1216 432 1181 q 457 1272 432 1251 q 529 1292 482 1292 q 601 1272 576 1292 q 626 1216 626 1251 q 601 1160 626 1181 q 529 1140 576 1140 z "},"D":{"ha":1064,"x_min":118,"x_max":990,"o":"m 396 -8 q 118 8 252 -8 l 118 1006 q 271 1030 189 1022 q 428 1038 353 1038 q 990 514 990 1038 q 842 119 990 246 q 396 -8 695 -8 m 431 117 q 656 159 567 117 q 788 288 744 200 q 832 515 832 376 q 734 816 832 720 q 435 913 635 913 q 271 899 363 913 l 271 126 q 431 117 339 117 z "},"Ǳ":{"ha":1903,"x_min":118,"x_max":1856,"o":"m 396 -8 q 118 8 252 -8 l 118 1006 q 271 1030 189 1022 q 428 1038 353 1038 q 990 514 990 1038 q 842 119 990 246 q 396 -8 695 -8 m 431 117 q 656 159 567 117 q 788 288 744 200 q 832 515 832 376 q 734 816 832 720 q 435 913 635 913 q 271 899 363 913 l 271 126 q 431 117 339 117 m 1274 126 l 1856 126 l 1856 0 l 1073 0 l 1073 84 l 1647 901 l 1081 901 l 1081 1028 l 1847 1028 l 1847 944 l 1274 126 z "},"Ǆ":{"ha":1903,"x_min":118,"x_max":1856,"o":"m 396 -8 q 118 8 252 -8 l 118 1006 q 271 1030 189 1022 q 428 1038 353 1038 q 990 514 990 1038 q 842 119 990 246 q 396 -8 695 -8 m 431 117 q 656 159 567 117 q 788 288 744 200 q 832 515 832 376 q 734 816 832 720 q 435 913 635 913 q 271 899 363 913 l 271 126 q 431 117 339 117 m 1274 126 l 1856 126 l 1856 0 l 1073 0 l 1073 84 l 1647 901 l 1081 901 l 1081 1028 l 1847 1028 l 1847 944 l 1274 126 m 1594 1315 l 1722 1315 l 1531 1114 l 1398 1114 l 1208 1315 l 1335 1315 l 1465 1175 l 1594 1315 z "},"Ð":{"ha":1064,"x_min":3,"x_max":990,"o":"m 428 1038 q 990 514 990 1038 q 842 119 990 246 q 396 -8 695 -8 q 118 8 252 -8 l 118 478 l 3 478 l 3 580 l 118 580 l 118 1006 q 271 1030 189 1022 q 428 1038 353 1038 m 431 117 q 656 159 567 117 q 788 288 744 200 q 832 515 832 376 q 734 816 832 720 q 435 913 635 913 q 271 899 363 913 l 271 580 l 508 580 l 508 478 l 271 478 l 271 126 q 431 117 339 117 z "},"Ď":{"ha":1064,"x_min":118,"x_max":990,"o":"m 396 -8 q 118 8 252 -8 l 118 1006 q 271 1030 189 1022 q 428 1038 353 1038 q 990 514 990 1038 q 842 119 990 246 q 396 -8 695 -8 m 431 117 q 656 159 567 117 q 788 288 744 200 q 832 515 832 376 q 734 816 832 720 q 435 913 635 913 q 271 899 363 913 l 271 126 q 431 117 339 117 m 608 1315 l 736 1315 l 546 1114 l 413 1114 l 222 1315 l 350 1315 l 479 1175 l 608 1315 z "},"Đ":{"ha":1064,"x_min":3,"x_max":990,"o":"m 428 1038 q 990 514 990 1038 q 842 119 990 246 q 396 -8 695 -8 q 118 8 252 -8 l 118 478 l 3 478 l 3 580 l 118 580 l 118 1006 q 271 1030 189 1022 q 428 1038 353 1038 m 431 117 q 656 159 567 117 q 788 288 744 200 q 832 515 832 376 q 734 816 832 720 q 435 913 635 913 q 271 899 363 913 l 271 580 l 508 580 l 508 478 l 271 478 l 271 126 q 431 117 339 117 z "},"Ḍ":{"ha":1064,"x_min":118,"x_max":990,"o":"m 396 -8 q 118 8 252 -8 l 118 1006 q 271 1030 189 1022 q 428 1038 353 1038 q 990 514 990 1038 q 842 119 990 246 q 396 -8 695 -8 m 431 117 q 656 159 567 117 q 788 288 744 200 q 832 515 832 376 q 734 816 832 720 q 435 913 635 913 q 271 899 363 913 l 271 126 q 431 117 339 117 m 485 -258 q 413 -237 438 -258 q 388 -182 388 -217 q 413 -126 388 -147 q 485 -106 438 -106 q 557 -126 532 -106 q 582 -182 582 -147 q 557 -237 582 -217 q 485 -258 532 -258 z "},"Ḏ":{"ha":1064,"x_min":118,"x_max":990,"o":"m 396 -8 q 118 8 252 -8 l 118 1006 q 271 1030 189 1022 q 428 1038 353 1038 q 990 514 990 1038 q 842 119 990 246 q 396 -8 695 -8 m 431 117 q 656 159 567 117 q 788 288 744 200 q 832 515 832 376 q 734 816 832 720 q 435 913 635 913 q 271 899 363 913 l 271 126 q 431 117 339 117 m 248 -226 l 248 -133 l 722 -133 l 722 -226 l 248 -226 z "},"ǲ":{"ha":1773,"x_min":118,"x_max":1733,"o":"m 396 -8 q 118 8 252 -8 l 118 1006 q 271 1030 189 1022 q 428 1038 353 1038 q 990 514 990 1038 q 842 119 990 246 q 396 -8 695 -8 m 431 117 q 656 159 567 117 q 788 288 744 200 q 832 515 832 376 q 734 816 832 720 q 435 913 635 913 q 271 899 363 913 l 271 126 q 431 117 339 117 m 1305 121 l 1733 121 l 1733 0 l 1113 0 l 1113 94 l 1531 635 l 1120 635 l 1120 756 l 1724 756 l 1724 661 l 1305 121 z "},"ǅ":{"ha":1773,"x_min":118,"x_max":1733,"o":"m 396 -8 q 118 8 252 -8 l 118 1006 q 271 1030 189 1022 q 428 1038 353 1038 q 990 514 990 1038 q 842 119 990 246 q 396 -8 695 -8 m 431 117 q 656 159 567 117 q 788 288 744 200 q 832 515 832 376 q 734 816 832 720 q 435 913 635 913 q 271 899 363 913 l 271 126 q 431 117 339 117 m 1305 121 l 1733 121 l 1733 0 l 1113 0 l 1113 94 l 1531 635 l 1120 635 l 1120 756 l 1724 756 l 1724 661 l 1305 121 m 1552 1093 l 1680 1093 l 1490 892 l 1356 892 l 1166 1093 l 1294 1093 l 1423 953 l 1552 1093 z "},"E":{"ha":890,"x_min":118,"x_max":829,"o":"m 269 123 l 829 123 l 829 0 l 118 0 l 118 1028 l 822 1028 l 822 905 l 269 905 l 269 588 l 752 588 l 752 465 l 269 465 l 269 123 z "},"É":{"ha":890,"x_min":118,"x_max":829,"o":"m 269 123 l 829 123 l 829 0 l 118 0 l 118 1028 l 822 1028 l 822 905 l 269 905 l 269 588 l 752 588 l 752 465 l 269 465 l 269 123 m 415 1114 l 553 1315 l 715 1315 l 553 1114 l 415 1114 z "},"Ĕ":{"ha":890,"x_min":118,"x_max":829,"o":"m 269 123 l 829 123 l 829 0 l 118 0 l 118 1028 l 822 1028 l 822 905 l 269 905 l 269 588 l 752 588 l 752 465 l 269 465 l 269 123 m 486 1119 q 308 1169 371 1119 q 234 1303 244 1219 l 331 1303 q 377 1226 340 1253 q 486 1199 413 1199 q 595 1226 560 1199 q 640 1303 631 1252 l 737 1303 q 664 1168 726 1218 q 486 1119 602 1119 z "},"Ě":{"ha":890,"x_min":118,"x_max":829,"o":"m 269 123 l 829 123 l 829 0 l 118 0 l 118 1028 l 822 1028 l 822 905 l 269 905 l 269 588 l 752 588 l 752 465 l 269 465 l 269 123 m 615 1315 l 742 1315 l 552 1114 l 419 1114 l 228 1315 l 356 1315 l 485 1175 l 615 1315 z "},"Ḝ":{"ha":890,"x_min":118,"x_max":829,"o":"m 486 1119 q 308 1169 371 1119 q 234 1303 244 1219 l 331 1303 q 377 1226 340 1253 q 486 1199 413 1199 q 595 1226 560 1199 q 640 1303 631 1252 l 737 1303 q 664 1168 726 1218 q 486 1119 602 1119 m 518 0 l 518 -67 q 614 -101 581 -72 q 648 -179 648 -130 q 604 -265 648 -235 q 478 -294 560 -294 q 337 -269 402 -294 l 337 -204 q 472 -230 403 -230 q 541 -217 518 -230 q 565 -175 565 -203 q 472 -119 565 -119 l 440 -119 l 440 0 l 118 0 l 118 1028 l 822 1028 l 822 905 l 269 905 l 269 588 l 752 588 l 752 465 l 269 465 l 269 123 l 829 123 l 829 0 l 518 0 z "},"Ê":{"ha":890,"x_min":118,"x_max":829,"o":"m 269 123 l 829 123 l 829 0 l 118 0 l 118 1028 l 822 1028 l 822 905 l 269 905 l 269 588 l 752 588 l 752 465 l 269 465 l 269 123 m 742 1114 l 615 1114 l 485 1253 l 356 1114 l 228 1114 l 419 1315 l 552 1315 l 742 1114 z "},"Ế":{"ha":890,"x_min":118,"x_max":887,"o":"m 269 123 l 829 123 l 829 0 l 118 0 l 118 1028 l 822 1028 l 822 905 l 269 905 l 269 588 l 752 588 l 752 465 l 269 465 l 269 123 m 772 1433 l 887 1433 l 753 1254 l 660 1254 l 772 1433 m 419 1303 l 552 1303 l 742 1114 l 615 1114 l 485 1247 l 356 1114 l 228 1114 l 419 1303 z "},"Ệ":{"ha":890,"x_min":118,"x_max":829,"o":"m 269 123 l 829 123 l 829 0 l 118 0 l 118 1028 l 822 1028 l 822 905 l 269 905 l 269 588 l 752 588 l 752 465 l 269 465 l 269 123 m 487 -258 q 415 -237 440 -258 q 390 -182 390 -217 q 415 -126 390 -147 q 487 -106 440 -106 q 559 -126 534 -106 q 584 -182 584 -147 q 559 -237 584 -217 q 487 -258 534 -258 m 742 1114 l 615 1114 l 485 1253 l 356 1114 l 228 1114 l 419 1315 l 552 1315 l 742 1114 z "},"Ề":{"ha":890,"x_min":118,"x_max":829,"o":"m 269 123 l 829 123 l 829 0 l 118 0 l 118 1028 l 822 1028 l 822 905 l 269 905 l 269 588 l 752 588 l 752 465 l 269 465 l 269 123 m 772 1254 l 679 1254 l 545 1433 l 660 1433 l 772 1254 m 419 1303 l 552 1303 l 742 1114 l 615 1114 l 485 1247 l 356 1114 l 228 1114 l 419 1303 z "},"Ể":{"ha":890,"x_min":118,"x_max":866,"o":"m 269 123 l 829 123 l 829 0 l 118 0 l 118 1028 l 822 1028 l 822 905 l 269 905 l 269 588 l 752 588 l 752 465 l 269 465 l 269 123 m 708 1450 q 827 1429 788 1450 q 866 1370 866 1408 q 848 1328 866 1343 q 797 1299 831 1313 q 758 1278 771 1287 q 744 1254 746 1269 l 660 1254 q 681 1297 661 1282 q 734 1325 700 1311 q 770 1343 758 1335 q 781 1363 781 1351 q 762 1384 781 1377 q 699 1392 743 1392 q 628 1387 661 1392 q 557 1372 595 1383 l 557 1429 q 628 1444 588 1439 q 708 1450 667 1450 m 419 1303 l 552 1303 l 742 1114 l 615 1114 l 485 1247 l 356 1114 l 228 1114 l 419 1303 z "},"Ễ":{"ha":890,"x_min":118,"x_max":829,"o":"m 269 123 l 829 123 l 829 0 l 118 0 l 118 1028 l 822 1028 l 822 905 l 269 905 l 269 588 l 752 588 l 752 465 l 269 465 l 269 123 m 602 1403 q 673 1415 641 1403 q 742 1451 706 1426 l 742 1376 q 678 1343 712 1353 q 601 1333 644 1333 q 540 1340 569 1333 q 472 1359 511 1347 q 414 1375 437 1370 q 369 1381 392 1381 q 298 1369 330 1381 q 228 1333 265 1358 l 228 1408 q 293 1441 260 1431 q 369 1451 327 1451 q 431 1444 401 1451 q 499 1425 460 1438 q 557 1409 534 1414 q 602 1403 579 1403 m 419 1303 l 552 1303 l 742 1114 l 615 1114 l 485 1247 l 356 1114 l 228 1114 l 419 1303 z "},"Ȅ":{"ha":890,"x_min":118,"x_max":829,"o":"m 269 123 l 829 123 l 829 0 l 118 0 l 118 1028 l 822 1028 l 822 905 l 269 905 l 269 588 l 752 588 l 752 465 l 269 465 l 269 123 m 298 1114 l 188 1315 l 310 1315 l 413 1114 l 298 1114 m 558 1114 l 449 1315 l 571 1315 l 673 1114 l 558 1114 z "},"Ë":{"ha":890,"x_min":118,"x_max":829,"o":"m 269 123 l 829 123 l 829 0 l 118 0 l 118 1028 l 822 1028 l 822 905 l 269 905 l 269 588 l 752 588 l 752 465 l 269 465 l 269 123 m 306 1140 q 241 1160 264 1140 q 219 1216 219 1181 q 241 1272 219 1252 q 306 1292 264 1292 q 370 1272 348 1292 q 393 1216 393 1252 q 370 1160 393 1180 q 306 1140 348 1140 m 665 1140 q 600 1160 623 1140 q 578 1216 578 1180 q 600 1272 578 1252 q 665 1292 623 1292 q 730 1272 707 1292 q 752 1216 752 1252 q 730 1160 752 1181 q 665 1140 707 1140 z "},"Ė":{"ha":890,"x_min":118,"x_max":829,"o":"m 269 123 l 829 123 l 829 0 l 118 0 l 118 1028 l 822 1028 l 822 905 l 269 905 l 269 588 l 752 588 l 752 465 l 269 465 l 269 123 m 485 1140 q 413 1160 438 1140 q 388 1216 388 1181 q 413 1272 388 1251 q 485 1292 438 1292 q 558 1272 533 1292 q 583 1216 583 1251 q 558 1160 583 1181 q 485 1140 533 1140 z "},"Ẹ":{"ha":890,"x_min":118,"x_max":829,"o":"m 269 123 l 829 123 l 829 0 l 118 0 l 118 1028 l 822 1028 l 822 905 l 269 905 l 269 588 l 752 588 l 752 465 l 269 465 l 269 123 m 487 -258 q 415 -237 440 -258 q 390 -182 390 -217 q 415 -126 390 -147 q 487 -106 440 -106 q 559 -126 534 -106 q 584 -182 584 -147 q 559 -237 584 -217 q 487 -258 534 -258 z "},"È":{"ha":890,"x_min":118,"x_max":829,"o":"m 269 123 l 829 123 l 829 0 l 118 0 l 118 1028 l 822 1028 l 822 905 l 269 905 l 269 588 l 752 588 l 752 465 l 269 465 l 269 123 m 416 1114 l 255 1315 l 417 1315 l 555 1114 l 416 1114 z "},"Ẻ":{"ha":890,"x_min":118,"x_max":829,"o":"m 269 123 l 829 123 l 829 0 l 118 0 l 118 1028 l 822 1028 l 822 905 l 269 905 l 269 588 l 752 588 l 752 465 l 269 465 l 269 123 m 443 1114 q 464 1159 444 1143 q 518 1190 483 1174 q 553 1207 542 1199 q 565 1228 565 1215 q 545 1251 565 1243 q 482 1258 526 1258 q 411 1254 444 1258 q 340 1238 378 1249 l 340 1301 q 410 1317 371 1311 q 491 1323 450 1323 q 610 1300 572 1323 q 649 1238 649 1278 q 640 1203 649 1217 q 616 1181 630 1190 q 581 1161 603 1172 q 542 1139 555 1149 q 527 1114 529 1129 l 443 1114 z "},"Ȇ":{"ha":890,"x_min":118,"x_max":829,"o":"m 269 123 l 829 123 l 829 0 l 118 0 l 118 1028 l 822 1028 l 822 905 l 269 905 l 269 588 l 752 588 l 752 465 l 269 465 l 269 123 m 234 1126 q 307 1260 244 1210 q 485 1310 369 1310 q 663 1260 600 1310 q 737 1126 726 1210 l 640 1126 q 594 1203 631 1176 q 485 1229 558 1229 q 376 1203 411 1229 q 331 1126 340 1177 l 234 1126 z "},"Ē":{"ha":890,"x_min":118,"x_max":829,"o":"m 269 123 l 829 123 l 829 0 l 118 0 l 118 1028 l 822 1028 l 822 905 l 269 905 l 269 588 l 752 588 l 752 465 l 269 465 l 269 123 m 249 1168 l 249 1262 l 722 1262 l 722 1168 l 249 1168 z "},"Ḗ":{"ha":890,"x_min":118,"x_max":829,"o":"m 269 123 l 829 123 l 829 0 l 118 0 l 118 1028 l 822 1028 l 822 905 l 269 905 l 269 588 l 752 588 l 752 465 l 269 465 l 269 123 m 409 1337 l 546 1498 l 723 1498 l 563 1337 l 409 1337 m 249 1168 l 249 1262 l 722 1262 l 722 1168 l 249 1168 z "},"Ḕ":{"ha":890,"x_min":118,"x_max":829,"o":"m 269 123 l 829 123 l 829 0 l 118 0 l 118 1028 l 822 1028 l 822 905 l 269 905 l 269 588 l 752 588 l 752 465 l 269 465 l 269 123 m 409 1337 l 248 1498 l 424 1498 l 562 1337 l 409 1337 m 249 1168 l 249 1262 l 722 1262 l 722 1168 l 249 1168 z "},"Ę":{"ha":890,"x_min":118,"x_max":833,"o":"m 720 -228 q 771 -222 744 -228 q 833 -203 798 -216 l 833 -269 q 703 -294 769 -294 q 570 -259 616 -294 q 525 -161 525 -224 q 551 -74 525 -114 q 636 0 577 -34 l 118 0 l 118 1028 l 822 1028 l 822 905 l 269 905 l 269 588 l 752 588 l 752 465 l 269 465 l 269 123 l 829 123 l 829 0 l 770 0 q 650 -73 684 -37 q 616 -151 616 -108 q 642 -208 616 -188 q 720 -228 668 -228 z "},"Ẽ":{"ha":890,"x_min":118,"x_max":829,"o":"m 269 123 l 829 123 l 829 0 l 118 0 l 118 1028 l 822 1028 l 822 905 l 269 905 l 269 588 l 752 588 l 752 465 l 269 465 l 269 123 m 602 1148 q 541 1155 570 1148 q 474 1176 512 1163 q 415 1194 439 1188 q 367 1200 392 1200 q 295 1189 326 1200 q 235 1151 265 1177 l 235 1244 q 292 1280 260 1268 q 369 1291 324 1291 q 428 1284 401 1291 q 497 1263 455 1277 q 555 1244 531 1251 q 604 1238 579 1238 q 676 1250 645 1238 q 736 1287 706 1261 l 736 1194 q 679 1159 712 1170 q 602 1148 647 1148 z "},"F":{"ha":862,"x_min":118,"x_max":818,"o":"m 818 903 l 271 903 l 271 576 l 747 576 l 747 451 l 271 451 l 271 0 l 118 0 l 118 1028 l 818 1028 l 818 903 z "},"G":{"ha":1021,"x_min":75,"x_max":909,"o":"m 909 500 l 909 13 q 777 -5 839 1 q 651 -10 716 -10 q 219 119 363 -10 q 75 512 76 249 q 142 807 75 689 q 333 983 208 925 q 634 1041 458 1041 q 881 1010 754 1041 l 881 882 q 645 913 764 913 q 339 817 444 912 q 234 513 234 722 q 335 215 234 312 q 642 118 435 118 q 766 124 709 118 l 766 500 l 909 500 z "},"Ǵ":{"ha":1021,"x_min":75,"x_max":909,"o":"m 909 500 l 909 13 q 777 -5 839 1 q 651 -10 716 -10 q 219 119 363 -10 q 75 512 76 249 q 142 807 75 689 q 333 983 208 925 q 634 1041 458 1041 q 881 1010 754 1041 l 881 882 q 645 913 764 913 q 339 817 444 912 q 234 513 234 722 q 335 215 234 312 q 642 118 435 118 q 766 124 709 118 l 766 500 l 909 500 m 492 1114 l 629 1315 l 792 1315 l 630 1114 l 492 1114 z "},"Ğ":{"ha":1021,"x_min":75,"x_max":909,"o":"m 909 500 l 909 13 q 777 -5 839 1 q 651 -10 716 -10 q 219 119 363 -10 q 75 512 76 249 q 142 807 75 689 q 333 983 208 925 q 634 1041 458 1041 q 881 1010 754 1041 l 881 882 q 645 913 764 913 q 339 817 444 912 q 234 513 234 722 q 335 215 234 312 q 642 118 435 118 q 766 124 709 118 l 766 500 l 909 500 m 563 1119 q 384 1169 447 1119 q 310 1303 321 1219 l 408 1303 q 453 1226 417 1253 q 563 1199 490 1199 q 672 1226 636 1199 q 716 1303 707 1252 l 813 1303 q 741 1168 803 1218 q 563 1119 678 1119 z "},"Ǧ":{"ha":1021,"x_min":75,"x_max":909,"o":"m 909 500 l 909 13 q 777 -5 839 1 q 651 -10 716 -10 q 219 119 363 -10 q 75 512 76 249 q 142 807 75 689 q 333 983 208 925 q 634 1041 458 1041 q 881 1010 754 1041 l 881 882 q 645 913 764 913 q 339 817 444 912 q 234 513 234 722 q 335 215 234 312 q 642 118 435 118 q 766 124 709 118 l 766 500 l 909 500 m 691 1315 l 819 1315 l 628 1114 l 495 1114 l 305 1315 l 433 1315 l 562 1175 l 691 1315 z "},"Ĝ":{"ha":1021,"x_min":75,"x_max":909,"o":"m 909 500 l 909 13 q 777 -5 839 1 q 651 -10 716 -10 q 219 119 363 -10 q 75 512 76 249 q 142 807 75 689 q 333 983 208 925 q 634 1041 458 1041 q 881 1010 754 1041 l 881 882 q 645 913 764 913 q 339 817 444 912 q 234 513 234 722 q 335 215 234 312 q 642 118 435 118 q 766 124 709 118 l 766 500 l 909 500 m 819 1114 l 691 1114 l 562 1253 l 433 1114 l 305 1114 l 495 1315 l 628 1315 l 819 1114 z "},"Ģ":{"ha":1021,"x_min":75,"x_max":909,"o":"m 909 500 l 909 13 q 777 -5 839 1 q 651 -10 716 -10 q 219 119 363 -10 q 75 512 76 249 q 142 807 75 689 q 333 983 208 925 q 634 1041 458 1041 q 881 1010 754 1041 l 881 882 q 645 913 764 913 q 339 817 444 912 q 234 513 234 722 q 335 215 234 312 q 642 118 435 118 q 766 124 709 118 l 766 500 l 909 500 m 560 -106 q 653 -190 653 -106 q 641 -261 653 -223 q 608 -331 629 -299 l 516 -331 q 548 -232 542 -276 q 490 -213 509 -229 q 471 -169 471 -197 q 493 -123 471 -140 q 560 -106 516 -106 z "},"Ġ":{"ha":1021,"x_min":75,"x_max":909,"o":"m 909 500 l 909 13 q 777 -5 839 1 q 651 -10 716 -10 q 219 119 363 -10 q 75 512 76 249 q 142 807 75 689 q 333 983 208 925 q 634 1041 458 1041 q 881 1010 754 1041 l 881 882 q 645 913 764 913 q 339 817 444 912 q 234 513 234 722 q 335 215 234 312 q 642 118 435 118 q 766 124 709 118 l 766 500 l 909 500 m 562 1140 q 490 1160 515 1140 q 465 1216 465 1181 q 490 1272 465 1251 q 562 1292 515 1292 q 634 1272 609 1292 q 659 1216 659 1251 q 634 1160 659 1181 q 562 1140 609 1140 z "},"Ḡ":{"ha":1021,"x_min":75,"x_max":909,"o":"m 909 500 l 909 13 q 777 -5 839 1 q 651 -10 716 -10 q 219 119 363 -10 q 75 512 76 249 q 142 807 75 689 q 333 983 208 925 q 634 1041 458 1041 q 881 1010 754 1041 l 881 882 q 645 913 764 913 q 339 817 444 912 q 234 513 234 722 q 335 215 234 312 q 642 118 435 118 q 766 124 709 118 l 766 500 l 909 500 m 325 1168 l 325 1262 l 799 1262 l 799 1168 l 325 1168 z "},"H":{"ha":1087,"x_min":118,"x_max":969,"o":"m 118 0 l 118 1028 l 271 1028 l 271 594 l 816 594 l 816 1028 l 969 1028 l 969 0 l 816 0 l 816 459 l 271 459 l 271 0 l 118 0 z "},"Ħ":{"ha":1087,"x_min":4,"x_max":1083,"o":"m 1083 862 l 1083 763 l 969 763 l 969 0 l 816 0 l 816 459 l 271 459 l 271 0 l 118 0 l 118 763 l 4 763 l 4 862 l 118 862 l 118 1028 l 271 1028 l 271 862 l 816 862 l 816 1028 l 969 1028 l 969 862 l 1083 862 m 816 594 l 816 763 l 271 763 l 271 594 l 816 594 z "},"Ḫ":{"ha":1087,"x_min":118,"x_max":969,"o":"m 118 0 l 118 1028 l 271 1028 l 271 594 l 816 594 l 816 1028 l 969 1028 l 969 0 l 816 0 l 816 459 l 271 459 l 271 0 l 118 0 m 544 -292 q 363 -241 426 -292 q 292 -104 299 -190 l 390 -104 q 544 -212 401 -212 q 656 -184 620 -212 q 698 -104 692 -156 l 795 -104 q 726 -241 789 -190 q 544 -292 663 -292 z "},"Ĥ":{"ha":1087,"x_min":118,"x_max":969,"o":"m 118 0 l 118 1028 l 271 1028 l 271 594 l 816 594 l 816 1028 l 969 1028 l 969 0 l 816 0 l 816 459 l 271 459 l 271 0 l 118 0 m 801 1114 l 673 1114 l 544 1253 l 415 1114 l 287 1114 l 477 1315 l 610 1315 l 801 1114 z "},"Ḥ":{"ha":1087,"x_min":118,"x_max":969,"o":"m 118 0 l 118 1028 l 271 1028 l 271 594 l 816 594 l 816 1028 l 969 1028 l 969 0 l 816 0 l 816 459 l 271 459 l 271 0 l 118 0 m 544 -258 q 472 -237 497 -258 q 447 -182 447 -217 q 472 -126 447 -147 q 544 -106 497 -106 q 616 -126 591 -106 q 641 -182 641 -147 q 616 -237 641 -217 q 544 -258 591 -258 z "},"I":{"ha":389,"x_min":118,"x_max":271,"o":"m 118 0 l 118 1028 l 271 1028 l 271 0 l 118 0 z "},"Í":{"ha":389,"x_min":118,"x_max":424,"o":"m 118 0 l 118 1028 l 271 1028 l 271 0 l 118 0 m 124 1114 l 262 1315 l 424 1315 l 263 1114 l 124 1114 z "},"Ĭ":{"ha":389,"x_min":-57,"x_max":446,"o":"m 118 0 l 118 1028 l 271 1028 l 271 0 l 118 0 m 195 1119 q 17 1169 80 1119 q -57 1303 -47 1219 l 40 1303 q 86 1226 49 1253 q 195 1199 122 1199 q 304 1226 269 1199 q 349 1303 340 1252 l 446 1303 q 373 1168 435 1218 q 195 1119 311 1119 z "},"Î":{"ha":389,"x_min":-62,"x_max":451,"o":"m 118 0 l 118 1028 l 271 1028 l 271 0 l 118 0 m 451 1114 l 324 1114 l 194 1253 l 65 1114 l -62 1114 l 128 1315 l 261 1315 l 451 1114 z "},"Ȉ":{"ha":389,"x_min":-103,"x_max":382,"o":"m 118 0 l 118 1028 l 271 1028 l 271 0 l 118 0 m 7 1114 l -103 1315 l 19 1315 l 122 1114 l 7 1114 m 267 1114 l 158 1315 l 280 1315 l 382 1114 l 267 1114 z "},"Ï":{"ha":389,"x_min":-72,"x_max":461,"o":"m 118 0 l 118 1028 l 271 1028 l 271 0 l 118 0 m 15 1140 q -50 1160 -27 1140 q -72 1216 -72 1181 q -50 1272 -72 1252 q 15 1292 -27 1292 q 80 1272 57 1292 q 102 1216 102 1252 q 80 1160 102 1180 q 15 1140 57 1140 m 374 1140 q 309 1160 332 1140 q 287 1216 287 1180 q 309 1272 287 1252 q 374 1292 332 1292 q 439 1272 416 1292 q 461 1216 461 1252 q 439 1160 461 1181 q 374 1140 416 1140 z "},"Ḯ":{"ha":389,"x_min":-72,"x_max":461,"o":"m 118 0 l 118 1028 l 271 1028 l 271 0 l 118 0 m 118 1337 l 255 1498 l 432 1498 l 272 1337 l 118 1337 m 15 1140 q -50 1160 -27 1140 q -72 1216 -72 1181 q -50 1272 -72 1252 q 15 1292 -27 1292 q 80 1272 57 1292 q 102 1216 102 1252 q 80 1160 102 1180 q 15 1140 57 1140 m 374 1140 q 309 1160 332 1140 q 287 1216 287 1180 q 309 1272 287 1252 q 374 1292 332 1292 q 439 1272 416 1292 q 461 1216 461 1252 q 439 1160 461 1181 q 374 1140 416 1140 z "},"İ":{"ha":389,"x_min":97,"x_max":292,"o":"m 118 0 l 118 1028 l 271 1028 l 271 0 l 118 0 m 194 1140 q 122 1160 147 1140 q 97 1216 97 1181 q 122 1272 97 1251 q 194 1292 147 1292 q 267 1272 242 1292 q 292 1216 292 1251 q 267 1160 292 1181 q 194 1140 242 1140 z "},"Ị":{"ha":389,"x_min":97,"x_max":291,"o":"m 118 0 l 118 1028 l 271 1028 l 271 0 l 118 0 m 194 -258 q 122 -237 147 -258 q 97 -182 97 -217 q 122 -126 97 -147 q 194 -106 147 -106 q 266 -126 241 -106 q 291 -182 291 -147 q 266 -237 291 -217 q 194 -258 241 -258 z "},"Ì":{"ha":389,"x_min":-36,"x_max":271,"o":"m 118 0 l 118 1028 l 271 1028 l 271 0 l 118 0 m 125 1114 l -36 1315 l 126 1315 l 264 1114 l 125 1114 z "},"Ỉ":{"ha":389,"x_min":49,"x_max":358,"o":"m 118 0 l 118 1028 l 271 1028 l 271 0 l 118 0 m 152 1114 q 173 1159 153 1143 q 227 1190 192 1174 q 262 1207 251 1199 q 274 1228 274 1215 q 255 1251 274 1243 q 191 1258 235 1258 q 120 1254 153 1258 q 49 1238 88 1249 l 49 1301 q 119 1317 80 1311 q 200 1323 159 1323 q 319 1300 281 1323 q 358 1238 358 1278 q 349 1203 358 1217 q 325 1181 339 1190 q 290 1161 312 1172 q 251 1139 264 1149 q 236 1114 238 1129 l 152 1114 z "},"Ȋ":{"ha":389,"x_min":-57,"x_max":446,"o":"m 118 0 l 118 1028 l 271 1028 l 271 0 l 118 0 m -57 1126 q 16 1260 -47 1210 q 194 1310 78 1310 q 372 1260 309 1310 q 446 1126 435 1210 l 349 1126 q 303 1203 340 1176 q 194 1229 267 1229 q 85 1203 120 1229 q 40 1126 49 1177 l -57 1126 z "},"Ī":{"ha":389,"x_min":-42,"x_max":431,"o":"m 118 0 l 118 1028 l 271 1028 l 271 0 l 118 0 m -42 1168 l -42 1262 l 431 1262 l 431 1168 l -42 1168 z "},"Į":{"ha":389,"x_min":26,"x_max":333,"o":"m 221 -228 q 272 -222 245 -228 q 333 -203 299 -216 l 333 -269 q 204 -294 270 -294 q 71 -259 117 -294 q 26 -161 26 -224 q 52 -74 26 -114 q 137 0 78 -34 l 118 0 l 118 1028 l 271 1028 l 271 0 q 151 -73 185 -37 q 117 -151 117 -108 q 143 -208 117 -188 q 221 -228 169 -228 z "},"Ĩ":{"ha":389,"x_min":-56,"x_max":445,"o":"m 118 0 l 118 1028 l 271 1028 l 271 0 l 118 0 m 311 1148 q 250 1155 279 1148 q 183 1176 221 1163 q 124 1194 148 1188 q 76 1200 101 1200 q 4 1189 35 1200 q -56 1151 -26 1177 l -56 1244 q 1 1280 -31 1268 q 78 1291 33 1291 q 137 1284 110 1291 q 206 1263 164 1277 q 264 1244 240 1251 q 313 1238 288 1238 q 385 1250 354 1238 q 445 1287 415 1261 l 445 1194 q 388 1159 421 1170 q 311 1148 356 1148 z "},"J":{"ha":389,"x_min":-6,"x_max":271,"o":"m -6 -174 q 90 -1 61 -89 q 119 203 119 87 l 119 1028 l 271 1028 l 271 193 q 226 -35 267 66 q 92 -240 185 -137 l -6 -174 z "},"Ĵ":{"ha":389,"x_min":-62,"x_max":452,"o":"m -6 -174 q 90 -1 61 -89 q 119 203 119 87 l 119 1028 l 271 1028 l 271 193 q 226 -35 267 66 q 92 -240 185 -137 l -6 -174 m 452 1114 l 324 1114 l 195 1253 l 66 1114 l -62 1114 l 128 1315 l 262 1315 l 452 1114 z "},"K":{"ha":930,"x_min":118,"x_max":944,"o":"m 773 0 l 422 459 l 271 459 l 271 0 l 118 0 l 118 1028 l 271 1028 l 271 594 l 424 594 l 748 1028 l 913 1028 l 541 530 l 944 0 l 773 0 z "},"Ķ":{"ha":930,"x_min":118,"x_max":944,"o":"m 773 0 l 422 459 l 271 459 l 271 0 l 118 0 l 118 1028 l 271 1028 l 271 594 l 424 594 l 748 1028 l 913 1028 l 541 530 l 944 0 l 773 0 m 482 -106 q 574 -190 574 -106 q 563 -261 574 -223 q 530 -331 551 -299 l 438 -331 q 469 -232 463 -276 q 411 -213 431 -229 q 392 -169 392 -197 q 415 -123 392 -140 q 482 -106 438 -106 z "},"L":{"ha":811,"x_min":118,"x_max":801,"o":"m 118 0 l 118 1028 l 271 1028 l 271 128 l 801 128 l 801 0 l 118 0 z "},"Ǉ":{"ha":1200,"x_min":118,"x_max":1082,"o":"m 118 0 l 118 1028 l 271 1028 l 271 128 l 801 128 l 801 0 l 118 0 m 806 -174 q 901 -1 872 -89 q 930 203 930 87 l 930 1028 l 1082 1028 l 1082 193 q 1037 -35 1078 66 q 903 -240 997 -137 l 806 -174 z "},"Ĺ":{"ha":811,"x_min":118,"x_max":801,"o":"m 118 0 l 118 1028 l 271 1028 l 271 128 l 801 128 l 801 0 l 118 0 m 125 1114 l 263 1315 l 425 1315 l 263 1114 l 125 1114 z "},"Ľ":{"ha":811,"x_min":118,"x_max":801,"o":"m 118 0 l 118 1028 l 271 1028 l 271 128 l 801 128 l 801 0 l 118 0 m 516 792 q 529 940 526 863 q 533 1122 533 1018 l 638 1122 q 599 792 638 928 l 516 792 z "},"Ļ":{"ha":811,"x_min":118,"x_max":801,"o":"m 118 0 l 118 1028 l 271 1028 l 271 128 l 801 128 l 801 0 l 118 0 m 458 -106 q 551 -190 551 -106 q 539 -261 551 -223 q 506 -331 527 -299 l 414 -331 q 446 -232 440 -276 q 388 -213 407 -229 q 369 -169 369 -197 q 391 -123 369 -140 q 458 -106 414 -106 z "},"Ŀ":{"ha":811,"x_min":118,"x_max":801,"o":"m 118 0 l 118 1028 l 271 1028 l 271 128 l 801 128 l 801 0 l 118 0 m 591 492 q 518 514 542 492 q 493 577 493 536 q 518 640 493 617 q 591 662 543 662 q 664 640 639 662 q 690 577 690 617 q 665 515 690 537 q 591 492 640 492 z "},"Ḷ":{"ha":811,"x_min":118,"x_max":801,"o":"m 118 0 l 118 1028 l 271 1028 l 271 128 l 801 128 l 801 0 l 118 0 m 460 -258 q 388 -237 413 -258 q 363 -182 363 -217 q 388 -126 363 -147 q 460 -106 413 -106 q 532 -126 507 -106 q 557 -182 557 -147 q 532 -237 557 -217 q 460 -258 507 -258 z "},"ǈ":{"ha":1174,"x_min":118,"x_max":1088,"o":"m 118 0 l 118 1028 l 271 1028 l 271 128 l 801 128 l 801 0 l 118 0 m 792 -258 q 888 -85 859 -173 q 917 119 917 3 l 917 756 l 1067 756 l 1067 126 q 1026 -113 1067 -7 q 890 -324 985 -219 l 792 -258 m 990 906 q 917 928 942 906 q 892 990 892 950 q 917 1053 892 1031 q 990 1076 942 1076 q 1063 1053 1038 1076 q 1088 990 1088 1031 q 1064 928 1088 950 q 990 906 1039 906 z "},"Ḻ":{"ha":811,"x_min":118,"x_max":801,"o":"m 118 0 l 118 1028 l 271 1028 l 271 128 l 801 128 l 801 0 l 118 0 m 223 -226 l 223 -133 l 697 -133 l 697 -226 l 223 -226 z "},"Ł":{"ha":811,"x_min":-17,"x_max":801,"o":"m 271 128 l 801 128 l 801 0 l 118 0 l 118 449 l 32 393 l -17 481 l 118 567 l 118 1028 l 271 1028 l 271 666 l 472 795 l 522 708 l 271 547 l 271 128 z "},"M":{"ha":1314,"x_min":121,"x_max":1193,"o":"m 1010 1028 l 1193 1028 l 1193 0 l 1049 0 l 1049 819 l 723 144 l 590 144 l 265 807 l 265 0 l 121 0 l 121 1028 l 303 1028 l 660 294 l 1010 1028 z "},"Ṃ":{"ha":1314,"x_min":121,"x_max":1193,"o":"m 1010 1028 l 1193 1028 l 1193 0 l 1049 0 l 1049 819 l 723 144 l 590 144 l 265 807 l 265 0 l 121 0 l 121 1028 l 303 1028 l 660 294 l 1010 1028 m 665 -258 q 593 -237 618 -258 q 568 -182 568 -217 q 593 -126 568 -147 q 665 -106 618 -106 q 738 -126 713 -106 q 763 -182 763 -147 q 738 -237 763 -217 q 665 -258 713 -258 z "},"N":{"ha":1102,"x_min":118,"x_max":984,"o":"m 840 1028 l 984 1028 l 984 0 l 828 0 l 263 806 l 263 0 l 118 0 l 118 1028 l 274 1028 l 840 222 l 840 1028 z "},"Ǌ":{"ha":1491,"x_min":118,"x_max":1373,"o":"m 840 1028 l 984 1028 l 984 0 l 828 0 l 263 806 l 263 0 l 118 0 l 118 1028 l 274 1028 l 840 222 l 840 1028 m 1097 -174 q 1192 -1 1163 -89 q 1221 203 1221 87 l 1221 1028 l 1373 1028 l 1373 193 q 1328 -35 1369 66 q 1194 -240 1288 -137 l 1097 -174 z "},"Ń":{"ha":1102,"x_min":118,"x_max":984,"o":"m 840 1028 l 984 1028 l 984 0 l 828 0 l 263 806 l 263 0 l 118 0 l 118 1028 l 274 1028 l 840 222 l 840 1028 m 481 1114 l 619 1315 l 781 1315 l 619 1114 l 481 1114 z "},"Ň":{"ha":1102,"x_min":118,"x_max":984,"o":"m 840 1028 l 984 1028 l 984 0 l 828 0 l 263 806 l 263 0 l 118 0 l 118 1028 l 274 1028 l 840 222 l 840 1028 m 681 1315 l 808 1315 l 618 1114 l 485 1114 l 294 1315 l 422 1315 l 551 1175 l 681 1315 z "},"Ņ":{"ha":1102,"x_min":118,"x_max":984,"o":"m 840 1028 l 984 1028 l 984 0 l 828 0 l 263 806 l 263 0 l 118 0 l 118 1028 l 274 1028 l 840 222 l 840 1028 m 550 -106 q 642 -190 642 -106 q 631 -261 642 -223 q 598 -331 619 -299 l 506 -331 q 538 -232 531 -276 q 480 -213 499 -229 q 460 -169 460 -197 q 483 -123 460 -140 q 550 -106 506 -106 z "},"Ṅ":{"ha":1102,"x_min":118,"x_max":984,"o":"m 840 1028 l 984 1028 l 984 0 l 828 0 l 263 806 l 263 0 l 118 0 l 118 1028 l 274 1028 l 840 222 l 840 1028 m 551 1140 q 479 1160 504 1140 q 454 1216 454 1181 q 479 1272 454 1251 q 551 1292 504 1292 q 624 1272 599 1292 q 649 1216 649 1251 q 624 1160 649 1181 q 551 1140 599 1140 z "},"Ṇ":{"ha":1102,"x_min":118,"x_max":984,"o":"m 840 1028 l 984 1028 l 984 0 l 828 0 l 263 806 l 263 0 l 118 0 l 118 1028 l 274 1028 l 840 222 l 840 1028 m 551 -258 q 479 -237 504 -258 q 454 -182 454 -217 q 479 -126 454 -147 q 551 -106 504 -106 q 624 -126 599 -106 q 649 -182 649 -147 q 624 -237 649 -217 q 551 -258 599 -258 z "},"Ŋ":{"ha":1102,"x_min":118,"x_max":984,"o":"m 984 1028 l 984 137 q 943 -111 984 -3 q 806 -324 901 -219 l 709 -258 q 788 -134 758 -196 q 830 -2 817 -72 l 263 805 l 263 0 l 118 0 l 118 1028 l 274 1028 l 840 224 l 840 1028 l 984 1028 z "},"ǋ":{"ha":1465,"x_min":118,"x_max":1379,"o":"m 840 1028 l 984 1028 l 984 0 l 828 0 l 263 806 l 263 0 l 118 0 l 118 1028 l 274 1028 l 840 222 l 840 1028 m 1083 -258 q 1179 -85 1150 -173 q 1208 119 1208 3 l 1208 756 l 1358 756 l 1358 126 q 1317 -113 1358 -7 q 1181 -324 1276 -219 l 1083 -258 m 1281 906 q 1208 928 1233 906 q 1183 990 1183 950 q 1208 1053 1183 1031 q 1281 1076 1233 1076 q 1354 1053 1329 1076 q 1379 990 1379 1031 q 1355 928 1379 950 q 1281 906 1330 906 z "},"Ṉ":{"ha":1102,"x_min":118,"x_max":984,"o":"m 840 1028 l 984 1028 l 984 0 l 828 0 l 263 806 l 263 0 l 118 0 l 118 1028 l 274 1028 l 840 222 l 840 1028 m 315 -226 l 315 -133 l 788 -133 l 788 -226 l 315 -226 z "},"Ñ":{"ha":1102,"x_min":118,"x_max":984,"o":"m 840 1028 l 984 1028 l 984 0 l 828 0 l 263 806 l 263 0 l 118 0 l 118 1028 l 274 1028 l 840 222 l 840 1028 m 668 1148 q 607 1155 636 1148 q 540 1176 578 1163 q 481 1194 505 1188 q 433 1200 458 1200 q 361 1189 392 1200 q 301 1151 331 1177 l 301 1244 q 358 1280 326 1268 q 435 1291 390 1291 q 494 1284 467 1291 q 563 1263 521 1277 q 621 1244 597 1251 q 670 1238 645 1238 q 742 1250 711 1238 q 802 1287 772 1261 l 802 1194 q 745 1159 778 1170 q 668 1148 713 1148 z "},"O":{"ha":1101,"x_min":75,"x_max":1027,"o":"m 551 -13 q 298 44 405 -13 q 133 220 192 102 q 75 514 75 338 q 134 808 75 690 q 299 983 192 926 q 551 1041 406 1041 q 803 983 697 1041 q 969 808 910 926 q 1027 514 1027 690 q 968 220 1027 338 q 803 44 910 102 q 551 -13 696 -13 m 551 113 q 786 209 703 113 q 870 510 870 305 q 786 817 870 720 q 551 915 703 915 q 315 819 399 915 q 232 518 232 724 q 551 113 232 113 z "},"Ó":{"ha":1101,"x_min":75,"x_max":1027,"o":"m 551 -13 q 298 44 405 -13 q 133 220 192 102 q 75 514 75 338 q 134 808 75 690 q 299 983 192 926 q 551 1041 406 1041 q 803 983 697 1041 q 969 808 910 926 q 1027 514 1027 690 q 968 220 1027 338 q 803 44 910 102 q 551 -13 696 -13 m 551 113 q 786 209 703 113 q 870 510 870 305 q 786 817 870 720 q 551 915 703 915 q 315 819 399 915 q 232 518 232 724 q 551 113 232 113 m 481 1114 l 618 1315 l 781 1315 l 619 1114 l 481 1114 z "},"Ŏ":{"ha":1101,"x_min":75,"x_max":1027,"o":"m 551 -13 q 298 44 405 -13 q 133 220 192 102 q 75 514 75 338 q 134 808 75 690 q 299 983 192 926 q 551 1041 406 1041 q 803 983 697 1041 q 969 808 910 926 q 1027 514 1027 690 q 968 220 1027 338 q 803 44 910 102 q 551 -13 696 -13 m 551 113 q 786 209 703 113 q 870 510 870 305 q 786 817 870 720 q 551 915 703 915 q 315 819 399 915 q 232 518 232 724 q 551 113 232 113 m 551 1119 q 373 1169 436 1119 q 299 1303 310 1219 l 397 1303 q 442 1226 406 1253 q 551 1199 478 1199 q 660 1226 625 1199 q 705 1303 696 1252 l 802 1303 q 730 1168 792 1218 q 551 1119 667 1119 z "},"Ô":{"ha":1101,"x_min":75,"x_max":1027,"o":"m 551 -13 q 298 44 405 -13 q 133 220 192 102 q 75 514 75 338 q 134 808 75 690 q 299 983 192 926 q 551 1041 406 1041 q 803 983 697 1041 q 969 808 910 926 q 1027 514 1027 690 q 968 220 1027 338 q 803 44 910 102 q 551 -13 696 -13 m 551 113 q 786 209 703 113 q 870 510 870 305 q 786 817 870 720 q 551 915 703 915 q 315 819 399 915 q 232 518 232 724 q 551 113 232 113 m 808 1114 l 680 1114 l 551 1253 l 422 1114 l 294 1114 l 484 1315 l 617 1315 l 808 1114 z "},"Ố":{"ha":1101,"x_min":75,"x_max":1027,"o":"m 551 -13 q 298 44 405 -13 q 133 220 192 102 q 75 514 75 338 q 134 808 75 690 q 299 983 192 926 q 551 1041 406 1041 q 803 983 697 1041 q 969 808 910 926 q 1027 514 1027 690 q 968 220 1027 338 q 803 44 910 102 q 551 -13 696 -13 m 551 113 q 786 209 703 113 q 870 510 870 305 q 786 817 870 720 q 551 915 703 915 q 315 819 399 915 q 232 518 232 724 q 551 113 232 113 m 837 1433 l 952 1433 l 819 1254 l 725 1254 l 837 1433 m 484 1303 l 617 1303 l 808 1114 l 680 1114 l 551 1247 l 422 1114 l 294 1114 l 484 1303 z "},"Ộ":{"ha":1101,"x_min":75,"x_max":1027,"o":"m 551 -13 q 298 44 405 -13 q 133 220 192 102 q 75 514 75 338 q 134 808 75 690 q 299 983 192 926 q 551 1041 406 1041 q 803 983 697 1041 q 969 808 910 926 q 1027 514 1027 690 q 968 220 1027 338 q 803 44 910 102 q 551 -13 696 -13 m 551 113 q 786 209 703 113 q 870 510 870 305 q 786 817 870 720 q 551 915 703 915 q 315 819 399 915 q 232 518 232 724 q 551 113 232 113 m 551 -258 q 478 -237 503 -258 q 453 -182 453 -217 q 478 -126 453 -147 q 551 -106 503 -106 q 623 -126 598 -106 q 648 -182 648 -147 q 623 -237 648 -217 q 551 -258 598 -258 m 808 1114 l 680 1114 l 551 1253 l 422 1114 l 294 1114 l 484 1315 l 617 1315 l 808 1114 z "},"Ồ":{"ha":1101,"x_min":75,"x_max":1027,"o":"m 551 -13 q 298 44 405 -13 q 133 220 192 102 q 75 514 75 338 q 134 808 75 690 q 299 983 192 926 q 551 1041 406 1041 q 803 983 697 1041 q 969 808 910 926 q 1027 514 1027 690 q 968 220 1027 338 q 803 44 910 102 q 551 -13 696 -13 m 551 113 q 786 209 703 113 q 870 510 870 305 q 786 817 870 720 q 551 915 703 915 q 315 819 399 915 q 232 518 232 724 q 551 113 232 113 m 838 1254 l 744 1254 l 610 1433 l 726 1433 l 838 1254 m 484 1303 l 617 1303 l 808 1114 l 680 1114 l 551 1247 l 422 1114 l 294 1114 l 484 1303 z "},"Ổ":{"ha":1101,"x_min":75,"x_max":1027,"o":"m 551 -13 q 298 44 405 -13 q 133 220 192 102 q 75 514 75 338 q 134 808 75 690 q 299 983 192 926 q 551 1041 406 1041 q 803 983 697 1041 q 969 808 910 926 q 1027 514 1027 690 q 968 220 1027 338 q 803 44 910 102 q 551 -13 696 -13 m 551 113 q 786 209 703 113 q 870 510 870 305 q 786 817 870 720 q 551 915 703 915 q 315 819 399 915 q 232 518 232 724 q 551 113 232 113 m 773 1450 q 892 1429 853 1450 q 931 1370 931 1408 q 914 1328 931 1343 q 863 1299 896 1313 q 824 1278 836 1287 q 809 1254 811 1269 l 725 1254 q 746 1297 726 1282 q 799 1325 765 1311 q 835 1343 824 1335 q 847 1363 847 1351 q 827 1384 847 1377 q 764 1392 808 1392 q 693 1387 726 1392 q 622 1372 660 1383 l 622 1429 q 693 1444 653 1439 q 773 1450 733 1450 m 484 1303 l 617 1303 l 808 1114 l 680 1114 l 551 1247 l 422 1114 l 294 1114 l 484 1303 z "},"Ỗ":{"ha":1101,"x_min":75,"x_max":1027,"o":"m 551 -13 q 298 44 405 -13 q 133 220 192 102 q 75 514 75 338 q 134 808 75 690 q 299 983 192 926 q 551 1041 406 1041 q 803 983 697 1041 q 969 808 910 926 q 1027 514 1027 690 q 968 220 1027 338 q 803 44 910 102 q 551 -13 696 -13 m 551 113 q 786 209 703 113 q 870 510 870 305 q 786 817 870 720 q 551 915 703 915 q 315 819 399 915 q 232 518 232 724 q 551 113 232 113 m 667 1403 q 739 1415 706 1403 q 808 1451 771 1426 l 808 1376 q 743 1343 777 1353 q 667 1333 709 1333 q 606 1340 635 1333 q 537 1359 576 1347 q 480 1375 502 1370 q 434 1381 457 1381 q 363 1369 395 1381 q 294 1333 331 1358 l 294 1408 q 359 1441 325 1431 q 435 1451 392 1451 q 496 1444 467 1451 q 565 1425 525 1438 q 622 1409 599 1414 q 667 1403 644 1403 m 484 1303 l 617 1303 l 808 1114 l 680 1114 l 551 1247 l 422 1114 l 294 1114 l 484 1303 z "},"Ȍ":{"ha":1101,"x_min":75,"x_max":1027,"o":"m 551 -13 q 298 44 405 -13 q 133 220 192 102 q 75 514 75 338 q 134 808 75 690 q 299 983 192 926 q 551 1041 406 1041 q 803 983 697 1041 q 969 808 910 926 q 1027 514 1027 690 q 968 220 1027 338 q 803 44 910 102 q 551 -13 696 -13 m 551 113 q 786 209 703 113 q 870 510 870 305 q 786 817 870 720 q 551 915 703 915 q 315 819 399 915 q 232 518 232 724 q 551 113 232 113 m 363 1114 l 253 1315 l 376 1315 l 478 1114 l 363 1114 m 624 1114 l 514 1315 l 636 1315 l 738 1114 l 624 1114 z "},"Ö":{"ha":1101,"x_min":75,"x_max":1027,"o":"m 551 -13 q 298 44 405 -13 q 133 220 192 102 q 75 514 75 338 q 134 808 75 690 q 299 983 192 926 q 551 1041 406 1041 q 803 983 697 1041 q 969 808 910 926 q 1027 514 1027 690 q 968 220 1027 338 q 803 44 910 102 q 551 -13 696 -13 m 551 113 q 786 209 703 113 q 870 510 870 305 q 786 817 870 720 q 551 915 703 915 q 315 819 399 915 q 232 518 232 724 q 551 113 232 113 m 371 1140 q 307 1160 329 1140 q 284 1216 284 1181 q 307 1272 284 1252 q 371 1292 329 1292 q 436 1272 413 1292 q 458 1216 458 1252 q 436 1160 458 1180 q 371 1140 413 1140 m 731 1140 q 666 1160 688 1140 q 643 1216 643 1180 q 666 1272 643 1252 q 731 1292 688 1292 q 795 1272 772 1292 q 817 1216 817 1252 q 795 1160 817 1181 q 731 1140 772 1140 z "},"Ȫ":{"ha":1101,"x_min":75,"x_max":1027,"o":"m 551 -13 q 298 44 405 -13 q 133 220 192 102 q 75 514 75 338 q 134 808 75 690 q 299 983 192 926 q 551 1041 406 1041 q 803 983 697 1041 q 969 808 910 926 q 1027 514 1027 690 q 968 220 1027 338 q 803 44 910 102 q 551 -13 696 -13 m 551 113 q 786 209 703 113 q 870 510 870 305 q 786 817 870 720 q 551 915 703 915 q 315 819 399 915 q 232 518 232 724 q 551 113 232 113 m 371 1140 q 307 1160 329 1140 q 284 1216 284 1181 q 307 1272 284 1252 q 371 1292 329 1292 q 436 1272 413 1292 q 458 1216 458 1252 q 436 1160 458 1180 q 371 1140 413 1140 m 731 1140 q 666 1160 688 1140 q 643 1216 643 1180 q 666 1272 643 1252 q 731 1292 688 1292 q 795 1272 772 1292 q 817 1216 817 1252 q 795 1160 817 1181 q 731 1140 772 1140 m 314 1374 l 314 1468 l 788 1468 l 788 1374 l 314 1374 z "},"Ȱ":{"ha":1101,"x_min":75,"x_max":1027,"o":"m 551 -13 q 298 44 405 -13 q 133 220 192 102 q 75 514 75 338 q 134 808 75 690 q 299 983 192 926 q 551 1041 406 1041 q 803 983 697 1041 q 969 808 910 926 q 1027 514 1027 690 q 968 220 1027 338 q 803 44 910 102 q 551 -13 696 -13 m 551 113 q 786 209 703 113 q 870 510 870 305 q 786 817 870 720 q 551 915 703 915 q 315 819 399 915 q 232 518 232 724 q 551 113 232 113 m 551 1140 q 478 1160 503 1140 q 453 1216 453 1181 q 478 1272 453 1251 q 551 1292 503 1292 q 623 1272 598 1292 q 648 1216 648 1251 q 623 1160 648 1181 q 551 1140 598 1140 m 314 1374 l 314 1468 l 788 1468 l 788 1374 l 314 1374 z "},"Ọ":{"ha":1101,"x_min":75,"x_max":1027,"o":"m 551 -13 q 298 44 405 -13 q 133 220 192 102 q 75 514 75 338 q 134 808 75 690 q 299 983 192 926 q 551 1041 406 1041 q 803 983 697 1041 q 969 808 910 926 q 1027 514 1027 690 q 968 220 1027 338 q 803 44 910 102 q 551 -13 696 -13 m 551 113 q 786 209 703 113 q 870 510 870 305 q 786 817 870 720 q 551 915 703 915 q 315 819 399 915 q 232 518 232 724 q 551 113 232 113 m 551 -258 q 478 -237 503 -258 q 453 -182 453 -217 q 478 -126 453 -147 q 551 -106 503 -106 q 623 -126 598 -106 q 648 -182 648 -147 q 623 -237 648 -217 q 551 -258 598 -258 z "},"Ò":{"ha":1101,"x_min":75,"x_max":1027,"o":"m 551 -13 q 298 44 405 -13 q 133 220 192 102 q 75 514 75 338 q 134 808 75 690 q 299 983 192 926 q 551 1041 406 1041 q 803 983 697 1041 q 969 808 910 926 q 1027 514 1027 690 q 968 220 1027 338 q 803 44 910 102 q 551 -13 696 -13 m 551 113 q 786 209 703 113 q 870 510 870 305 q 786 817 870 720 q 551 915 703 915 q 315 819 399 915 q 232 518 232 724 q 551 113 232 113 m 481 1114 l 320 1315 l 483 1315 l 620 1114 l 481 1114 z "},"Ỏ":{"ha":1101,"x_min":75,"x_max":1027,"o":"m 551 -13 q 298 44 405 -13 q 133 220 192 102 q 75 514 75 338 q 134 808 75 690 q 299 983 192 926 q 551 1041 406 1041 q 803 983 697 1041 q 969 808 910 926 q 1027 514 1027 690 q 968 220 1027 338 q 803 44 910 102 q 551 -13 696 -13 m 551 113 q 786 209 703 113 q 870 510 870 305 q 786 817 870 720 q 551 915 703 915 q 315 819 399 915 q 232 518 232 724 q 551 113 232 113 m 508 1114 q 529 1159 510 1143 q 583 1190 549 1174 q 618 1207 607 1199 q 630 1228 630 1215 q 611 1251 630 1243 q 547 1258 592 1258 q 477 1254 510 1258 q 406 1238 444 1249 l 406 1301 q 476 1317 436 1311 q 556 1323 515 1323 q 676 1300 637 1323 q 715 1238 715 1278 q 705 1203 715 1217 q 682 1181 695 1190 q 646 1161 668 1172 q 607 1139 620 1149 q 592 1114 594 1129 l 508 1114 z "},"Ơ":{"ha":1101,"x_min":75,"x_max":1032,"o":"m 860 947 q 984 775 941 883 q 1027 514 1027 667 q 969 218 1027 336 q 804 44 910 101 q 551 -13 697 -13 q 298 44 405 -13 q 133 220 192 102 q 75 514 75 338 q 134 808 75 690 q 299 983 192 926 q 551 1041 406 1041 q 620 1038 585 1041 q 664 1033 656 1034 q 782 1025 739 1025 q 889 1052 853 1025 q 924 1135 924 1078 q 921 1182 924 1160 q 910 1233 917 1204 l 1016 1233 q 1028 1183 1025 1207 q 1032 1130 1032 1159 q 987 1003 1032 1049 q 860 947 942 956 m 551 113 q 786 209 703 113 q 870 510 870 305 q 786 817 870 720 q 551 915 703 915 q 315 819 399 915 q 232 518 232 724 q 551 113 232 113 z "},"Ớ":{"ha":1101,"x_min":75,"x_max":1032,"o":"m 860 947 q 984 775 941 883 q 1027 514 1027 667 q 969 218 1027 336 q 804 44 910 101 q 551 -13 697 -13 q 298 44 405 -13 q 133 220 192 102 q 75 514 75 338 q 134 808 75 690 q 299 983 192 926 q 551 1041 406 1041 q 620 1038 585 1041 q 664 1033 656 1034 q 782 1025 739 1025 q 889 1052 853 1025 q 924 1135 924 1078 q 921 1182 924 1160 q 910 1233 917 1204 l 1016 1233 q 1028 1183 1025 1207 q 1032 1130 1032 1159 q 987 1003 1032 1049 q 860 947 942 956 m 551 113 q 786 209 703 113 q 870 510 870 305 q 786 817 870 720 q 551 915 703 915 q 315 819 399 915 q 232 518 232 724 q 551 113 232 113 m 481 1114 l 618 1315 l 781 1315 l 619 1114 l 481 1114 z "},"Ợ":{"ha":1101,"x_min":75,"x_max":1032,"o":"m 860 947 q 984 775 941 883 q 1027 514 1027 667 q 969 218 1027 336 q 804 44 910 101 q 551 -13 697 -13 q 298 44 405 -13 q 133 220 192 102 q 75 514 75 338 q 134 808 75 690 q 299 983 192 926 q 551 1041 406 1041 q 620 1038 585 1041 q 664 1033 656 1034 q 782 1025 739 1025 q 889 1052 853 1025 q 924 1135 924 1078 q 921 1182 924 1160 q 910 1233 917 1204 l 1016 1233 q 1028 1183 1025 1207 q 1032 1130 1032 1159 q 987 1003 1032 1049 q 860 947 942 956 m 551 113 q 786 209 703 113 q 870 510 870 305 q 786 817 870 720 q 551 915 703 915 q 315 819 399 915 q 232 518 232 724 q 551 113 232 113 m 551 -258 q 478 -237 503 -258 q 453 -182 453 -217 q 478 -126 453 -147 q 551 -106 503 -106 q 623 -126 598 -106 q 648 -182 648 -147 q 623 -237 648 -217 q 551 -258 598 -258 z "},"Ờ":{"ha":1101,"x_min":75,"x_max":1032,"o":"m 860 947 q 984 775 941 883 q 1027 514 1027 667 q 969 218 1027 336 q 804 44 910 101 q 551 -13 697 -13 q 298 44 405 -13 q 133 220 192 102 q 75 514 75 338 q 134 808 75 690 q 299 983 192 926 q 551 1041 406 1041 q 620 1038 585 1041 q 664 1033 656 1034 q 782 1025 739 1025 q 889 1052 853 1025 q 924 1135 924 1078 q 921 1182 924 1160 q 910 1233 917 1204 l 1016 1233 q 1028 1183 1025 1207 q 1032 1130 1032 1159 q 987 1003 1032 1049 q 860 947 942 956 m 551 113 q 786 209 703 113 q 870 510 870 305 q 786 817 870 720 q 551 915 703 915 q 315 819 399 915 q 232 518 232 724 q 551 113 232 113 m 481 1114 l 320 1315 l 483 1315 l 620 1114 l 481 1114 z "},"Ở":{"ha":1101,"x_min":75,"x_max":1032,"o":"m 860 947 q 984 775 941 883 q 1027 514 1027 667 q 969 218 1027 336 q 804 44 910 101 q 551 -13 697 -13 q 298 44 405 -13 q 133 220 192 102 q 75 514 75 338 q 134 808 75 690 q 299 983 192 926 q 551 1041 406 1041 q 620 1038 585 1041 q 664 1033 656 1034 q 782 1025 739 1025 q 889 1052 853 1025 q 924 1135 924 1078 q 921 1182 924 1160 q 910 1233 917 1204 l 1016 1233 q 1028 1183 1025 1207 q 1032 1130 1032 1159 q 987 1003 1032 1049 q 860 947 942 956 m 551 113 q 786 209 703 113 q 870 510 870 305 q 786 817 870 720 q 551 915 703 915 q 315 819 399 915 q 232 518 232 724 q 551 113 232 113 m 508 1114 q 529 1159 510 1143 q 583 1190 549 1174 q 618 1207 607 1199 q 630 1228 630 1215 q 611 1251 630 1243 q 547 1258 592 1258 q 477 1254 510 1258 q 406 1238 444 1249 l 406 1301 q 476 1317 436 1311 q 556 1323 515 1323 q 676 1300 637 1323 q 715 1238 715 1278 q 705 1203 715 1217 q 682 1181 695 1190 q 646 1161 668 1172 q 607 1139 620 1149 q 592 1114 594 1129 l 508 1114 z "},"Ỡ":{"ha":1101,"x_min":75,"x_max":1032,"o":"m 666 1148 q 606 1155 635 1148 q 540 1176 578 1162 q 481 1194 505 1188 q 433 1200 458 1200 q 363 1189 393 1200 q 303 1151 333 1177 l 303 1244 q 360 1280 328 1268 q 436 1291 392 1291 q 494 1284 467 1291 q 562 1263 522 1277 q 619 1244 595 1251 q 668 1238 643 1238 q 739 1250 708 1238 q 799 1287 769 1261 l 799 1194 q 742 1159 774 1170 q 666 1148 710 1148 m 860 947 q 984 775 941 883 q 1027 514 1027 667 q 969 218 1027 336 q 804 44 910 101 q 551 -13 697 -13 q 298 44 405 -13 q 133 220 192 102 q 75 514 75 338 q 134 808 75 690 q 299 983 192 926 q 551 1041 406 1041 q 620 1038 585 1041 q 664 1033 656 1034 q 782 1025 739 1025 q 889 1052 853 1025 q 924 1135 924 1078 q 921 1182 924 1160 q 910 1233 917 1204 l 1016 1233 q 1028 1183 1025 1207 q 1032 1130 1032 1159 q 987 1003 1032 1049 q 860 947 942 956 m 551 113 q 786 209 703 113 q 870 510 870 305 q 786 817 870 720 q 551 915 703 915 q 315 819 399 915 q 232 518 232 724 q 551 113 232 113 z "},"Ő":{"ha":1101,"x_min":75,"x_max":1027,"o":"m 551 -13 q 298 44 405 -13 q 133 220 192 102 q 75 514 75 338 q 134 808 75 690 q 299 983 192 926 q 551 1041 406 1041 q 803 983 697 1041 q 969 808 910 926 q 1027 514 1027 690 q 968 220 1027 338 q 803 44 910 102 q 551 -13 696 -13 m 551 113 q 786 209 703 113 q 870 510 870 305 q 786 817 870 720 q 551 915 703 915 q 315 819 399 915 q 232 518 232 724 q 551 113 232 113 m 363 1114 l 465 1315 l 588 1315 l 478 1114 l 363 1114 m 624 1114 l 726 1315 l 848 1315 l 738 1114 l 624 1114 z "},"Ȏ":{"ha":1101,"x_min":75,"x_max":1027,"o":"m 551 -13 q 298 44 405 -13 q 133 220 192 102 q 75 514 75 338 q 134 808 75 690 q 299 983 192 926 q 551 1041 406 1041 q 803 983 697 1041 q 969 808 910 926 q 1027 514 1027 690 q 968 220 1027 338 q 803 44 910 102 q 551 -13 696 -13 m 551 113 q 786 209 703 113 q 870 510 870 305 q 786 817 870 720 q 551 915 703 915 q 315 819 399 915 q 232 518 232 724 q 551 113 232 113 m 299 1126 q 372 1260 310 1210 q 550 1310 434 1310 q 728 1260 665 1310 q 802 1126 792 1210 l 705 1126 q 659 1203 696 1176 q 550 1229 623 1229 q 441 1203 476 1229 q 397 1126 406 1177 l 299 1126 z "},"Ō":{"ha":1101,"x_min":75,"x_max":1027,"o":"m 551 -13 q 298 44 405 -13 q 133 220 192 102 q 75 514 75 338 q 134 808 75 690 q 299 983 192 926 q 551 1041 406 1041 q 803 983 697 1041 q 969 808 910 926 q 1027 514 1027 690 q 968 220 1027 338 q 803 44 910 102 q 551 -13 696 -13 m 551 113 q 786 209 703 113 q 870 510 870 305 q 786 817 870 720 q 551 915 703 915 q 315 819 399 915 q 232 518 232 724 q 551 113 232 113 m 314 1168 l 314 1262 l 788 1262 l 788 1168 l 314 1168 z "},"Ṓ":{"ha":1101,"x_min":75,"x_max":1027,"o":"m 551 -13 q 298 44 405 -13 q 133 220 192 102 q 75 514 75 338 q 134 808 75 690 q 299 983 192 926 q 551 1041 406 1041 q 803 983 697 1041 q 969 808 910 926 q 1027 514 1027 690 q 968 220 1027 338 q 803 44 910 102 q 551 -13 696 -13 m 551 113 q 786 209 703 113 q 870 510 870 305 q 786 817 870 720 q 551 915 703 915 q 315 819 399 915 q 232 518 232 724 q 551 113 232 113 m 474 1337 l 611 1498 l 788 1498 l 628 1337 l 474 1337 m 314 1168 l 314 1262 l 788 1262 l 788 1168 l 314 1168 z "},"Ṑ":{"ha":1101,"x_min":75,"x_max":1027,"o":"m 551 -13 q 298 44 405 -13 q 133 220 192 102 q 75 514 75 338 q 134 808 75 690 q 299 983 192 926 q 551 1041 406 1041 q 803 983 697 1041 q 969 808 910 926 q 1027 514 1027 690 q 968 220 1027 338 q 803 44 910 102 q 551 -13 696 -13 m 551 113 q 786 209 703 113 q 870 510 870 305 q 786 817 870 720 q 551 915 703 915 q 315 819 399 915 q 232 518 232 724 q 551 113 232 113 m 474 1337 l 313 1498 l 490 1498 l 627 1337 l 474 1337 m 314 1168 l 314 1262 l 788 1262 l 788 1168 l 314 1168 z "},"Ǫ":{"ha":1101,"x_min":75,"x_max":1027,"o":"m 721 10 q 573 -63 615 -23 q 531 -151 531 -103 q 557 -208 531 -188 q 635 -228 583 -228 q 686 -222 659 -228 q 747 -203 713 -216 l 747 -269 q 618 -294 684 -294 q 485 -259 531 -294 q 439 -161 439 -224 q 533 -13 439 -69 q 289 50 392 -9 q 131 225 187 108 q 75 514 75 341 q 134 808 75 690 q 299 983 192 926 q 551 1041 406 1041 q 803 984 696 1041 q 968 809 910 927 q 1027 514 1027 691 q 943 176 1027 300 q 721 10 860 53 m 232 518 q 551 113 232 113 q 786 209 703 113 q 870 510 870 305 q 786 817 870 720 q 551 915 703 915 q 315 819 399 915 q 232 518 232 724 z "},"Ø":{"ha":1101,"x_min":75,"x_max":1027,"o":"m 915 892 q 1027 514 1027 756 q 968 220 1027 338 q 803 44 910 102 q 551 -13 696 -13 q 250 76 367 -13 l 169 -24 l 101 31 l 187 136 q 75 514 75 272 q 134 808 75 690 q 299 983 192 926 q 551 1041 406 1041 q 852 952 734 1041 l 933 1051 l 1001 997 l 915 892 m 232 518 q 285 256 232 353 l 763 842 q 551 915 684 915 q 315 819 399 915 q 232 518 232 724 m 551 113 q 786 209 703 113 q 870 510 870 305 q 817 772 870 674 l 339 185 q 551 113 417 113 z "},"Ǿ":{"ha":1101,"x_min":75,"x_max":1027,"o":"m 915 892 q 1027 514 1027 756 q 968 220 1027 338 q 803 44 910 102 q 551 -13 696 -13 q 250 76 367 -13 l 169 -24 l 101 31 l 187 136 q 75 514 75 272 q 134 808 75 690 q 299 983 192 926 q 551 1041 406 1041 q 852 952 734 1041 l 933 1051 l 1001 997 l 915 892 m 232 518 q 285 256 232 353 l 763 842 q 551 915 684 915 q 315 819 399 915 q 232 518 232 724 m 551 113 q 786 209 703 113 q 870 510 870 305 q 817 772 870 674 l 339 185 q 551 113 417 113 m 477 1114 l 615 1315 l 777 1315 l 615 1114 l 477 1114 z "},"Õ":{"ha":1101,"x_min":75,"x_max":1027,"o":"m 551 -13 q 298 44 405 -13 q 133 220 192 102 q 75 514 75 338 q 134 808 75 690 q 299 983 192 926 q 551 1041 406 1041 q 803 983 697 1041 q 969 808 910 926 q 1027 514 1027 690 q 968 220 1027 338 q 803 44 910 102 q 551 -13 696 -13 m 551 113 q 786 209 703 113 q 870 510 870 305 q 786 817 870 720 q 551 915 703 915 q 315 819 399 915 q 232 518 232 724 q 551 113 232 113 m 667 1148 q 606 1155 635 1148 q 540 1176 577 1163 q 481 1194 504 1188 q 432 1200 457 1200 q 360 1189 391 1200 q 300 1151 330 1177 l 300 1244 q 357 1280 325 1268 q 434 1291 390 1291 q 493 1284 466 1291 q 562 1263 520 1277 q 620 1244 596 1251 q 669 1238 644 1238 q 741 1250 710 1238 q 801 1287 772 1261 l 801 1194 q 744 1159 777 1170 q 667 1148 712 1148 z "},"Ṍ":{"ha":1101,"x_min":75,"x_max":1027,"o":"m 551 -13 q 298 44 405 -13 q 133 220 192 102 q 75 514 75 338 q 134 808 75 690 q 299 983 192 926 q 551 1041 406 1041 q 803 983 697 1041 q 969 808 910 926 q 1027 514 1027 690 q 968 220 1027 338 q 803 44 910 102 q 551 -13 696 -13 m 551 113 q 786 209 703 113 q 870 510 870 305 q 786 817 870 720 q 551 915 703 915 q 315 819 399 915 q 232 518 232 724 q 551 113 232 113 m 474 1337 l 611 1498 l 788 1498 l 628 1337 l 474 1337 m 667 1148 q 606 1155 635 1148 q 540 1176 577 1163 q 481 1194 504 1188 q 432 1200 457 1200 q 360 1189 391 1200 q 300 1151 330 1177 l 300 1244 q 357 1280 325 1268 q 434 1291 390 1291 q 493 1284 466 1291 q 562 1263 520 1277 q 620 1244 596 1251 q 669 1238 644 1238 q 741 1250 710 1238 q 801 1287 772 1261 l 801 1194 q 744 1159 777 1170 q 667 1148 712 1148 z "},"Ṏ":{"ha":1101,"x_min":75,"x_max":1027,"o":"m 551 -13 q 298 44 405 -13 q 133 220 192 102 q 75 514 75 338 q 134 808 75 690 q 299 983 192 926 q 551 1041 406 1041 q 803 983 697 1041 q 969 808 910 926 q 1027 514 1027 690 q 968 220 1027 338 q 803 44 910 102 q 551 -13 696 -13 m 551 113 q 786 209 703 113 q 870 510 870 305 q 786 817 870 720 q 551 915 703 915 q 315 819 399 915 q 232 518 232 724 q 551 113 232 113 m 667 1148 q 606 1155 635 1148 q 540 1176 577 1163 q 481 1194 504 1188 q 432 1200 457 1200 q 360 1189 391 1200 q 300 1151 330 1177 l 300 1244 q 357 1280 325 1268 q 434 1291 390 1291 q 493 1284 466 1291 q 562 1263 520 1277 q 620 1244 596 1251 q 669 1238 644 1238 q 741 1250 710 1238 q 801 1287 772 1261 l 801 1194 q 744 1159 777 1170 q 667 1148 712 1148 m 371 1347 q 307 1367 329 1347 q 284 1422 284 1387 q 307 1478 284 1458 q 371 1499 329 1499 q 436 1478 413 1499 q 458 1422 458 1458 q 436 1366 458 1386 q 371 1347 413 1347 m 731 1347 q 666 1366 688 1347 q 643 1422 643 1386 q 666 1478 643 1458 q 731 1499 688 1499 q 795 1478 772 1499 q 817 1422 817 1458 q 795 1367 817 1387 q 731 1347 772 1347 z "},"Ȭ":{"ha":1101,"x_min":75,"x_max":1027,"o":"m 551 -13 q 298 44 405 -13 q 133 220 192 102 q 75 514 75 338 q 134 808 75 690 q 299 983 192 926 q 551 1041 406 1041 q 803 983 697 1041 q 969 808 910 926 q 1027 514 1027 690 q 968 220 1027 338 q 803 44 910 102 q 551 -13 696 -13 m 551 113 q 786 209 703 113 q 870 510 870 305 q 786 817 870 720 q 551 915 703 915 q 315 819 399 915 q 232 518 232 724 q 551 113 232 113 m 667 1148 q 606 1155 635 1148 q 540 1176 577 1163 q 481 1194 504 1188 q 432 1200 457 1200 q 360 1189 391 1200 q 300 1151 330 1177 l 300 1244 q 357 1280 325 1268 q 434 1291 390 1291 q 493 1284 466 1291 q 562 1263 520 1277 q 620 1244 596 1251 q 669 1238 644 1238 q 741 1250 710 1238 q 801 1287 772 1261 l 801 1194 q 744 1159 777 1170 q 667 1148 712 1148 m 314 1374 l 314 1468 l 788 1468 l 788 1374 l 314 1374 z "},"Œ":{"ha":1521,"x_min":75,"x_max":1461,"o":"m 1461 123 l 1461 0 l 890 0 q 828 -1 865 0 q 774 -3 792 -3 q 652 -8 690 -8 q 218 119 361 -8 q 75 514 75 247 q 219 908 75 778 q 645 1038 364 1038 q 715 1035 676 1038 q 766 1033 753 1033 q 882 1028 835 1028 l 1454 1028 l 1454 905 l 926 905 l 926 588 l 1384 588 l 1384 465 l 926 465 l 926 123 l 1461 123 m 774 903 q 620 910 702 910 q 328 815 424 910 q 231 513 231 719 q 328 214 231 309 q 622 119 425 119 q 774 124 722 119 l 774 903 z "},"P":{"ha":922,"x_min":118,"x_max":860,"o":"m 118 1010 q 265 1032 193 1024 q 415 1039 337 1039 q 749 952 638 1039 q 860 683 860 865 q 408 324 860 324 q 271 330 349 324 l 271 0 l 118 0 l 118 1010 m 410 441 q 582 467 516 441 q 679 545 648 492 q 710 681 710 599 q 641 864 710 806 q 427 922 572 922 q 271 910 342 922 l 271 450 q 410 441 336 441 z "},"Þ":{"ha":929,"x_min":118,"x_max":860,"o":"m 118 1028 l 271 1028 l 271 874 q 417 885 350 885 q 750 799 639 885 q 860 529 860 712 q 409 170 860 170 q 271 176 344 170 l 271 0 l 118 0 l 118 1028 m 410 287 q 582 313 516 287 q 679 392 648 339 q 710 528 710 444 q 641 711 710 653 q 427 769 572 769 q 271 756 346 769 l 271 296 q 410 287 336 287 z "},"Q":{"ha":1101,"x_min":75,"x_max":1027,"o":"m 1027 514 q 929 156 1027 288 q 642 3 831 24 q 1011 -59 797 -39 l 988 -181 q 438 -52 637 -138 q 157 169 239 34 q 75 510 75 305 q 134 807 75 688 q 299 983 192 926 q 551 1041 406 1041 q 803 984 696 1041 q 968 809 910 927 q 1027 514 1027 691 m 232 518 q 315 210 232 306 q 551 113 398 113 q 786 209 703 113 q 870 510 870 305 q 786 817 870 720 q 551 915 703 915 q 315 819 399 915 q 232 518 232 724 z "},"R":{"ha":974,"x_min":118,"x_max":940,"o":"m 769 0 l 456 410 q 416 409 443 409 q 269 415 348 409 l 269 0 l 118 0 l 118 1006 q 426 1039 269 1039 q 752 964 645 1039 q 858 726 858 888 q 795 534 859 609 q 608 429 731 460 l 940 0 l 769 0 m 269 533 q 343 527 310 528 q 420 525 375 525 q 644 573 574 525 q 715 725 715 622 q 685 841 715 797 q 596 904 656 884 q 438 924 535 924 q 349 920 388 924 q 269 909 310 917 l 269 533 z "},"Ŕ":{"ha":974,"x_min":118,"x_max":940,"o":"m 769 0 l 456 410 q 416 409 443 409 q 269 415 348 409 l 269 0 l 118 0 l 118 1006 q 426 1039 269 1039 q 752 964 645 1039 q 858 726 858 888 q 795 534 859 609 q 608 429 731 460 l 940 0 l 769 0 m 269 533 q 343 527 310 528 q 420 525 375 525 q 644 573 574 525 q 715 725 715 622 q 685 841 715 797 q 596 904 656 884 q 438 924 535 924 q 349 920 388 924 q 269 909 310 917 l 269 533 m 405 1114 l 542 1315 l 705 1315 l 543 1114 l 405 1114 z "},"Ř":{"ha":974,"x_min":118,"x_max":940,"o":"m 769 0 l 456 410 q 416 409 443 409 q 269 415 348 409 l 269 0 l 118 0 l 118 1006 q 426 1039 269 1039 q 752 964 645 1039 q 858 726 858 888 q 795 534 859 609 q 608 429 731 460 l 940 0 l 769 0 m 269 533 q 343 527 310 528 q 420 525 375 525 q 644 573 574 525 q 715 725 715 622 q 685 841 715 797 q 596 904 656 884 q 438 924 535 924 q 349 920 388 924 q 269 909 310 917 l 269 533 m 604 1315 l 732 1315 l 542 1114 l 408 1114 l 218 1315 l 346 1315 l 475 1175 l 604 1315 z "},"Ŗ":{"ha":974,"x_min":118,"x_max":940,"o":"m 769 0 l 456 410 q 416 409 443 409 q 269 415 348 409 l 269 0 l 118 0 l 118 1006 q 426 1039 269 1039 q 752 964 645 1039 q 858 726 858 888 q 795 534 859 609 q 608 429 731 460 l 940 0 l 769 0 m 269 533 q 343 527 310 528 q 420 525 375 525 q 644 573 574 525 q 715 725 715 622 q 685 841 715 797 q 596 904 656 884 q 438 924 535 924 q 349 920 388 924 q 269 909 310 917 l 269 533 m 504 -106 q 597 -190 597 -106 q 585 -261 597 -223 q 552 -331 573 -299 l 460 -331 q 492 -232 485 -276 q 434 -213 453 -229 q 415 -169 415 -197 q 437 -123 415 -140 q 504 -106 460 -106 z "},"Ȑ":{"ha":974,"x_min":118,"x_max":940,"o":"m 769 0 l 456 410 q 416 409 443 409 q 269 415 348 409 l 269 0 l 118 0 l 118 1006 q 426 1039 269 1039 q 752 964 645 1039 q 858 726 858 888 q 795 534 859 609 q 608 429 731 460 l 940 0 l 769 0 m 269 533 q 343 527 310 528 q 420 525 375 525 q 644 573 574 525 q 715 725 715 622 q 685 841 715 797 q 596 904 656 884 q 438 924 535 924 q 349 920 388 924 q 269 909 310 917 l 269 533 m 288 1114 l 178 1315 l 300 1315 l 402 1114 l 288 1114 m 548 1114 l 438 1315 l 560 1315 l 663 1114 l 548 1114 z "},"Ṛ":{"ha":974,"x_min":118,"x_max":940,"o":"m 769 0 l 456 410 q 416 409 443 409 q 269 415 348 409 l 269 0 l 118 0 l 118 1006 q 426 1039 269 1039 q 752 964 645 1039 q 858 726 858 888 q 795 534 859 609 q 608 429 731 460 l 940 0 l 769 0 m 269 533 q 343 527 310 528 q 420 525 375 525 q 644 573 574 525 q 715 725 715 622 q 685 841 715 797 q 596 904 656 884 q 438 924 535 924 q 349 920 388 924 q 269 909 310 917 l 269 533 m 506 -258 q 433 -237 458 -258 q 408 -182 408 -217 q 433 -126 408 -147 q 506 -106 458 -106 q 578 -126 553 -106 q 603 -182 603 -147 q 578 -237 603 -217 q 506 -258 553 -258 z "},"Ȓ":{"ha":974,"x_min":118,"x_max":940,"o":"m 769 0 l 456 410 q 416 409 443 409 q 269 415 348 409 l 269 0 l 118 0 l 118 1006 q 426 1039 269 1039 q 752 964 645 1039 q 858 726 858 888 q 795 534 859 609 q 608 429 731 460 l 940 0 l 769 0 m 269 533 q 343 527 310 528 q 420 525 375 525 q 644 573 574 525 q 715 725 715 622 q 685 841 715 797 q 596 904 656 884 q 438 924 535 924 q 349 920 388 924 q 269 909 310 917 l 269 533 m 224 1126 q 296 1260 234 1210 q 474 1310 358 1310 q 653 1260 590 1310 q 726 1126 716 1210 l 629 1126 q 584 1203 620 1176 q 474 1229 547 1229 q 365 1203 401 1229 q 321 1126 330 1177 l 224 1126 z "},"Ṟ":{"ha":974,"x_min":118,"x_max":940,"o":"m 769 0 l 456 410 q 416 409 443 409 q 269 415 348 409 l 269 0 l 118 0 l 118 1006 q 426 1039 269 1039 q 752 964 645 1039 q 858 726 858 888 q 795 534 859 609 q 608 429 731 460 l 940 0 l 769 0 m 269 533 q 343 527 310 528 q 420 525 375 525 q 644 573 574 525 q 715 725 715 622 q 685 841 715 797 q 596 904 656 884 q 438 924 535 924 q 349 920 388 924 q 269 909 310 917 l 269 533 m 269 -226 l 269 -133 l 742 -133 l 742 -226 l 269 -226 z "},"S":{"ha":810,"x_min":53,"x_max":756,"o":"m 357 -13 q 211 -2 284 -13 q 73 31 138 10 l 73 158 q 215 124 140 135 q 358 112 290 112 q 544 154 484 112 q 603 279 603 197 q 584 356 603 326 q 522 407 565 386 q 405 444 479 428 l 338 460 q 123 561 192 492 q 53 745 53 631 q 99 904 53 838 q 234 1006 144 970 q 458 1041 325 1041 q 589 1032 525 1041 q 708 1008 653 1024 l 708 881 q 463 916 595 916 q 206 753 206 916 q 223 677 206 708 q 280 626 240 647 q 387 590 319 606 l 453 575 q 684 471 612 540 q 756 288 756 402 q 709 125 756 193 q 572 22 662 58 q 357 -13 483 -13 z "},"Ś":{"ha":810,"x_min":53,"x_max":756,"o":"m 357 -13 q 211 -2 284 -13 q 73 31 138 10 l 73 158 q 215 124 140 135 q 358 112 290 112 q 544 154 484 112 q 603 279 603 197 q 584 356 603 326 q 522 407 565 386 q 405 444 479 428 l 338 460 q 123 561 192 492 q 53 745 53 631 q 99 904 53 838 q 234 1006 144 970 q 458 1041 325 1041 q 589 1032 525 1041 q 708 1008 653 1024 l 708 881 q 463 916 595 916 q 206 753 206 916 q 223 677 206 708 q 280 626 240 647 q 387 590 319 606 l 453 575 q 684 471 612 540 q 756 288 756 402 q 709 125 756 193 q 572 22 662 58 q 357 -13 483 -13 m 342 1114 l 479 1315 l 642 1315 l 480 1114 l 342 1114 z "},"Ṥ":{"ha":810,"x_min":53,"x_max":756,"o":"m 357 -13 q 211 -2 284 -13 q 73 31 138 10 l 73 158 q 215 124 140 135 q 358 112 290 112 q 544 154 484 112 q 603 279 603 197 q 584 356 603 326 q 522 407 565 386 q 405 444 479 428 l 338 460 q 123 561 192 492 q 53 745 53 631 q 99 904 53 838 q 234 1006 144 970 q 458 1041 325 1041 q 589 1032 525 1041 q 708 1008 653 1024 l 708 881 q 463 916 595 916 q 206 753 206 916 q 223 677 206 708 q 280 626 240 647 q 387 590 319 606 l 453 575 q 684 471 612 540 q 756 288 756 402 q 709 125 756 193 q 572 22 662 58 q 357 -13 483 -13 m 312 1288 q 250 1305 272 1288 q 229 1353 229 1322 q 251 1401 229 1383 q 312 1419 272 1419 q 374 1401 352 1419 q 395 1353 395 1383 q 374 1305 395 1322 q 312 1288 352 1288 m 342 1114 l 479 1315 l 642 1315 l 480 1114 l 342 1114 z "},"Š":{"ha":810,"x_min":53,"x_max":756,"o":"m 357 -13 q 211 -2 284 -13 q 73 31 138 10 l 73 158 q 215 124 140 135 q 358 112 290 112 q 544 154 484 112 q 603 279 603 197 q 584 356 603 326 q 522 407 565 386 q 405 444 479 428 l 338 460 q 123 561 192 492 q 53 745 53 631 q 99 904 53 838 q 234 1006 144 970 q 458 1041 325 1041 q 589 1032 525 1041 q 708 1008 653 1024 l 708 881 q 463 916 595 916 q 206 753 206 916 q 223 677 206 708 q 280 626 240 647 q 387 590 319 606 l 453 575 q 684 471 612 540 q 756 288 756 402 q 709 125 756 193 q 572 22 662 58 q 357 -13 483 -13 m 541 1315 l 669 1315 l 478 1114 l 345 1114 l 155 1315 l 283 1315 l 412 1175 l 541 1315 z "},"Ṧ":{"ha":810,"x_min":53,"x_max":756,"o":"m 357 -13 q 211 -2 284 -13 q 73 31 138 10 l 73 158 q 215 124 140 135 q 358 112 290 112 q 544 154 484 112 q 603 279 603 197 q 584 356 603 326 q 522 407 565 386 q 405 444 479 428 l 338 460 q 123 561 192 492 q 53 745 53 631 q 99 904 53 838 q 234 1006 144 970 q 458 1041 325 1041 q 589 1032 525 1041 q 708 1008 653 1024 l 708 881 q 463 916 595 916 q 206 753 206 916 q 223 677 206 708 q 280 626 240 647 q 387 590 319 606 l 453 575 q 684 471 612 540 q 756 288 756 402 q 709 125 756 193 q 572 22 662 58 q 357 -13 483 -13 m 412 1326 q 350 1344 372 1326 q 329 1392 329 1361 q 351 1440 329 1422 q 412 1458 372 1458 q 473 1440 451 1458 q 494 1392 494 1422 q 473 1344 494 1361 q 412 1326 452 1326 m 541 1315 l 669 1315 l 478 1114 l 345 1114 l 155 1315 l 283 1315 l 412 1175 l 541 1315 z "},"Ş":{"ha":810,"x_min":53,"x_max":756,"o":"m 756 288 q 675 86 756 163 q 443 -8 593 9 l 443 -67 q 539 -101 506 -72 q 573 -179 573 -130 q 529 -265 573 -235 q 403 -294 485 -294 q 262 -269 327 -294 l 262 -204 q 397 -230 328 -230 q 466 -217 443 -230 q 490 -175 490 -203 q 397 -119 490 -119 l 365 -119 l 365 -13 l 357 -13 q 211 -2 284 -13 q 73 31 138 10 l 73 158 q 215 124 140 135 q 358 112 290 112 q 544 154 484 112 q 603 279 603 197 q 584 356 603 326 q 522 407 565 386 q 405 444 479 428 l 338 460 q 123 561 192 492 q 53 745 53 631 q 99 904 53 838 q 234 1006 144 970 q 458 1041 325 1041 q 589 1032 525 1041 q 708 1008 653 1024 l 708 881 q 463 916 595 916 q 206 753 206 916 q 223 677 206 708 q 280 626 240 647 q 387 590 319 606 l 453 575 q 684 471 612 540 q 756 288 756 402 z "},"Ŝ":{"ha":810,"x_min":53,"x_max":756,"o":"m 357 -13 q 211 -2 284 -13 q 73 31 138 10 l 73 158 q 215 124 140 135 q 358 112 290 112 q 544 154 484 112 q 603 279 603 197 q 584 356 603 326 q 522 407 565 386 q 405 444 479 428 l 338 460 q 123 561 192 492 q 53 745 53 631 q 99 904 53 838 q 234 1006 144 970 q 458 1041 325 1041 q 589 1032 525 1041 q 708 1008 653 1024 l 708 881 q 463 916 595 916 q 206 753 206 916 q 223 677 206 708 q 280 626 240 647 q 387 590 319 606 l 453 575 q 684 471 612 540 q 756 288 756 402 q 709 125 756 193 q 572 22 662 58 q 357 -13 483 -13 m 669 1114 l 541 1114 l 412 1253 l 283 1114 l 155 1114 l 345 1315 l 478 1315 l 669 1114 z "},"Ș":{"ha":810,"x_min":53,"x_max":756,"o":"m 357 -13 q 211 -2 284 -13 q 73 31 138 10 l 73 158 q 215 124 140 135 q 358 112 290 112 q 544 154 484 112 q 603 279 603 197 q 584 356 603 326 q 522 407 565 386 q 405 444 479 428 l 338 460 q 123 561 192 492 q 53 745 53 631 q 99 904 53 838 q 234 1006 144 970 q 458 1041 325 1041 q 589 1032 525 1041 q 708 1008 653 1024 l 708 881 q 463 916 595 916 q 206 753 206 916 q 223 677 206 708 q 280 626 240 647 q 387 590 319 606 l 453 575 q 684 471 612 540 q 756 288 756 402 q 709 125 756 193 q 572 22 662 58 q 357 -13 483 -13 m 410 -106 q 503 -190 503 -106 q 491 -261 503 -223 q 458 -331 479 -299 l 366 -331 q 398 -232 392 -276 q 340 -213 359 -229 q 321 -169 321 -197 q 343 -123 321 -140 q 410 -106 366 -106 z "},"Ṡ":{"ha":810,"x_min":53,"x_max":756,"o":"m 357 -13 q 211 -2 284 -13 q 73 31 138 10 l 73 158 q 215 124 140 135 q 358 112 290 112 q 544 154 484 112 q 603 279 603 197 q 584 356 603 326 q 522 407 565 386 q 405 444 479 428 l 338 460 q 123 561 192 492 q 53 745 53 631 q 99 904 53 838 q 234 1006 144 970 q 458 1041 325 1041 q 589 1032 525 1041 q 708 1008 653 1024 l 708 881 q 463 916 595 916 q 206 753 206 916 q 223 677 206 708 q 280 626 240 647 q 387 590 319 606 l 453 575 q 684 471 612 540 q 756 288 756 402 q 709 125 756 193 q 572 22 662 58 q 357 -13 483 -13 m 412 1140 q 340 1160 365 1140 q 315 1216 315 1181 q 340 1272 315 1251 q 412 1292 365 1292 q 484 1272 459 1292 q 509 1216 509 1251 q 484 1160 509 1181 q 412 1140 459 1140 z "},"Ṣ":{"ha":810,"x_min":53,"x_max":756,"o":"m 357 -13 q 211 -2 284 -13 q 73 31 138 10 l 73 158 q 215 124 140 135 q 358 112 290 112 q 544 154 484 112 q 603 279 603 197 q 584 356 603 326 q 522 407 565 386 q 405 444 479 428 l 338 460 q 123 561 192 492 q 53 745 53 631 q 99 904 53 838 q 234 1006 144 970 q 458 1041 325 1041 q 589 1032 525 1041 q 708 1008 653 1024 l 708 881 q 463 916 595 916 q 206 753 206 916 q 223 677 206 708 q 280 626 240 647 q 387 590 319 606 l 453 575 q 684 471 612 540 q 756 288 756 402 q 709 125 756 193 q 572 22 662 58 q 357 -13 483 -13 m 412 -258 q 340 -237 365 -258 q 315 -182 315 -217 q 340 -126 315 -147 q 412 -106 365 -106 q 484 -126 459 -106 q 509 -182 509 -147 q 484 -237 509 -217 q 412 -258 459 -258 z "},"Ṩ":{"ha":810,"x_min":53,"x_max":756,"o":"m 357 -13 q 211 -2 284 -13 q 73 31 138 10 l 73 158 q 215 124 140 135 q 358 112 290 112 q 544 154 484 112 q 603 279 603 197 q 584 356 603 326 q 522 407 565 386 q 405 444 479 428 l 338 460 q 123 561 192 492 q 53 745 53 631 q 99 904 53 838 q 234 1006 144 970 q 458 1041 325 1041 q 589 1032 525 1041 q 708 1008 653 1024 l 708 881 q 463 916 595 916 q 206 753 206 916 q 223 677 206 708 q 280 626 240 647 q 387 590 319 606 l 453 575 q 684 471 612 540 q 756 288 756 402 q 709 125 756 193 q 572 22 662 58 q 357 -13 483 -13 m 412 -258 q 340 -237 365 -258 q 315 -182 315 -217 q 340 -126 315 -147 q 412 -106 365 -106 q 484 -126 459 -106 q 509 -182 509 -147 q 484 -237 509 -217 q 412 -258 459 -258 m 412 1140 q 340 1160 365 1140 q 315 1216 315 1181 q 340 1272 315 1251 q 412 1292 365 1292 q 484 1272 459 1292 q 509 1216 509 1251 q 484 1160 509 1181 q 412 1140 459 1140 z "},"ẞ":{"ha":1284,"x_min":118,"x_max":1231,"o":"m 933 575 q 1160 471 1089 540 q 1231 288 1231 402 q 1184 125 1231 193 q 1049 22 1138 58 q 836 -13 960 -13 q 695 -2 767 -13 q 561 30 624 9 l 561 156 q 700 123 627 135 q 835 112 774 112 q 1020 154 960 112 q 1079 279 1079 197 q 1060 356 1079 326 q 1000 408 1042 387 q 886 444 958 428 l 822 460 q 610 561 678 492 q 542 745 542 631 q 591 910 542 843 q 524 916 558 916 q 333 851 394 916 q 271 651 271 787 l 271 0 l 118 0 l 118 632 q 218 939 118 838 q 524 1041 318 1041 q 722 1006 638 1041 q 941 1041 811 1041 q 1067 1033 1005 1041 q 1183 1009 1130 1024 l 1183 883 q 1067 907 1128 899 q 947 916 1006 916 q 693 753 693 916 q 710 677 693 708 q 765 626 727 647 q 869 590 803 605 l 933 575 z "},"Ə":{"ha":1094,"x_min":68,"x_max":1019,"o":"m 433 1041 q 870 911 722 1041 q 1019 508 1019 782 q 961 217 1019 333 q 799 44 904 101 q 551 -13 694 -13 q 294 43 402 -13 q 127 215 186 99 q 68 506 68 331 l 68 566 l 865 566 q 801 769 855 692 q 654 881 748 847 q 424 916 560 916 q 276 907 353 916 q 131 882 199 899 l 131 1008 q 433 1041 271 1041 m 552 108 q 775 189 695 108 q 866 451 856 269 l 226 451 q 318 189 236 269 q 552 108 400 108 z "},"T":{"ha":890,"x_min":12,"x_max":878,"o":"m 369 0 l 369 900 l 12 900 l 12 1028 l 878 1028 l 878 900 l 522 900 l 522 0 l 369 0 z "},"Ŧ":{"ha":890,"x_min":12,"x_max":878,"o":"m 878 900 l 522 900 l 522 578 l 756 578 l 756 477 l 522 477 l 522 0 l 369 0 l 369 477 l 135 477 l 135 578 l 369 578 l 369 900 l 12 900 l 12 1028 l 878 1028 l 878 900 z "},"Ť":{"ha":890,"x_min":12,"x_max":878,"o":"m 369 0 l 369 900 l 12 900 l 12 1028 l 878 1028 l 878 900 l 522 900 l 522 0 l 369 0 m 574 1315 l 702 1315 l 512 1114 l 378 1114 l 188 1315 l 316 1315 l 445 1175 l 574 1315 z "},"Ţ":{"ha":890,"x_min":12,"x_max":878,"o":"m 476 0 l 476 -67 q 573 -101 539 -72 q 606 -179 606 -130 q 563 -265 606 -235 q 437 -294 519 -294 q 295 -269 360 -294 l 295 -204 q 431 -230 362 -230 q 500 -217 476 -230 q 523 -175 523 -203 q 430 -119 523 -119 l 399 -119 l 399 0 l 369 0 l 369 900 l 12 900 l 12 1028 l 878 1028 l 878 900 l 522 900 l 522 0 l 476 0 z "},"Ț":{"ha":890,"x_min":12,"x_max":878,"o":"m 369 0 l 369 900 l 12 900 l 12 1028 l 878 1028 l 878 900 l 522 900 l 522 0 l 369 0 m 444 -106 q 536 -190 536 -106 q 524 -261 536 -223 q 492 -331 513 -299 l 399 -331 q 431 -232 425 -276 q 373 -213 392 -229 q 354 -169 354 -197 q 377 -123 354 -140 q 444 -106 399 -106 z "},"Ṭ":{"ha":890,"x_min":12,"x_max":878,"o":"m 369 0 l 369 900 l 12 900 l 12 1028 l 878 1028 l 878 900 l 522 900 l 522 0 l 369 0 m 445 -258 q 373 -237 398 -258 q 348 -182 348 -217 q 373 -126 348 -147 q 445 -106 398 -106 q 517 -126 492 -106 q 542 -182 542 -147 q 517 -237 542 -217 q 445 -258 492 -258 z "},"Ṯ":{"ha":890,"x_min":12,"x_max":878,"o":"m 369 0 l 369 900 l 12 900 l 12 1028 l 878 1028 l 878 900 l 522 900 l 522 0 l 369 0 m 208 -226 l 208 -133 l 682 -133 l 682 -226 l 208 -226 z "},"U":{"ha":1065,"x_min":113,"x_max":952,"o":"m 534 -13 q 215 91 317 -13 q 113 414 113 196 l 113 1028 l 266 1028 l 266 399 q 331 183 266 251 q 534 115 397 115 q 737 183 672 115 q 802 399 802 251 l 802 1028 l 952 1028 l 952 414 q 851 91 952 196 q 534 -13 750 -13 z "},"Ú":{"ha":1065,"x_min":113,"x_max":952,"o":"m 534 -13 q 215 91 317 -13 q 113 414 113 196 l 113 1028 l 266 1028 l 266 399 q 331 183 266 251 q 534 115 397 115 q 737 183 672 115 q 802 399 802 251 l 802 1028 l 952 1028 l 952 414 q 851 91 952 196 q 534 -13 750 -13 m 464 1114 l 601 1315 l 764 1315 l 602 1114 l 464 1114 z "},"Ŭ":{"ha":1065,"x_min":113,"x_max":952,"o":"m 534 -13 q 215 91 317 -13 q 113 414 113 196 l 113 1028 l 266 1028 l 266 399 q 331 183 266 251 q 534 115 397 115 q 737 183 672 115 q 802 399 802 251 l 802 1028 l 952 1028 l 952 414 q 851 91 952 196 q 534 -13 750 -13 m 535 1119 q 356 1169 419 1119 q 283 1303 293 1219 l 380 1303 q 425 1226 389 1253 q 535 1199 462 1199 q 644 1226 608 1199 q 688 1303 679 1252 l 785 1303 q 713 1168 775 1218 q 535 1119 651 1119 z "},"Û":{"ha":1065,"x_min":113,"x_max":952,"o":"m 534 -13 q 215 91 317 -13 q 113 414 113 196 l 113 1028 l 266 1028 l 266 399 q 331 183 266 251 q 534 115 397 115 q 737 183 672 115 q 802 399 802 251 l 802 1028 l 952 1028 l 952 414 q 851 91 952 196 q 534 -13 750 -13 m 791 1114 l 663 1114 l 534 1253 l 405 1114 l 277 1114 l 467 1315 l 601 1315 l 791 1114 z "},"Ȕ":{"ha":1065,"x_min":113,"x_max":952,"o":"m 534 -13 q 215 91 317 -13 q 113 414 113 196 l 113 1028 l 266 1028 l 266 399 q 331 183 266 251 q 534 115 397 115 q 737 183 672 115 q 802 399 802 251 l 802 1028 l 952 1028 l 952 414 q 851 91 952 196 q 534 -13 750 -13 m 347 1114 l 237 1315 l 359 1315 l 461 1114 l 347 1114 m 607 1114 l 497 1315 l 619 1315 l 722 1114 l 607 1114 z "},"Ü":{"ha":1065,"x_min":113,"x_max":952,"o":"m 534 -13 q 215 91 317 -13 q 113 414 113 196 l 113 1028 l 266 1028 l 266 399 q 331 183 266 251 q 534 115 397 115 q 737 183 672 115 q 802 399 802 251 l 802 1028 l 952 1028 l 952 414 q 851 91 952 196 q 534 -13 750 -13 m 354 1140 q 290 1160 313 1140 q 267 1216 267 1181 q 290 1272 267 1252 q 354 1292 313 1292 q 419 1272 397 1292 q 442 1216 442 1252 q 419 1160 442 1180 q 354 1140 397 1140 m 714 1140 q 649 1160 672 1140 q 626 1216 626 1180 q 649 1272 626 1252 q 714 1292 672 1292 q 778 1272 756 1292 q 801 1216 801 1252 q 778 1160 801 1181 q 714 1140 756 1140 z "},"Ụ":{"ha":1065,"x_min":113,"x_max":952,"o":"m 534 -13 q 215 91 317 -13 q 113 414 113 196 l 113 1028 l 266 1028 l 266 399 q 331 183 266 251 q 534 115 397 115 q 737 183 672 115 q 802 399 802 251 l 802 1028 l 952 1028 l 952 414 q 851 91 952 196 q 534 -13 750 -13 m 534 -258 q 462 -237 487 -258 q 437 -182 437 -217 q 462 -126 437 -147 q 534 -106 487 -106 q 606 -126 581 -106 q 631 -182 631 -147 q 606 -237 631 -217 q 534 -258 581 -258 z "},"Ù":{"ha":1065,"x_min":113,"x_max":952,"o":"m 534 -13 q 215 91 317 -13 q 113 414 113 196 l 113 1028 l 266 1028 l 266 399 q 331 183 266 251 q 534 115 397 115 q 737 183 672 115 q 802 399 802 251 l 802 1028 l 952 1028 l 952 414 q 851 91 952 196 q 534 -13 750 -13 m 465 1114 l 303 1315 l 466 1315 l 603 1114 l 465 1114 z "},"Ủ":{"ha":1065,"x_min":113,"x_max":952,"o":"m 534 -13 q 215 91 317 -13 q 113 414 113 196 l 113 1028 l 266 1028 l 266 399 q 331 183 266 251 q 534 115 397 115 q 737 183 672 115 q 802 399 802 251 l 802 1028 l 952 1028 l 952 414 q 851 91 952 196 q 534 -13 750 -13 m 492 1114 q 513 1159 493 1143 q 567 1190 532 1174 q 602 1207 590 1199 q 613 1228 613 1215 q 594 1251 613 1243 q 531 1258 575 1258 q 460 1254 493 1258 q 389 1238 427 1249 l 389 1301 q 459 1317 419 1311 q 540 1323 499 1323 q 659 1300 620 1323 q 698 1238 698 1278 q 688 1203 698 1217 q 665 1181 678 1190 q 629 1161 651 1172 q 591 1139 603 1149 q 576 1114 578 1129 l 492 1114 z "},"Ư":{"ha":1066,"x_min":113,"x_max":1103,"o":"m 534 -13 q 215 91 317 -13 q 113 414 113 196 l 113 1028 l 266 1028 l 266 399 q 331 183 266 251 q 534 115 397 115 q 737 183 672 115 q 802 399 802 251 l 802 1028 l 854 1028 q 961 1053 925 1028 q 997 1135 997 1078 q 993 1182 997 1160 q 982 1233 990 1205 l 1088 1233 q 1100 1183 1097 1207 q 1103 1130 1103 1159 q 1064 1013 1103 1057 q 952 956 1024 968 l 952 414 q 851 91 952 196 q 534 -13 750 -13 z "},"Ứ":{"ha":1066,"x_min":113,"x_max":1103,"o":"m 534 -13 q 215 91 317 -13 q 113 414 113 196 l 113 1028 l 266 1028 l 266 399 q 331 183 266 251 q 534 115 397 115 q 737 183 672 115 q 802 399 802 251 l 802 1028 l 854 1028 q 961 1053 925 1028 q 997 1135 997 1078 q 993 1182 997 1160 q 982 1233 990 1205 l 1088 1233 q 1100 1183 1097 1207 q 1103 1130 1103 1159 q 1064 1013 1103 1057 q 952 956 1024 968 l 952 414 q 851 91 952 196 q 534 -13 750 -13 m 463 1114 l 601 1315 l 763 1315 l 601 1114 l 463 1114 z "},"Ự":{"ha":1066,"x_min":113,"x_max":1103,"o":"m 534 -13 q 215 91 317 -13 q 113 414 113 196 l 113 1028 l 266 1028 l 266 399 q 331 183 266 251 q 534 115 397 115 q 737 183 672 115 q 802 399 802 251 l 802 1028 l 854 1028 q 961 1053 925 1028 q 997 1135 997 1078 q 993 1182 997 1160 q 982 1233 990 1205 l 1088 1233 q 1100 1183 1097 1207 q 1103 1130 1103 1159 q 1064 1013 1103 1057 q 952 956 1024 968 l 952 414 q 851 91 952 196 q 534 -13 750 -13 m 533 -258 q 461 -237 486 -258 q 436 -182 436 -217 q 461 -126 436 -147 q 533 -106 486 -106 q 606 -126 581 -106 q 631 -182 631 -147 q 606 -237 631 -217 q 533 -258 581 -258 z "},"Ừ":{"ha":1066,"x_min":113,"x_max":1103,"o":"m 534 -13 q 215 91 317 -13 q 113 414 113 196 l 113 1028 l 266 1028 l 266 399 q 331 183 266 251 q 534 115 397 115 q 737 183 672 115 q 802 399 802 251 l 802 1028 l 854 1028 q 961 1053 925 1028 q 997 1135 997 1078 q 993 1182 997 1160 q 982 1233 990 1205 l 1088 1233 q 1100 1183 1097 1207 q 1103 1130 1103 1159 q 1064 1013 1103 1057 q 952 956 1024 968 l 952 414 q 851 91 952 196 q 534 -13 750 -13 m 464 1114 l 303 1315 l 465 1315 l 603 1114 l 464 1114 z "},"Ử":{"ha":1066,"x_min":113,"x_max":1103,"o":"m 534 -13 q 215 91 317 -13 q 113 414 113 196 l 113 1028 l 266 1028 l 266 399 q 331 183 266 251 q 534 115 397 115 q 737 183 672 115 q 802 399 802 251 l 802 1028 l 854 1028 q 961 1053 925 1028 q 997 1135 997 1078 q 993 1182 997 1160 q 982 1233 990 1205 l 1088 1233 q 1100 1183 1097 1207 q 1103 1130 1103 1159 q 1064 1013 1103 1057 q 952 956 1024 968 l 952 414 q 851 91 952 196 q 534 -13 750 -13 m 491 1114 q 512 1159 492 1143 q 566 1190 531 1174 q 601 1207 590 1199 q 613 1228 613 1215 q 593 1251 613 1243 q 530 1258 574 1258 q 459 1254 492 1258 q 388 1238 426 1249 l 388 1301 q 458 1317 419 1311 q 539 1323 498 1323 q 658 1300 619 1323 q 697 1238 697 1278 q 688 1203 697 1217 q 664 1181 678 1190 q 628 1161 651 1172 q 590 1139 603 1149 q 575 1114 577 1129 l 491 1114 z "},"Ữ":{"ha":1066,"x_min":113,"x_max":1103,"o":"m 534 -13 q 215 91 317 -13 q 113 414 113 196 l 113 1028 l 266 1028 l 266 399 q 331 183 266 251 q 534 115 397 115 q 737 183 672 115 q 802 399 802 251 l 802 1028 l 854 1028 q 961 1053 925 1028 q 997 1135 997 1078 q 993 1182 997 1160 q 982 1233 990 1205 l 1088 1233 q 1100 1183 1097 1207 q 1103 1130 1103 1159 q 1064 1013 1103 1057 q 952 956 1024 968 l 952 414 q 851 91 952 196 q 534 -13 750 -13 m 650 1148 q 589 1155 618 1148 q 522 1176 560 1163 q 463 1194 487 1188 q 415 1200 440 1200 q 343 1189 374 1200 q 283 1151 313 1177 l 283 1244 q 340 1280 308 1268 q 417 1291 372 1291 q 476 1284 449 1291 q 544 1263 503 1277 q 603 1244 578 1251 q 652 1238 627 1238 q 724 1250 693 1238 q 784 1287 754 1261 l 784 1194 q 727 1159 760 1170 q 650 1148 694 1148 z "},"Ű":{"ha":1065,"x_min":113,"x_max":952,"o":"m 534 -13 q 215 91 317 -13 q 113 414 113 196 l 113 1028 l 266 1028 l 266 399 q 331 183 266 251 q 534 115 397 115 q 737 183 672 115 q 802 399 802 251 l 802 1028 l 952 1028 l 952 414 q 851 91 952 196 q 534 -13 750 -13 m 347 1114 l 449 1315 l 571 1315 l 461 1114 l 347 1114 m 607 1114 l 709 1315 l 831 1315 l 722 1114 l 607 1114 z "},"Ȗ":{"ha":1065,"x_min":113,"x_max":952,"o":"m 534 -13 q 215 91 317 -13 q 113 414 113 196 l 113 1028 l 266 1028 l 266 399 q 331 183 266 251 q 534 115 397 115 q 737 183 672 115 q 802 399 802 251 l 802 1028 l 952 1028 l 952 414 q 851 91 952 196 q 534 -13 750 -13 m 283 1126 q 355 1260 293 1210 q 533 1310 417 1310 q 712 1260 649 1310 q 785 1126 775 1210 l 688 1126 q 643 1203 679 1176 q 533 1229 606 1229 q 424 1203 460 1229 q 380 1126 389 1177 l 283 1126 z "},"Ū":{"ha":1065,"x_min":113,"x_max":952,"o":"m 534 -13 q 215 91 317 -13 q 113 414 113 196 l 113 1028 l 266 1028 l 266 399 q 331 183 266 251 q 534 115 397 115 q 737 183 672 115 q 802 399 802 251 l 802 1028 l 952 1028 l 952 414 q 851 91 952 196 q 534 -13 750 -13 m 297 1168 l 297 1262 l 771 1262 l 771 1168 l 297 1168 z "},"Ṻ":{"ha":1065,"x_min":113,"x_max":952,"o":"m 534 -13 q 215 91 317 -13 q 113 414 113 196 l 113 1028 l 266 1028 l 266 399 q 331 183 266 251 q 534 115 397 115 q 737 183 672 115 q 802 399 802 251 l 802 1028 l 952 1028 l 952 414 q 851 91 952 196 q 534 -13 750 -13 m 297 1168 l 297 1262 l 771 1262 l 771 1168 l 297 1168 m 354 1347 q 290 1367 313 1347 q 267 1422 267 1387 q 290 1478 267 1458 q 354 1499 313 1499 q 419 1478 397 1499 q 442 1422 442 1458 q 419 1366 442 1386 q 354 1347 397 1347 m 714 1347 q 649 1366 672 1347 q 626 1422 626 1386 q 649 1478 626 1458 q 714 1499 672 1499 q 778 1478 756 1499 q 801 1422 801 1458 q 778 1367 801 1387 q 714 1347 756 1347 z "},"Ų":{"ha":1065,"x_min":113,"x_max":952,"o":"m 952 1028 l 952 414 q 892 145 952 245 q 704 8 831 44 q 556 -62 599 -23 q 512 -149 512 -101 q 538 -207 512 -187 q 616 -226 564 -226 q 668 -221 641 -226 q 728 -202 694 -215 l 728 -268 q 599 -293 665 -293 q 466 -258 511 -293 q 421 -158 421 -222 q 514 -13 421 -68 q 210 96 308 -8 q 113 414 113 201 l 113 1028 l 266 1028 l 266 399 q 331 183 266 251 q 534 115 397 115 q 737 183 672 115 q 802 399 802 251 l 802 1028 l 952 1028 z "},"Ů":{"ha":1065,"x_min":113,"x_max":952,"o":"m 534 -13 q 215 91 317 -13 q 113 414 113 196 l 113 1028 l 266 1028 l 266 399 q 331 183 266 251 q 534 115 397 115 q 737 183 672 115 q 802 399 802 251 l 802 1028 l 952 1028 l 952 414 q 851 91 952 196 q 534 -13 750 -13 m 534 1108 q 463 1125 494 1108 q 412 1175 431 1143 q 394 1245 394 1206 q 412 1316 394 1285 q 462 1366 430 1348 q 534 1383 494 1383 q 606 1366 574 1383 q 656 1316 638 1348 q 674 1245 674 1285 q 656 1175 674 1206 q 606 1125 638 1143 q 534 1108 574 1108 m 534 1167 q 589 1189 568 1167 q 610 1245 610 1210 q 589 1302 610 1281 q 534 1323 568 1323 q 479 1302 500 1323 q 458 1245 458 1281 q 479 1189 458 1210 q 534 1167 500 1167 z "},"Ũ":{"ha":1065,"x_min":113,"x_max":952,"o":"m 534 -13 q 215 91 317 -13 q 113 414 113 196 l 113 1028 l 266 1028 l 266 399 q 331 183 266 251 q 534 115 397 115 q 737 183 672 115 q 802 399 802 251 l 802 1028 l 952 1028 l 952 414 q 851 91 952 196 q 534 -13 750 -13 m 651 1148 q 590 1155 619 1148 q 523 1176 560 1163 q 464 1194 488 1188 q 415 1200 440 1200 q 344 1189 374 1200 q 283 1151 313 1177 l 283 1244 q 341 1280 308 1268 q 417 1291 373 1291 q 476 1284 449 1291 q 545 1263 503 1277 q 603 1244 579 1251 q 653 1238 628 1238 q 724 1250 694 1238 q 785 1287 755 1261 l 785 1194 q 728 1159 760 1170 q 651 1148 695 1148 z "},"Ṹ":{"ha":1065,"x_min":113,"x_max":952,"o":"m 534 -13 q 215 91 317 -13 q 113 414 113 196 l 113 1028 l 266 1028 l 266 399 q 331 183 266 251 q 534 115 397 115 q 737 183 672 115 q 802 399 802 251 l 802 1028 l 952 1028 l 952 414 q 851 91 952 196 q 534 -13 750 -13 m 458 1337 l 594 1498 l 772 1498 l 611 1337 l 458 1337 m 651 1148 q 590 1155 619 1148 q 523 1176 560 1163 q 464 1194 488 1188 q 415 1200 440 1200 q 344 1189 374 1200 q 283 1151 313 1177 l 283 1244 q 341 1280 308 1268 q 417 1291 373 1291 q 476 1284 449 1291 q 545 1263 503 1277 q 603 1244 579 1251 q 653 1238 628 1238 q 724 1250 694 1238 q 785 1287 755 1261 l 785 1194 q 728 1159 760 1170 q 651 1148 695 1148 z "},"V":{"ha":998,"x_min":8,"x_max":990,"o":"m 839 1028 l 990 1028 l 610 0 l 388 0 l 8 1028 l 170 1028 l 503 114 l 839 1028 z "},"W":{"ha":1603,"x_min":37,"x_max":1565,"o":"m 1419 1028 l 1565 1028 l 1261 0 l 1064 0 l 803 869 l 539 0 l 342 0 l 37 1028 l 193 1028 l 450 136 l 717 1028 l 892 1028 l 1158 131 l 1419 1028 z "},"Ẃ":{"ha":1603,"x_min":37,"x_max":1565,"o":"m 1419 1028 l 1565 1028 l 1261 0 l 1064 0 l 803 869 l 539 0 l 342 0 l 37 1028 l 193 1028 l 450 136 l 717 1028 l 892 1028 l 1158 131 l 1419 1028 m 732 1114 l 869 1315 l 1032 1315 l 870 1114 l 732 1114 z "},"Ŵ":{"ha":1603,"x_min":37,"x_max":1565,"o":"m 1419 1028 l 1565 1028 l 1261 0 l 1064 0 l 803 869 l 539 0 l 342 0 l 37 1028 l 193 1028 l 450 136 l 717 1028 l 892 1028 l 1158 131 l 1419 1028 m 1059 1114 l 931 1114 l 802 1253 l 673 1114 l 545 1114 l 735 1315 l 869 1315 l 1059 1114 z "},"Ẅ":{"ha":1603,"x_min":37,"x_max":1565,"o":"m 1419 1028 l 1565 1028 l 1261 0 l 1064 0 l 803 869 l 539 0 l 342 0 l 37 1028 l 193 1028 l 450 136 l 717 1028 l 892 1028 l 1158 131 l 1419 1028 m 622 1140 q 558 1160 581 1140 q 535 1216 535 1181 q 558 1272 535 1252 q 622 1292 581 1292 q 687 1272 665 1292 q 710 1216 710 1252 q 687 1160 710 1180 q 622 1140 665 1140 m 982 1140 q 917 1160 940 1140 q 894 1216 894 1180 q 917 1272 894 1252 q 982 1292 940 1292 q 1046 1272 1024 1292 q 1069 1216 1069 1252 q 1046 1160 1069 1181 q 982 1140 1024 1140 z "},"Ẁ":{"ha":1603,"x_min":37,"x_max":1565,"o":"m 1419 1028 l 1565 1028 l 1261 0 l 1064 0 l 803 869 l 539 0 l 342 0 l 37 1028 l 193 1028 l 450 136 l 717 1028 l 892 1028 l 1158 131 l 1419 1028 m 733 1114 l 572 1315 l 734 1315 l 872 1114 l 733 1114 z "},"X":{"ha":960,"x_min":-2,"x_max":961,"o":"m 569 528 l 961 0 l 788 0 l 478 418 l 168 0 l -2 0 l 389 526 l 15 1028 l 189 1028 l 481 637 l 772 1028 l 941 1028 l 569 528 z "},"Y":{"ha":890,"x_min":-25,"x_max":908,"o":"m 908 1028 l 522 449 l 522 0 l 369 0 l 369 449 l -25 1028 l 142 1028 l 449 577 l 752 1028 l 908 1028 z "},"Ý":{"ha":890,"x_min":-25,"x_max":908,"o":"m 908 1028 l 522 449 l 522 0 l 369 0 l 369 449 l -25 1028 l 142 1028 l 449 577 l 752 1028 l 908 1028 m 375 1114 l 513 1315 l 675 1315 l 513 1114 l 375 1114 z "},"Ŷ":{"ha":890,"x_min":-25,"x_max":908,"o":"m 908 1028 l 522 449 l 522 0 l 369 0 l 369 449 l -25 1028 l 142 1028 l 449 577 l 752 1028 l 908 1028 m 702 1114 l 574 1114 l 445 1253 l 316 1114 l 188 1114 l 378 1315 l 512 1315 l 702 1114 z "},"Ÿ":{"ha":890,"x_min":-25,"x_max":908,"o":"m 908 1028 l 522 449 l 522 0 l 369 0 l 369 449 l -25 1028 l 142 1028 l 449 577 l 752 1028 l 908 1028 m 265 1140 q 201 1160 224 1140 q 178 1216 178 1181 q 201 1272 178 1252 q 265 1292 224 1292 q 330 1272 308 1292 q 353 1216 353 1252 q 330 1160 353 1180 q 265 1140 308 1140 m 625 1140 q 560 1160 583 1140 q 538 1216 538 1180 q 560 1272 538 1252 q 625 1292 583 1292 q 689 1272 667 1292 q 712 1216 712 1252 q 689 1160 712 1181 q 625 1140 667 1140 z "},"Ẏ":{"ha":890,"x_min":-25,"x_max":908,"o":"m 908 1028 l 522 449 l 522 0 l 369 0 l 369 449 l -25 1028 l 142 1028 l 449 577 l 752 1028 l 908 1028 m 445 1140 q 373 1160 398 1140 q 348 1216 348 1181 q 373 1272 348 1251 q 445 1292 398 1292 q 517 1272 492 1292 q 542 1216 542 1251 q 517 1160 542 1181 q 445 1140 492 1140 z "},"Ỵ":{"ha":890,"x_min":-25,"x_max":908,"o":"m 908 1028 l 522 449 l 522 0 l 369 0 l 369 449 l -25 1028 l 142 1028 l 449 577 l 752 1028 l 908 1028 m 445 -258 q 373 -237 398 -258 q 348 -182 348 -217 q 373 -126 348 -147 q 445 -106 398 -106 q 517 -126 492 -106 q 542 -182 542 -147 q 517 -237 542 -217 q 445 -258 492 -258 z "},"Ỳ":{"ha":890,"x_min":-25,"x_max":908,"o":"m 908 1028 l 522 449 l 522 0 l 369 0 l 369 449 l -25 1028 l 142 1028 l 449 577 l 752 1028 l 908 1028 m 376 1114 l 215 1315 l 377 1315 l 515 1114 l 376 1114 z "},"Ỷ":{"ha":890,"x_min":-25,"x_max":908,"o":"m 908 1028 l 522 449 l 522 0 l 369 0 l 369 449 l -25 1028 l 142 1028 l 449 577 l 752 1028 l 908 1028 m 403 1114 q 424 1159 404 1143 q 478 1190 443 1174 q 513 1207 501 1199 q 524 1228 524 1215 q 505 1251 524 1243 q 442 1258 486 1258 q 371 1254 404 1258 q 300 1238 338 1249 l 300 1301 q 370 1317 331 1311 q 451 1323 410 1323 q 570 1300 531 1323 q 609 1238 609 1278 q 599 1203 609 1217 q 576 1181 590 1190 q 540 1161 563 1172 q 502 1139 515 1149 q 487 1114 489 1129 l 403 1114 z "},"Ȳ":{"ha":890,"x_min":-25,"x_max":908,"o":"m 908 1028 l 522 449 l 522 0 l 369 0 l 369 449 l -25 1028 l 142 1028 l 449 577 l 752 1028 l 908 1028 m 208 1168 l 208 1262 l 682 1262 l 682 1168 l 208 1168 z "},"Ỹ":{"ha":890,"x_min":-25,"x_max":908,"o":"m 908 1028 l 522 449 l 522 0 l 369 0 l 369 449 l -25 1028 l 142 1028 l 449 577 l 752 1028 l 908 1028 m 562 1148 q 501 1155 530 1148 q 434 1176 472 1163 q 375 1194 399 1188 q 326 1200 351 1200 q 255 1189 285 1200 q 194 1151 224 1177 l 194 1244 q 252 1280 219 1268 q 328 1291 284 1291 q 388 1284 360 1291 q 456 1263 415 1277 q 515 1244 490 1251 q 564 1238 539 1238 q 635 1250 605 1238 q 696 1287 666 1261 l 696 1194 q 639 1159 672 1170 q 562 1148 606 1148 z "},"Z":{"ha":876,"x_min":47,"x_max":829,"o":"m 247 126 l 829 126 l 829 0 l 47 0 l 47 84 l 621 901 l 55 901 l 55 1028 l 821 1028 l 821 944 l 247 126 z "},"Ź":{"ha":876,"x_min":47,"x_max":829,"o":"m 247 126 l 829 126 l 829 0 l 47 0 l 47 84 l 621 901 l 55 901 l 55 1028 l 821 1028 l 821 944 l 247 126 m 368 1114 l 506 1315 l 668 1315 l 506 1114 l 368 1114 z "},"Ž":{"ha":876,"x_min":47,"x_max":829,"o":"m 247 126 l 829 126 l 829 0 l 47 0 l 47 84 l 621 901 l 55 901 l 55 1028 l 821 1028 l 821 944 l 247 126 m 567 1315 l 695 1315 l 505 1114 l 372 1114 l 181 1315 l 309 1315 l 438 1175 l 567 1315 z "},"Ż":{"ha":876,"x_min":47,"x_max":829,"o":"m 247 126 l 829 126 l 829 0 l 47 0 l 47 84 l 621 901 l 55 901 l 55 1028 l 821 1028 l 821 944 l 247 126 m 438 1140 q 366 1160 391 1140 q 341 1216 341 1181 q 366 1272 341 1251 q 438 1292 391 1292 q 510 1272 485 1292 q 535 1216 535 1251 q 510 1160 535 1181 q 438 1140 485 1140 z "},"Ẓ":{"ha":876,"x_min":47,"x_max":829,"o":"m 247 126 l 829 126 l 829 0 l 47 0 l 47 84 l 621 901 l 55 901 l 55 1028 l 821 1028 l 821 944 l 247 126 m 438 -258 q 365 -237 390 -258 q 340 -182 340 -217 q 365 -126 340 -147 q 438 -106 390 -106 q 510 -126 485 -106 q 535 -182 535 -147 q 510 -237 535 -217 q 438 -258 485 -258 z "},"a":{"ha":783,"x_min":65,"x_max":685,"o":"m 360 767 q 543 740 472 767 q 650 648 615 712 q 685 475 685 584 l 685 0 l 560 0 l 549 82 l 541 82 q 442 12 503 37 q 313 -12 382 -12 q 179 13 235 -12 q 94 86 124 39 q 65 198 65 134 q 137 355 65 299 q 366 425 209 411 l 538 442 l 538 483 q 517 584 538 548 q 452 636 496 621 q 338 651 409 651 q 230 642 288 651 q 119 617 172 634 l 119 733 q 236 758 172 749 q 360 767 301 767 m 354 95 q 453 115 406 95 q 538 173 501 134 l 538 351 l 378 335 q 253 295 292 326 q 215 210 215 265 q 250 125 215 155 q 354 95 285 95 z "},"á":{"ha":783,"x_min":65,"x_max":685,"o":"m 360 767 q 543 740 472 767 q 650 648 615 712 q 685 475 685 584 l 685 0 l 560 0 l 549 82 l 541 82 q 442 12 503 37 q 313 -12 382 -12 q 179 13 235 -12 q 94 86 124 39 q 65 198 65 134 q 137 355 65 299 q 366 425 209 411 l 538 442 l 538 483 q 517 584 538 548 q 452 636 496 621 q 338 651 409 651 q 230 642 288 651 q 119 617 172 634 l 119 733 q 236 758 172 749 q 360 767 301 767 m 354 95 q 453 115 406 95 q 538 173 501 134 l 538 351 l 378 335 q 253 295 292 326 q 215 210 215 265 q 250 125 215 155 q 354 95 285 95 m 318 865 l 487 1122 l 651 1122 l 460 865 l 318 865 z "},"ă":{"ha":783,"x_min":65,"x_max":685,"o":"m 360 767 q 543 740 472 767 q 650 648 615 712 q 685 475 685 584 l 685 0 l 560 0 l 549 82 l 541 82 q 442 12 503 37 q 313 -12 382 -12 q 179 13 235 -12 q 94 86 124 39 q 65 198 65 134 q 137 355 65 299 q 366 425 209 411 l 538 442 l 538 483 q 517 584 538 548 q 452 636 496 621 q 338 651 409 651 q 230 642 288 651 q 119 617 172 634 l 119 733 q 236 758 172 749 q 360 767 301 767 m 354 95 q 453 115 406 95 q 538 173 501 134 l 538 351 l 378 335 q 253 295 292 326 q 215 210 215 265 q 250 125 215 155 q 354 95 285 95 m 390 872 q 218 934 280 872 q 151 1105 157 996 l 248 1105 q 390 955 259 955 q 491 993 457 955 q 530 1105 525 1032 l 626 1105 q 560 934 621 995 q 390 872 499 872 z "},"ắ":{"ha":783,"x_min":65,"x_max":685,"o":"m 360 767 q 543 740 472 767 q 650 648 615 712 q 685 475 685 584 l 685 0 l 560 0 l 549 82 l 541 82 q 442 12 503 37 q 313 -12 382 -12 q 179 13 235 -12 q 94 86 124 39 q 65 198 65 134 q 137 355 65 299 q 366 425 209 411 l 538 442 l 538 483 q 517 584 538 548 q 452 636 496 621 q 338 651 409 651 q 230 642 288 651 q 119 617 172 634 l 119 733 q 236 758 172 749 q 360 767 301 767 m 354 95 q 453 115 406 95 q 538 173 501 134 l 538 351 l 378 335 q 253 295 292 326 q 215 210 215 265 q 250 125 215 155 q 354 95 285 95 m 332 1109 l 469 1297 l 606 1297 l 444 1109 l 332 1109 m 390 874 q 216 932 278 874 q 146 1092 154 991 l 243 1092 q 390 953 258 953 q 535 1092 521 953 l 632 1092 q 562 932 624 991 q 390 874 501 874 z "},"ặ":{"ha":783,"x_min":65,"x_max":685,"o":"m 360 767 q 543 740 472 767 q 650 648 615 712 q 685 475 685 584 l 685 0 l 560 0 l 549 82 l 541 82 q 442 12 503 37 q 313 -12 382 -12 q 179 13 235 -12 q 94 86 124 39 q 65 198 65 134 q 137 355 65 299 q 366 425 209 411 l 538 442 l 538 483 q 517 584 538 548 q 452 636 496 621 q 338 651 409 651 q 230 642 288 651 q 119 617 172 634 l 119 733 q 236 758 172 749 q 360 767 301 767 m 354 95 q 453 115 406 95 q 538 173 501 134 l 538 351 l 378 335 q 253 295 292 326 q 215 210 215 265 q 250 125 215 155 q 354 95 285 95 m 397 -268 q 332 -247 356 -268 q 309 -187 309 -225 q 332 -127 309 -149 q 397 -106 356 -106 q 462 -127 439 -106 q 485 -187 485 -149 q 462 -247 485 -225 q 397 -268 439 -268 m 390 872 q 218 934 280 872 q 151 1105 157 996 l 248 1105 q 390 955 259 955 q 491 993 457 955 q 530 1105 525 1032 l 626 1105 q 560 934 621 995 q 390 872 499 872 z "},"ằ":{"ha":783,"x_min":65,"x_max":685,"o":"m 360 767 q 543 740 472 767 q 650 648 615 712 q 685 475 685 584 l 685 0 l 560 0 l 549 82 l 541 82 q 442 12 503 37 q 313 -12 382 -12 q 179 13 235 -12 q 94 86 124 39 q 65 198 65 134 q 137 355 65 299 q 366 425 209 411 l 538 442 l 538 483 q 517 584 538 548 q 452 636 496 621 q 338 651 409 651 q 230 642 288 651 q 119 617 172 634 l 119 733 q 236 758 172 749 q 360 767 301 767 m 354 95 q 453 115 406 95 q 538 173 501 134 l 538 351 l 378 335 q 253 295 292 326 q 215 210 215 265 q 250 125 215 155 q 354 95 285 95 m 333 1109 l 172 1297 l 308 1297 l 446 1109 l 333 1109 m 390 874 q 216 932 278 874 q 146 1092 154 991 l 243 1092 q 390 953 258 953 q 535 1092 521 953 l 632 1092 q 562 932 624 991 q 390 874 501 874 z "},"ẳ":{"ha":783,"x_min":65,"x_max":685,"o":"m 360 767 q 543 740 472 767 q 650 648 615 712 q 685 475 685 584 l 685 0 l 560 0 l 549 82 l 541 82 q 442 12 503 37 q 313 -12 382 -12 q 179 13 235 -12 q 94 86 124 39 q 65 198 65 134 q 137 355 65 299 q 366 425 209 411 l 538 442 l 538 483 q 517 584 538 548 q 452 636 496 621 q 338 651 409 651 q 230 642 288 651 q 119 617 172 634 l 119 733 q 236 758 172 749 q 360 767 301 767 m 354 95 q 453 115 406 95 q 538 173 501 134 l 538 351 l 378 335 q 253 295 292 326 q 215 210 215 265 q 250 125 215 155 q 354 95 285 95 m 347 1109 q 367 1151 348 1137 q 421 1180 386 1166 q 457 1197 445 1190 q 468 1217 468 1205 q 385 1247 468 1247 q 316 1242 349 1247 q 244 1226 283 1237 l 244 1284 q 314 1299 274 1294 q 394 1304 353 1304 q 514 1283 476 1304 q 553 1224 553 1263 q 535 1183 553 1198 q 484 1153 517 1169 q 445 1133 458 1142 q 431 1109 433 1124 l 347 1109 m 390 874 q 216 932 278 874 q 146 1092 154 991 l 243 1092 q 390 953 258 953 q 535 1092 521 953 l 632 1092 q 562 932 624 991 q 390 874 501 874 z "},"ẵ":{"ha":783,"x_min":65,"x_max":685,"o":"m 360 767 q 543 740 472 767 q 650 648 615 712 q 685 475 685 584 l 685 0 l 560 0 l 549 82 l 541 82 q 442 12 503 37 q 313 -12 382 -12 q 179 13 235 -12 q 94 86 124 39 q 65 198 65 134 q 137 355 65 299 q 366 425 209 411 l 538 442 l 538 483 q 517 584 538 548 q 452 636 496 621 q 338 651 409 651 q 230 642 288 651 q 119 617 172 634 l 119 733 q 236 758 172 749 q 360 767 301 767 m 354 95 q 453 115 406 95 q 538 173 501 134 l 538 351 l 378 335 q 253 295 292 326 q 215 210 215 265 q 250 125 215 155 q 354 95 285 95 m 504 1142 q 444 1148 473 1142 q 378 1168 416 1155 q 319 1185 342 1180 q 271 1191 295 1191 q 201 1180 232 1191 q 139 1145 170 1169 l 139 1228 q 197 1261 165 1251 q 274 1272 230 1272 q 333 1266 305 1272 q 400 1246 362 1259 q 459 1228 435 1234 q 507 1223 483 1223 q 577 1234 547 1223 q 639 1269 608 1245 l 639 1185 q 581 1152 613 1163 q 504 1142 548 1142 m 390 874 q 216 932 278 874 q 146 1092 154 991 l 243 1092 q 390 953 258 953 q 535 1092 521 953 l 632 1092 q 562 932 624 991 q 390 874 501 874 z "},"â":{"ha":783,"x_min":65,"x_max":685,"o":"m 360 767 q 543 740 472 767 q 650 648 615 712 q 685 475 685 584 l 685 0 l 560 0 l 549 82 l 541 82 q 442 12 503 37 q 313 -12 382 -12 q 179 13 235 -12 q 94 86 124 39 q 65 198 65 134 q 137 355 65 299 q 366 425 209 411 l 538 442 l 538 483 q 517 584 538 548 q 452 636 496 621 q 338 651 409 651 q 230 642 288 651 q 119 617 172 634 l 119 733 q 236 758 172 749 q 360 767 301 767 m 354 95 q 453 115 406 95 q 538 173 501 134 l 538 351 l 378 335 q 253 295 292 326 q 215 210 215 265 q 250 125 215 155 q 354 95 285 95 m 625 865 l 508 865 l 389 1047 l 270 865 l 153 865 l 325 1122 l 453 1122 l 625 865 z "},"ấ":{"ha":783,"x_min":65,"x_max":819,"o":"m 360 767 q 543 740 472 767 q 650 648 615 712 q 685 475 685 584 l 685 0 l 560 0 l 549 82 l 541 82 q 442 12 503 37 q 313 -12 382 -12 q 179 13 235 -12 q 94 86 124 39 q 65 198 65 134 q 137 355 65 299 q 366 425 209 411 l 538 442 l 538 483 q 517 584 538 548 q 452 636 496 621 q 338 651 409 651 q 230 642 288 651 q 119 617 172 634 l 119 733 q 236 758 172 749 q 360 767 301 767 m 354 95 q 453 115 406 95 q 538 173 501 134 l 538 351 l 378 335 q 253 295 292 326 q 215 210 215 265 q 250 125 215 155 q 354 95 285 95 m 683 1297 l 819 1297 l 658 1109 l 546 1109 l 683 1297 m 325 1122 l 453 1122 l 625 865 l 508 865 l 389 1047 l 270 865 l 153 865 l 325 1122 z "},"ậ":{"ha":783,"x_min":65,"x_max":685,"o":"m 360 767 q 543 740 472 767 q 650 648 615 712 q 685 475 685 584 l 685 0 l 560 0 l 549 82 l 541 82 q 442 12 503 37 q 313 -12 382 -12 q 179 13 235 -12 q 94 86 124 39 q 65 198 65 134 q 137 355 65 299 q 366 425 209 411 l 538 442 l 538 483 q 517 584 538 548 q 452 636 496 621 q 338 651 409 651 q 230 642 288 651 q 119 617 172 634 l 119 733 q 236 758 172 749 q 360 767 301 767 m 354 95 q 453 115 406 95 q 538 173 501 134 l 538 351 l 378 335 q 253 295 292 326 q 215 210 215 265 q 250 125 215 155 q 354 95 285 95 m 397 -268 q 332 -247 356 -268 q 309 -187 309 -225 q 332 -127 309 -149 q 397 -106 356 -106 q 462 -127 439 -106 q 485 -187 485 -149 q 462 -247 485 -225 q 397 -268 439 -268 m 625 865 l 508 865 l 389 1047 l 270 865 l 153 865 l 325 1122 l 453 1122 l 625 865 z "},"ầ":{"ha":783,"x_min":65,"x_max":685,"o":"m 360 767 q 543 740 472 767 q 650 648 615 712 q 685 475 685 584 l 685 0 l 560 0 l 549 82 l 541 82 q 442 12 503 37 q 313 -12 382 -12 q 179 13 235 -12 q 94 86 124 39 q 65 198 65 134 q 137 355 65 299 q 366 425 209 411 l 538 442 l 538 483 q 517 584 538 548 q 452 636 496 621 q 338 651 409 651 q 230 642 288 651 q 119 617 172 634 l 119 733 q 236 758 172 749 q 360 767 301 767 m 354 95 q 453 115 406 95 q 538 173 501 134 l 538 351 l 378 335 q 253 295 292 326 q 215 210 215 265 q 250 125 215 155 q 354 95 285 95 m 678 1109 l 565 1109 l 404 1297 l 540 1297 l 678 1109 m 325 1122 l 453 1122 l 625 865 l 508 865 l 389 1047 l 270 865 l 153 865 l 325 1122 z "},"ẩ":{"ha":783,"x_min":65,"x_max":743,"o":"m 360 767 q 543 740 472 767 q 650 648 615 712 q 685 475 685 584 l 685 0 l 560 0 l 549 82 l 541 82 q 442 12 503 37 q 313 -12 382 -12 q 179 13 235 -12 q 94 86 124 39 q 65 198 65 134 q 137 355 65 299 q 366 425 209 411 l 538 442 l 538 483 q 517 584 538 548 q 452 636 496 621 q 338 651 409 651 q 230 642 288 651 q 119 617 172 634 l 119 733 q 236 758 172 749 q 360 767 301 767 m 354 95 q 453 115 406 95 q 538 173 501 134 l 538 351 l 378 335 q 253 295 292 326 q 215 210 215 265 q 250 125 215 155 q 354 95 285 95 m 592 1304 q 743 1225 743 1304 q 727 1186 743 1200 q 681 1159 712 1173 q 642 1137 656 1147 q 626 1109 628 1126 l 547 1109 q 567 1153 548 1138 q 619 1183 585 1169 q 651 1199 641 1192 q 661 1217 661 1206 q 643 1239 661 1231 q 583 1247 625 1247 q 447 1227 513 1247 l 447 1284 q 514 1299 475 1293 q 592 1304 552 1304 m 325 1122 l 453 1122 l 625 865 l 508 865 l 389 1047 l 270 865 l 153 865 l 325 1122 z "},"ẫ":{"ha":783,"x_min":65,"x_max":685,"o":"m 360 767 q 543 740 472 767 q 650 648 615 712 q 685 475 685 584 l 685 0 l 560 0 l 549 82 l 541 82 q 442 12 503 37 q 313 -12 382 -12 q 179 13 235 -12 q 94 86 124 39 q 65 198 65 134 q 137 355 65 299 q 366 425 209 411 l 538 442 l 538 483 q 517 584 538 548 q 452 636 496 621 q 338 651 409 651 q 230 642 288 651 q 119 617 172 634 l 119 733 q 236 758 172 749 q 360 767 301 767 m 354 95 q 453 115 406 95 q 538 173 501 134 l 538 351 l 378 335 q 253 295 292 326 q 215 210 215 265 q 250 125 215 155 q 354 95 285 95 m 501 1142 q 442 1149 471 1142 q 378 1168 414 1156 q 320 1185 342 1180 q 274 1191 298 1191 q 206 1180 236 1191 q 146 1145 176 1169 l 146 1228 q 276 1272 194 1272 q 335 1265 307 1272 q 400 1246 364 1258 q 458 1228 435 1234 q 503 1223 480 1223 q 572 1234 542 1223 q 632 1268 602 1244 l 632 1185 q 576 1152 608 1163 q 501 1142 544 1142 m 636 866 l 514 866 l 389 1037 l 264 866 l 142 866 l 322 1101 l 456 1101 l 636 866 z "},"ȁ":{"ha":783,"x_min":65,"x_max":685,"o":"m 360 767 q 543 740 472 767 q 650 648 615 712 q 685 475 685 584 l 685 0 l 560 0 l 549 82 l 541 82 q 442 12 503 37 q 313 -12 382 -12 q 179 13 235 -12 q 94 86 124 39 q 65 198 65 134 q 137 355 65 299 q 366 425 209 411 l 538 442 l 538 483 q 517 584 538 548 q 452 636 496 621 q 338 651 409 651 q 230 642 288 651 q 119 617 172 634 l 119 733 q 236 758 172 749 q 360 767 301 767 m 354 95 q 453 115 406 95 q 538 173 501 134 l 538 351 l 378 335 q 253 295 292 326 q 215 210 215 265 q 250 125 215 155 q 354 95 285 95 m 201 865 l 82 1122 l 205 1122 l 316 865 l 201 865 m 462 865 l 342 1122 l 465 1122 l 576 865 l 462 865 z "},"ä":{"ha":783,"x_min":65,"x_max":685,"o":"m 360 767 q 543 740 472 767 q 650 648 615 712 q 685 475 685 584 l 685 0 l 560 0 l 549 82 l 541 82 q 442 12 503 37 q 313 -12 382 -12 q 179 13 235 -12 q 94 86 124 39 q 65 198 65 134 q 137 355 65 299 q 366 425 209 411 l 538 442 l 538 483 q 517 584 538 548 q 452 636 496 621 q 338 651 409 651 q 230 642 288 651 q 119 617 172 634 l 119 733 q 236 758 172 749 q 360 767 301 767 m 354 95 q 453 115 406 95 q 538 173 501 134 l 538 351 l 378 335 q 253 295 292 326 q 215 210 215 265 q 250 125 215 155 q 354 95 285 95 m 220 903 q 155 926 178 903 q 132 986 132 948 q 155 1048 132 1025 q 220 1070 178 1070 q 285 1048 263 1070 q 308 986 308 1025 q 285 926 308 948 q 220 903 263 903 m 558 903 q 492 926 515 903 q 469 986 469 948 q 492 1048 469 1025 q 558 1070 515 1070 q 623 1048 599 1070 q 646 986 646 1025 q 623 926 646 948 q 558 903 599 903 z "},"ạ":{"ha":783,"x_min":65,"x_max":685,"o":"m 360 767 q 543 740 472 767 q 650 648 615 712 q 685 475 685 584 l 685 0 l 560 0 l 549 82 l 541 82 q 442 12 503 37 q 313 -12 382 -12 q 179 13 235 -12 q 94 86 124 39 q 65 198 65 134 q 137 355 65 299 q 366 425 209 411 l 538 442 l 538 483 q 517 584 538 548 q 452 636 496 621 q 338 651 409 651 q 230 642 288 651 q 119 617 172 634 l 119 733 q 236 758 172 749 q 360 767 301 767 m 354 95 q 453 115 406 95 q 538 173 501 134 l 538 351 l 378 335 q 253 295 292 326 q 215 210 215 265 q 250 125 215 155 q 354 95 285 95 m 397 -268 q 332 -247 356 -268 q 309 -187 309 -225 q 332 -127 309 -149 q 397 -106 356 -106 q 462 -127 439 -106 q 485 -187 485 -149 q 462 -247 485 -225 q 397 -268 439 -268 z "},"à":{"ha":783,"x_min":65,"x_max":685,"o":"m 360 767 q 543 740 472 767 q 650 648 615 712 q 685 475 685 584 l 685 0 l 560 0 l 549 82 l 541 82 q 442 12 503 37 q 313 -12 382 -12 q 179 13 235 -12 q 94 86 124 39 q 65 198 65 134 q 137 355 65 299 q 366 425 209 411 l 538 442 l 538 483 q 517 584 538 548 q 452 636 496 621 q 338 651 409 651 q 230 642 288 651 q 119 617 172 634 l 119 733 q 236 758 172 749 q 360 767 301 767 m 354 95 q 453 115 406 95 q 538 173 501 134 l 538 351 l 378 335 q 253 295 292 326 q 215 210 215 265 q 250 125 215 155 q 354 95 285 95 m 318 865 l 127 1122 l 291 1122 l 460 865 l 318 865 z "},"ả":{"ha":783,"x_min":65,"x_max":685,"o":"m 360 767 q 543 740 472 767 q 650 648 615 712 q 685 475 685 584 l 685 0 l 560 0 l 549 82 l 541 82 q 442 12 503 37 q 313 -12 382 -12 q 179 13 235 -12 q 94 86 124 39 q 65 198 65 134 q 137 355 65 299 q 366 425 209 411 l 538 442 l 538 483 q 517 584 538 548 q 452 636 496 621 q 338 651 409 651 q 230 642 288 651 q 119 617 172 634 l 119 733 q 236 758 172 749 q 360 767 301 767 m 354 95 q 453 115 406 95 q 538 173 501 134 l 538 351 l 378 335 q 253 295 292 326 q 215 210 215 265 q 250 125 215 155 q 354 95 285 95 m 347 865 q 358 912 348 892 q 383 944 369 932 q 418 970 397 956 q 451 997 441 986 q 461 1022 461 1007 q 442 1055 461 1044 q 379 1065 422 1065 q 263 1048 319 1065 l 263 1113 q 321 1126 287 1122 q 386 1131 355 1131 q 507 1105 468 1131 q 546 1030 546 1080 q 538 991 546 1007 q 518 964 529 974 q 486 939 506 953 q 446 906 460 921 q 431 865 433 890 l 347 865 z "},"ȃ":{"ha":783,"x_min":65,"x_max":685,"o":"m 360 767 q 543 740 472 767 q 650 648 615 712 q 685 475 685 584 l 685 0 l 560 0 l 549 82 l 541 82 q 442 12 503 37 q 313 -12 382 -12 q 179 13 235 -12 q 94 86 124 39 q 65 198 65 134 q 137 355 65 299 q 366 425 209 411 l 538 442 l 538 483 q 517 584 538 548 q 452 636 496 621 q 338 651 409 651 q 230 642 288 651 q 119 617 172 634 l 119 733 q 236 758 172 749 q 360 767 301 767 m 354 95 q 453 115 406 95 q 538 173 501 134 l 538 351 l 378 335 q 253 295 292 326 q 215 210 215 265 q 250 125 215 155 q 354 95 285 95 m 151 885 q 217 1056 157 995 q 388 1117 278 1117 q 559 1056 497 1117 q 626 885 621 994 l 530 885 q 388 1035 519 1035 q 287 997 321 1035 q 248 885 253 958 l 151 885 z "},"ā":{"ha":783,"x_min":65,"x_max":685,"o":"m 360 767 q 543 740 472 767 q 650 648 615 712 q 685 475 685 584 l 685 0 l 560 0 l 549 82 l 541 82 q 442 12 503 37 q 313 -12 382 -12 q 179 13 235 -12 q 94 86 124 39 q 65 198 65 134 q 137 355 65 299 q 366 425 209 411 l 538 442 l 538 483 q 517 584 538 548 q 452 636 496 621 q 338 651 409 651 q 230 642 288 651 q 119 617 172 634 l 119 733 q 236 758 172 749 q 360 767 301 767 m 354 95 q 453 115 406 95 q 538 173 501 134 l 538 351 l 378 335 q 253 295 292 326 q 215 210 215 265 q 250 125 215 155 q 354 95 285 95 m 153 940 l 153 1034 l 625 1034 l 625 940 l 153 940 z "},"ą":{"ha":783,"x_min":65,"x_max":736,"o":"m 635 -228 q 736 -202 685 -228 l 736 -269 q 619 -294 680 -294 q 497 -259 540 -294 q 454 -161 454 -223 q 480 -73 454 -112 q 560 1 505 -33 l 549 82 l 541 82 q 442 12 503 37 q 313 -12 382 -12 q 179 13 235 -12 q 94 86 124 39 q 65 198 65 134 q 137 355 65 299 q 366 425 209 411 l 538 442 l 538 483 q 517 584 538 548 q 452 636 496 621 q 338 651 409 651 q 230 642 288 651 q 119 617 172 634 l 119 733 q 236 758 172 749 q 360 767 301 767 q 543 740 472 767 q 650 648 615 712 q 685 475 685 584 l 685 0 q 577 -72 609 -36 q 545 -152 545 -108 q 569 -208 545 -187 q 635 -228 592 -228 m 354 95 q 453 115 406 95 q 538 173 501 134 l 538 351 l 378 335 q 253 295 292 326 q 215 210 215 265 q 250 125 215 155 q 354 95 285 95 z "},"å":{"ha":783,"x_min":65,"x_max":685,"o":"m 360 767 q 543 740 472 767 q 650 648 615 712 q 685 475 685 584 l 685 0 l 560 0 l 549 82 l 541 82 q 442 12 503 37 q 313 -12 382 -12 q 179 13 235 -12 q 94 86 124 39 q 65 198 65 134 q 137 355 65 299 q 366 425 209 411 l 538 442 l 538 483 q 517 584 538 548 q 452 636 496 621 q 338 651 409 651 q 230 642 288 651 q 119 617 172 634 l 119 733 q 236 758 172 749 q 360 767 301 767 m 354 95 q 453 115 406 95 q 538 173 501 134 l 538 351 l 378 335 q 253 295 292 326 q 215 210 215 265 q 250 125 215 155 q 354 95 285 95 m 389 863 q 317 880 349 863 q 267 929 285 898 q 249 1000 249 960 q 267 1071 249 1040 q 317 1120 285 1102 q 389 1138 349 1138 q 461 1120 428 1138 q 511 1071 493 1102 q 529 1000 529 1040 q 511 929 529 960 q 461 880 493 898 q 389 863 428 863 m 389 922 q 444 943 423 922 q 465 1000 465 965 q 444 1057 465 1035 q 389 1078 423 1078 q 334 1057 355 1078 q 313 1000 313 1035 q 334 943 313 965 q 389 922 355 922 z "},"ǻ":{"ha":783,"x_min":65,"x_max":685,"o":"m 360 767 q 543 740 472 767 q 650 648 615 712 q 685 475 685 584 l 685 0 l 560 0 l 549 82 l 541 82 q 442 12 503 37 q 313 -12 382 -12 q 179 13 235 -12 q 94 86 124 39 q 65 198 65 134 q 137 355 65 299 q 366 425 209 411 l 538 442 l 538 483 q 517 584 538 548 q 452 636 496 621 q 338 651 409 651 q 230 642 288 651 q 119 617 172 634 l 119 733 q 236 758 172 749 q 360 767 301 767 m 354 95 q 453 115 406 95 q 538 173 501 134 l 538 351 l 378 335 q 253 295 292 326 q 215 210 215 265 q 250 125 215 155 q 354 95 285 95 m 505 1080 q 529 1000 529 1044 q 511 929 529 960 q 461 880 493 898 q 389 863 428 863 q 317 880 349 863 q 267 929 285 898 q 249 1000 249 960 q 267 1071 249 1040 q 317 1120 285 1102 q 389 1138 349 1138 q 440 1129 417 1138 l 528 1236 l 643 1236 l 505 1080 m 389 922 q 444 943 423 922 q 465 1000 465 965 q 444 1057 465 1035 q 389 1078 423 1078 q 334 1057 355 1078 q 313 1000 313 1035 q 334 943 313 965 q 389 922 355 922 z "},"ã":{"ha":783,"x_min":65,"x_max":685,"o":"m 360 767 q 543 740 472 767 q 650 648 615 712 q 685 475 685 584 l 685 0 l 560 0 l 549 82 l 541 82 q 442 12 503 37 q 313 -12 382 -12 q 179 13 235 -12 q 94 86 124 39 q 65 198 65 134 q 137 355 65 299 q 366 425 209 411 l 538 442 l 538 483 q 517 584 538 548 q 452 636 496 621 q 338 651 409 651 q 230 642 288 651 q 119 617 172 634 l 119 733 q 236 758 172 749 q 360 767 301 767 m 354 95 q 453 115 406 95 q 538 173 501 134 l 538 351 l 378 335 q 253 295 292 326 q 215 210 215 265 q 250 125 215 155 q 354 95 285 95 m 497 920 q 440 928 467 920 q 377 952 413 937 q 323 973 344 966 q 279 979 301 979 q 212 966 242 979 q 153 925 182 953 l 153 1024 q 209 1061 178 1049 q 281 1073 240 1073 q 338 1065 310 1073 q 401 1041 365 1056 q 455 1020 433 1027 q 499 1014 477 1014 q 566 1027 536 1014 q 625 1069 596 1040 l 625 969 q 568 932 600 944 q 497 920 537 920 z "},"æ":{"ha":1247,"x_min":65,"x_max":1191,"o":"m 1191 332 l 686 332 q 718 199 690 249 q 803 125 747 149 q 950 102 860 102 q 1151 132 1043 102 l 1151 17 q 930 -14 1040 -14 q 736 17 816 -14 q 608 113 656 49 q 474 17 545 46 q 324 -12 403 -12 q 184 13 242 -12 q 95 86 126 39 q 65 199 65 134 q 142 365 65 305 q 380 425 218 425 l 539 425 l 539 483 q 517 584 539 548 q 452 636 496 621 q 337 651 408 651 q 230 642 288 651 q 119 617 173 634 l 119 733 q 234 759 173 750 q 354 767 296 767 q 527 740 460 767 q 629 651 595 713 q 732 738 669 708 q 876 767 795 767 q 1109 667 1028 767 q 1191 375 1191 567 l 1191 332 m 869 667 q 735 609 781 667 q 685 425 688 551 l 1050 425 q 1002 609 1047 552 q 869 667 957 667 m 356 95 q 565 198 481 95 q 540 334 544 258 l 390 334 q 215 210 215 334 q 251 125 215 155 q 356 95 287 95 z "},"ǽ":{"ha":1247,"x_min":65,"x_max":1191,"o":"m 1191 332 l 686 332 q 718 199 690 249 q 803 125 747 149 q 950 102 860 102 q 1151 132 1043 102 l 1151 17 q 930 -14 1040 -14 q 736 17 816 -14 q 608 113 656 49 q 474 17 545 46 q 324 -12 403 -12 q 184 13 242 -12 q 95 86 126 39 q 65 199 65 134 q 142 365 65 305 q 380 425 218 425 l 539 425 l 539 483 q 517 584 539 548 q 452 636 496 621 q 337 651 408 651 q 230 642 288 651 q 119 617 173 634 l 119 733 q 234 759 173 750 q 354 767 296 767 q 527 740 460 767 q 629 651 595 713 q 732 738 669 708 q 876 767 795 767 q 1109 667 1028 767 q 1191 375 1191 567 l 1191 332 m 869 667 q 735 609 781 667 q 685 425 688 551 l 1050 425 q 1002 609 1047 552 q 869 667 957 667 m 356 95 q 565 198 481 95 q 540 334 544 258 l 390 334 q 215 210 215 334 q 251 125 215 155 q 356 95 287 95 m 544 865 l 713 1122 l 876 1122 l 685 865 l 544 865 z "},"b":{"ha":865,"x_min":106,"x_max":799,"o":"m 381 -13 q 106 25 230 -13 l 106 1122 l 256 1122 l 256 677 l 264 677 q 361 744 304 720 q 488 767 418 767 q 647 728 577 767 q 758 605 717 689 q 799 393 799 521 q 693 89 799 192 q 381 -13 588 -13 m 393 104 q 584 171 521 104 q 647 381 647 238 q 592 582 647 522 q 439 642 538 642 q 339 624 386 642 q 256 566 291 605 l 256 122 q 393 104 319 104 z "},"c":{"ha":675,"x_min":66,"x_max":641,"o":"m 442 -14 q 162 83 258 -14 q 66 377 66 181 q 168 670 66 574 q 467 767 270 767 q 641 746 564 767 l 641 624 q 483 644 559 644 q 284 582 348 644 q 221 379 221 519 q 281 173 221 238 q 461 109 340 109 q 543 117 501 109 q 641 140 586 124 l 641 19 q 442 -14 547 -14 z "},"ć":{"ha":675,"x_min":66,"x_max":651,"o":"m 442 -14 q 162 83 258 -14 q 66 377 66 181 q 168 670 66 574 q 467 767 270 767 q 641 746 564 767 l 641 624 q 483 644 559 644 q 284 582 348 644 q 221 379 221 519 q 281 173 221 238 q 461 109 340 109 q 543 117 501 109 q 641 140 586 124 l 641 19 q 442 -14 547 -14 m 319 865 l 488 1122 l 651 1122 l 460 865 l 319 865 z "},"č":{"ha":675,"x_min":66,"x_max":641,"o":"m 442 -14 q 162 83 258 -14 q 66 377 66 181 q 168 670 66 574 q 467 767 270 767 q 641 746 564 767 l 641 624 q 483 644 559 644 q 284 582 348 644 q 221 379 221 519 q 281 173 221 238 q 461 109 340 109 q 543 117 501 109 q 641 140 586 124 l 641 19 q 442 -14 547 -14 m 511 1122 l 628 1122 l 453 865 l 326 865 l 151 1122 l 268 1122 l 390 939 l 511 1122 z "},"ç":{"ha":675,"x_min":66,"x_max":641,"o":"m 483 644 q 284 582 348 644 q 221 379 221 519 q 281 173 221 238 q 461 109 340 109 q 543 117 501 109 q 641 140 586 124 l 641 19 q 442 -14 547 -14 l 438 -14 l 438 -68 q 524 -103 494 -74 q 553 -181 553 -133 q 513 -265 553 -235 q 397 -294 473 -294 q 330 -288 363 -294 q 270 -270 296 -281 l 270 -204 q 331 -224 299 -217 q 392 -230 363 -230 q 451 -217 431 -230 q 470 -175 470 -203 q 450 -132 470 -146 q 391 -119 431 -119 l 360 -119 l 360 -8 q 141 108 216 12 q 66 377 66 204 q 168 670 66 574 q 467 767 270 767 q 641 746 564 767 l 641 624 q 483 644 559 644 z "},"ḉ":{"ha":675,"x_min":66,"x_max":651,"o":"m 651 1122 l 460 865 l 319 865 l 488 1122 l 651 1122 m 66 377 q 168 670 66 574 q 467 767 270 767 q 641 746 564 767 l 641 624 q 483 644 559 644 q 284 582 348 644 q 221 379 221 519 q 281 173 221 238 q 461 109 340 109 q 543 117 501 109 q 641 140 586 124 l 641 19 q 442 -14 547 -14 l 438 -14 l 438 -68 q 524 -103 494 -74 q 553 -181 553 -133 q 513 -265 553 -235 q 397 -294 473 -294 q 330 -288 363 -294 q 270 -270 296 -281 l 270 -204 q 331 -224 299 -217 q 392 -230 363 -230 q 451 -217 431 -230 q 470 -175 470 -203 q 450 -132 470 -146 q 391 -119 431 -119 l 360 -119 l 360 -8 q 141 108 216 12 q 66 377 66 204 z "},"ĉ":{"ha":675,"x_min":66,"x_max":641,"o":"m 442 -14 q 162 83 258 -14 q 66 377 66 181 q 168 670 66 574 q 467 767 270 767 q 641 746 564 767 l 641 624 q 483 644 559 644 q 284 582 348 644 q 221 379 221 519 q 281 173 221 238 q 461 109 340 109 q 543 117 501 109 q 641 140 586 124 l 641 19 q 442 -14 547 -14 m 626 865 l 508 865 l 390 1047 l 271 865 l 153 865 l 326 1122 l 453 1122 l 626 865 z "},"ċ":{"ha":675,"x_min":66,"x_max":641,"o":"m 442 -14 q 162 83 258 -14 q 66 377 66 181 q 168 670 66 574 q 467 767 270 767 q 641 746 564 767 l 641 624 q 483 644 559 644 q 284 582 348 644 q 221 379 221 519 q 281 173 221 238 q 461 109 340 109 q 543 117 501 109 q 641 140 586 124 l 641 19 q 442 -14 547 -14 m 390 902 q 316 924 341 902 q 292 986 292 946 q 317 1049 292 1027 q 390 1072 342 1072 q 463 1049 438 1072 q 488 986 488 1027 q 463 924 488 946 q 390 902 438 902 z "},"d":{"ha":865,"x_min":66,"x_max":758,"o":"m 389 -13 q 223 26 295 -13 q 108 150 150 66 q 66 362 66 233 q 170 665 66 562 q 476 768 275 768 q 608 757 532 768 l 608 1122 l 758 1122 l 758 0 l 632 0 l 622 83 l 614 83 q 517 13 574 38 q 389 -13 459 -13 m 426 112 q 527 132 480 112 q 608 195 574 152 l 608 635 q 478 650 551 650 q 282 584 346 650 q 217 374 217 517 q 272 173 217 234 q 426 112 326 112 z "},"ð":{"ha":849,"x_min":66,"x_max":783,"o":"m 610 913 q 737 669 691 799 q 783 413 783 540 q 689 92 783 198 q 425 -14 595 -14 q 234 29 314 -14 q 110 159 153 72 q 66 377 66 247 q 109 593 66 506 q 230 722 152 680 q 412 764 307 764 q 564 725 501 764 q 465 889 527 808 l 147 837 l 131 925 l 397 969 q 216 1122 317 1054 l 403 1122 q 547 993 481 1067 l 747 1026 l 763 938 l 610 913 m 425 104 q 631 376 631 104 q 578 585 631 521 q 424 649 526 649 q 270 585 324 649 q 217 378 217 522 q 270 168 217 232 q 425 104 323 104 z "},"ď":{"ha":865,"x_min":66,"x_max":944,"o":"m 389 -13 q 223 26 295 -13 q 108 150 150 66 q 66 362 66 233 q 170 665 66 562 q 476 768 275 768 q 608 757 532 768 l 608 1122 l 758 1122 l 758 0 l 632 0 l 622 83 l 614 83 q 517 13 574 38 q 389 -13 459 -13 m 426 112 q 527 132 480 112 q 608 195 574 152 l 608 635 q 478 650 551 650 q 282 584 346 650 q 217 374 217 517 q 272 173 217 234 q 426 112 326 112 m 822 819 q 840 1122 840 947 l 944 1122 q 935 964 944 1044 q 906 819 925 885 l 822 819 z "},"đ":{"ha":865,"x_min":66,"x_max":858,"o":"m 858 892 l 758 892 l 758 0 l 632 0 l 622 83 l 614 83 q 517 13 574 38 q 389 -13 459 -13 q 223 26 295 -13 q 108 150 150 66 q 66 362 66 233 q 170 665 66 562 q 476 768 275 768 q 608 757 532 768 l 608 892 l 340 892 l 340 990 l 608 990 l 608 1122 l 758 1122 l 758 990 l 858 990 l 858 892 m 608 635 q 478 650 551 650 q 282 584 346 650 q 217 374 217 517 q 272 173 217 234 q 426 112 326 112 q 527 132 480 112 q 608 195 574 152 l 608 635 z "},"ḍ":{"ha":865,"x_min":66,"x_max":758,"o":"m 389 -13 q 223 26 295 -13 q 108 150 150 66 q 66 362 66 233 q 170 665 66 562 q 476 768 275 768 q 608 757 532 768 l 608 1122 l 758 1122 l 758 0 l 632 0 l 622 83 l 614 83 q 517 13 574 38 q 389 -13 459 -13 m 426 112 q 527 132 480 112 q 608 195 574 152 l 608 635 q 478 650 551 650 q 282 584 346 650 q 217 374 217 517 q 272 173 217 234 q 426 112 326 112 m 435 -268 q 370 -247 393 -268 q 347 -187 347 -225 q 370 -127 347 -149 q 435 -106 393 -106 q 500 -127 476 -106 q 523 -187 523 -149 q 500 -247 523 -225 q 435 -268 476 -268 z "},"ḏ":{"ha":865,"x_min":66,"x_max":758,"o":"m 389 -13 q 223 26 295 -13 q 108 150 150 66 q 66 362 66 233 q 170 665 66 562 q 476 768 275 768 q 608 757 532 768 l 608 1122 l 758 1122 l 758 0 l 632 0 l 622 83 l 614 83 q 517 13 574 38 q 389 -13 459 -13 m 426 112 q 527 132 480 112 q 608 195 574 152 l 608 635 q 478 650 551 650 q 282 584 346 650 q 217 374 217 517 q 272 173 217 234 q 426 112 326 112 m 213 -233 l 213 -140 l 656 -140 l 656 -233 l 213 -233 z "},"ǳ":{"ha":1574,"x_min":66,"x_max":1533,"o":"m 389 -13 q 223 26 295 -13 q 108 150 150 66 q 66 362 66 233 q 170 665 66 562 q 476 768 275 768 q 608 757 532 768 l 608 1122 l 758 1122 l 758 0 l 632 0 l 622 83 l 614 83 q 517 13 574 38 q 389 -13 459 -13 m 426 112 q 527 132 480 112 q 608 195 574 152 l 608 635 q 478 650 551 650 q 282 584 346 650 q 217 374 217 517 q 272 173 217 234 q 426 112 326 112 m 1106 121 l 1533 121 l 1533 0 l 913 0 l 913 94 l 1332 635 l 921 635 l 921 756 l 1525 756 l 1525 661 l 1106 121 z "},"ǆ":{"ha":1574,"x_min":66,"x_max":1533,"o":"m 389 -13 q 223 26 295 -13 q 108 150 150 66 q 66 362 66 233 q 170 665 66 562 q 476 768 275 768 q 608 757 532 768 l 608 1122 l 758 1122 l 758 0 l 632 0 l 622 83 l 614 83 q 517 13 574 38 q 389 -13 459 -13 m 426 112 q 527 132 480 112 q 608 195 574 152 l 608 635 q 478 650 551 650 q 282 584 346 650 q 217 374 217 517 q 272 173 217 234 q 426 112 326 112 m 1106 121 l 1533 121 l 1533 0 l 913 0 l 913 94 l 1332 635 l 921 635 l 921 756 l 1525 756 l 1525 661 l 1106 121 m 1345 1122 l 1463 1122 l 1288 865 l 1160 865 l 985 1122 l 1102 1122 l 1224 939 l 1345 1122 z "},"e":{"ha":783,"x_min":66,"x_max":728,"o":"m 728 332 l 217 332 q 249 199 220 249 q 335 125 278 149 q 485 102 393 102 q 688 132 578 102 l 688 17 q 465 -14 573 -14 q 165 81 264 -14 q 66 378 66 176 q 106 591 66 504 q 222 723 146 678 q 405 767 298 767 q 645 667 562 767 q 728 374 728 567 l 728 332 m 403 667 q 266 609 313 667 q 216 425 219 551 l 586 425 q 538 609 583 551 q 403 667 492 667 z "},"é":{"ha":783,"x_min":66,"x_max":728,"o":"m 728 332 l 217 332 q 249 199 220 249 q 335 125 278 149 q 485 102 393 102 q 688 132 578 102 l 688 17 q 465 -14 573 -14 q 165 81 264 -14 q 66 378 66 176 q 106 591 66 504 q 222 723 146 678 q 405 767 298 767 q 645 667 562 767 q 728 374 728 567 l 728 332 m 403 667 q 266 609 313 667 q 216 425 219 551 l 586 425 q 538 609 583 551 q 403 667 492 667 m 333 865 l 502 1122 l 666 1122 l 475 865 l 333 865 z "},"ĕ":{"ha":783,"x_min":66,"x_max":728,"o":"m 728 332 l 217 332 q 249 199 220 249 q 335 125 278 149 q 485 102 393 102 q 688 132 578 102 l 688 17 q 465 -14 573 -14 q 165 81 264 -14 q 66 378 66 176 q 106 591 66 504 q 222 723 146 678 q 405 767 298 767 q 645 667 562 767 q 728 374 728 567 l 728 332 m 403 667 q 266 609 313 667 q 216 425 219 551 l 586 425 q 538 609 583 551 q 403 667 492 667 m 405 872 q 234 934 295 872 q 167 1105 172 996 l 263 1105 q 405 955 274 955 q 506 993 472 955 q 545 1105 540 1032 l 642 1105 q 575 934 636 995 q 405 872 514 872 z "},"ě":{"ha":783,"x_min":66,"x_max":728,"o":"m 728 332 l 217 332 q 249 199 220 249 q 335 125 278 149 q 485 102 393 102 q 688 132 578 102 l 688 17 q 465 -14 573 -14 q 165 81 264 -14 q 66 378 66 176 q 106 591 66 504 q 222 723 146 678 q 405 767 298 767 q 645 667 562 767 q 728 374 728 567 l 728 332 m 403 667 q 266 609 313 667 q 216 425 219 551 l 586 425 q 538 609 583 551 q 403 667 492 667 m 526 1122 l 643 1122 l 468 865 l 340 865 l 165 1122 l 283 1122 l 404 939 l 526 1122 z "},"ḝ":{"ha":783,"x_min":66,"x_max":728,"o":"m 405 872 q 234 934 295 872 q 167 1105 172 996 l 263 1105 q 405 955 274 955 q 506 993 472 955 q 545 1105 540 1032 l 642 1105 q 575 934 636 995 q 405 872 514 872 m 728 332 l 217 332 q 249 199 220 249 q 335 125 278 149 q 485 102 393 102 q 688 132 578 102 l 688 17 q 465 -14 573 -14 l 447 -14 l 447 -68 q 533 -103 503 -74 q 563 -181 563 -133 q 522 -265 563 -235 q 406 -294 482 -294 q 339 -288 372 -294 q 279 -270 305 -281 l 279 -204 q 340 -224 308 -217 q 401 -230 372 -230 q 460 -217 440 -230 q 479 -175 479 -203 q 459 -132 479 -146 q 400 -119 440 -119 l 369 -119 l 369 -8 q 141 107 217 13 q 66 378 66 201 q 106 591 66 504 q 222 723 146 678 q 405 767 298 767 q 645 667 562 767 q 728 374 728 567 l 728 332 m 403 667 q 266 609 313 667 q 216 425 219 551 l 586 425 q 538 609 583 551 q 403 667 492 667 z "},"ê":{"ha":783,"x_min":66,"x_max":728,"o":"m 728 332 l 217 332 q 249 199 220 249 q 335 125 278 149 q 485 102 393 102 q 688 132 578 102 l 688 17 q 465 -14 573 -14 q 165 81 264 -14 q 66 378 66 176 q 106 591 66 504 q 222 723 146 678 q 405 767 298 767 q 645 667 562 767 q 728 374 728 567 l 728 332 m 403 667 q 266 609 313 667 q 216 425 219 551 l 586 425 q 538 609 583 551 q 403 667 492 667 m 640 865 l 523 865 l 404 1047 l 285 865 l 168 865 l 340 1122 l 468 1122 l 640 865 z "},"ế":{"ha":783,"x_min":66,"x_max":834,"o":"m 728 332 l 217 332 q 249 199 220 249 q 335 125 278 149 q 485 102 393 102 q 688 132 578 102 l 688 17 q 465 -14 573 -14 q 165 81 264 -14 q 66 378 66 176 q 106 591 66 504 q 222 723 146 678 q 405 767 298 767 q 645 667 562 767 q 728 374 728 567 l 728 332 m 403 667 q 266 609 313 667 q 216 425 219 551 l 586 425 q 538 609 583 551 q 403 667 492 667 m 699 1297 l 834 1297 l 673 1109 l 561 1109 l 699 1297 m 340 1122 l 468 1122 l 640 865 l 523 865 l 404 1047 l 285 865 l 168 865 l 340 1122 z "},"ệ":{"ha":783,"x_min":66,"x_max":728,"o":"m 728 332 l 217 332 q 249 199 220 249 q 335 125 278 149 q 485 102 393 102 q 688 132 578 102 l 688 17 q 465 -14 573 -14 q 165 81 264 -14 q 66 378 66 176 q 106 591 66 504 q 222 723 146 678 q 405 767 298 767 q 645 667 562 767 q 728 374 728 567 l 728 332 m 403 667 q 266 609 313 667 q 216 425 219 551 l 586 425 q 538 609 583 551 q 403 667 492 667 m 404 -268 q 339 -247 363 -268 q 316 -187 316 -225 q 339 -127 316 -149 q 404 -106 363 -106 q 469 -127 446 -106 q 492 -187 492 -149 q 469 -247 492 -225 q 404 -268 446 -268 m 640 865 l 523 865 l 404 1047 l 285 865 l 168 865 l 340 1122 l 468 1122 l 640 865 z "},"ề":{"ha":783,"x_min":66,"x_max":728,"o":"m 728 332 l 217 332 q 249 199 220 249 q 335 125 278 149 q 485 102 393 102 q 688 132 578 102 l 688 17 q 465 -14 573 -14 q 165 81 264 -14 q 66 378 66 176 q 106 591 66 504 q 222 723 146 678 q 405 767 298 767 q 645 667 562 767 q 728 374 728 567 l 728 332 m 403 667 q 266 609 313 667 q 216 425 219 551 l 586 425 q 538 609 583 551 q 403 667 492 667 m 693 1109 l 581 1109 l 419 1297 l 556 1297 l 693 1109 m 340 1122 l 468 1122 l 640 865 l 523 865 l 404 1047 l 285 865 l 168 865 l 340 1122 z "},"ể":{"ha":783,"x_min":66,"x_max":758,"o":"m 728 332 l 217 332 q 249 199 220 249 q 335 125 278 149 q 485 102 393 102 q 688 132 578 102 l 688 17 q 465 -14 573 -14 q 165 81 264 -14 q 66 378 66 176 q 106 591 66 504 q 222 723 146 678 q 405 767 298 767 q 645 667 562 767 q 728 374 728 567 l 728 332 m 403 667 q 266 609 313 667 q 216 425 219 551 l 586 425 q 538 609 583 551 q 403 667 492 667 m 607 1304 q 758 1225 758 1304 q 743 1186 758 1200 q 697 1159 727 1173 q 657 1137 671 1147 q 641 1109 643 1126 l 562 1109 q 582 1153 563 1138 q 634 1183 601 1169 q 666 1199 656 1192 q 676 1217 676 1206 q 658 1239 676 1231 q 598 1247 640 1247 q 463 1227 528 1247 l 463 1284 q 529 1299 490 1293 q 607 1304 567 1304 m 340 1122 l 468 1122 l 640 865 l 523 865 l 404 1047 l 285 865 l 168 865 l 340 1122 z "},"ễ":{"ha":783,"x_min":66,"x_max":728,"o":"m 728 332 l 217 332 q 249 199 220 249 q 335 125 278 149 q 485 102 393 102 q 688 132 578 102 l 688 17 q 465 -14 573 -14 q 165 81 264 -14 q 66 378 66 176 q 106 591 66 504 q 222 723 146 678 q 405 767 298 767 q 645 667 562 767 q 728 374 728 567 l 728 332 m 403 667 q 266 609 313 667 q 216 425 219 551 l 586 425 q 538 609 583 551 q 403 667 492 667 m 517 1142 q 458 1149 486 1142 q 393 1168 429 1156 q 335 1185 358 1180 q 290 1191 313 1191 q 221 1180 251 1191 q 161 1145 191 1169 l 161 1228 q 292 1272 210 1272 q 351 1265 322 1272 q 415 1246 379 1258 q 473 1228 451 1234 q 519 1223 495 1223 q 587 1234 557 1223 q 647 1268 617 1244 l 647 1185 q 591 1152 623 1163 q 517 1142 559 1142 m 651 866 l 529 866 l 404 1037 l 279 866 l 157 866 l 338 1101 l 471 1101 l 651 866 z "},"ȅ":{"ha":783,"x_min":66,"x_max":728,"o":"m 728 332 l 217 332 q 249 199 220 249 q 335 125 278 149 q 485 102 393 102 q 688 132 578 102 l 688 17 q 465 -14 573 -14 q 165 81 264 -14 q 66 378 66 176 q 106 591 66 504 q 222 723 146 678 q 405 767 298 767 q 645 667 562 767 q 728 374 728 567 l 728 332 m 403 667 q 266 609 313 667 q 216 425 219 551 l 586 425 q 538 609 583 551 q 403 667 492 667 m 217 865 l 97 1122 l 220 1122 l 331 865 l 217 865 m 477 865 l 358 1122 l 481 1122 l 592 865 l 477 865 z "},"ë":{"ha":783,"x_min":66,"x_max":728,"o":"m 728 332 l 217 332 q 249 199 220 249 q 335 125 278 149 q 485 102 393 102 q 688 132 578 102 l 688 17 q 465 -14 573 -14 q 165 81 264 -14 q 66 378 66 176 q 106 591 66 504 q 222 723 146 678 q 405 767 298 767 q 645 667 562 767 q 728 374 728 567 l 728 332 m 403 667 q 266 609 313 667 q 216 425 219 551 l 586 425 q 538 609 583 551 q 403 667 492 667 m 235 903 q 170 926 194 903 q 147 986 147 948 q 170 1048 147 1025 q 235 1070 194 1070 q 301 1048 278 1070 q 324 986 324 1025 q 301 926 324 948 q 235 903 278 903 m 573 903 q 508 926 531 903 q 485 986 485 948 q 508 1048 485 1025 q 573 1070 531 1070 q 638 1048 615 1070 q 661 986 661 1025 q 638 926 661 948 q 573 903 615 903 z "},"ė":{"ha":783,"x_min":66,"x_max":728,"o":"m 728 332 l 217 332 q 249 199 220 249 q 335 125 278 149 q 485 102 393 102 q 688 132 578 102 l 688 17 q 465 -14 573 -14 q 165 81 264 -14 q 66 378 66 176 q 106 591 66 504 q 222 723 146 678 q 405 767 298 767 q 645 667 562 767 q 728 374 728 567 l 728 332 m 403 667 q 266 609 313 667 q 216 425 219 551 l 586 425 q 538 609 583 551 q 403 667 492 667 m 404 902 q 331 924 356 902 q 306 986 306 946 q 331 1049 306 1027 q 404 1072 356 1072 q 477 1049 452 1072 q 502 986 502 1027 q 477 924 502 946 q 404 902 453 902 z "},"ẹ":{"ha":783,"x_min":66,"x_max":728,"o":"m 728 332 l 217 332 q 249 199 220 249 q 335 125 278 149 q 485 102 393 102 q 688 132 578 102 l 688 17 q 465 -14 573 -14 q 165 81 264 -14 q 66 378 66 176 q 106 591 66 504 q 222 723 146 678 q 405 767 298 767 q 645 667 562 767 q 728 374 728 567 l 728 332 m 403 667 q 266 609 313 667 q 216 425 219 551 l 586 425 q 538 609 583 551 q 403 667 492 667 m 404 -268 q 339 -247 363 -268 q 316 -187 316 -225 q 339 -127 316 -149 q 404 -106 363 -106 q 469 -127 446 -106 q 492 -187 492 -149 q 469 -247 492 -225 q 404 -268 446 -268 z "},"è":{"ha":783,"x_min":66,"x_max":728,"o":"m 728 332 l 217 332 q 249 199 220 249 q 335 125 278 149 q 485 102 393 102 q 688 132 578 102 l 688 17 q 465 -14 573 -14 q 165 81 264 -14 q 66 378 66 176 q 106 591 66 504 q 222 723 146 678 q 405 767 298 767 q 645 667 562 767 q 728 374 728 567 l 728 332 m 403 667 q 266 609 313 667 q 216 425 219 551 l 586 425 q 538 609 583 551 q 403 667 492 667 m 333 865 l 142 1122 l 306 1122 l 475 865 l 333 865 z "},"ẻ":{"ha":783,"x_min":66,"x_max":728,"o":"m 728 332 l 217 332 q 249 199 220 249 q 335 125 278 149 q 485 102 393 102 q 688 132 578 102 l 688 17 q 465 -14 573 -14 q 165 81 264 -14 q 66 378 66 176 q 106 591 66 504 q 222 723 146 678 q 405 767 298 767 q 645 667 562 767 q 728 374 728 567 l 728 332 m 403 667 q 266 609 313 667 q 216 425 219 551 l 586 425 q 538 609 583 551 q 403 667 492 667 m 363 865 q 374 912 363 892 q 398 944 384 932 q 433 970 412 956 q 466 997 456 986 q 476 1022 476 1007 q 457 1055 476 1044 q 394 1065 438 1065 q 278 1048 335 1065 l 278 1113 q 336 1126 302 1122 q 401 1131 370 1131 q 522 1105 483 1131 q 561 1030 561 1080 q 553 991 561 1007 q 533 964 544 974 q 501 939 522 953 q 461 906 475 921 q 446 865 448 890 l 363 865 z "},"ȇ":{"ha":783,"x_min":66,"x_max":728,"o":"m 728 332 l 217 332 q 249 199 220 249 q 335 125 278 149 q 485 102 393 102 q 688 132 578 102 l 688 17 q 465 -14 573 -14 q 165 81 264 -14 q 66 378 66 176 q 106 591 66 504 q 222 723 146 678 q 405 767 298 767 q 645 667 562 767 q 728 374 728 567 l 728 332 m 403 667 q 266 609 313 667 q 216 425 219 551 l 586 425 q 538 609 583 551 q 403 667 492 667 m 167 885 q 233 1056 172 995 q 403 1117 293 1117 q 574 1056 513 1117 q 642 885 636 994 l 545 885 q 403 1035 534 1035 q 302 997 336 1035 q 263 885 268 958 l 167 885 z "},"ē":{"ha":783,"x_min":66,"x_max":728,"o":"m 728 332 l 217 332 q 249 199 220 249 q 335 125 278 149 q 485 102 393 102 q 688 132 578 102 l 688 17 q 465 -14 573 -14 q 165 81 264 -14 q 66 378 66 176 q 106 591 66 504 q 222 723 146 678 q 405 767 298 767 q 645 667 562 767 q 728 374 728 567 l 728 332 m 403 667 q 266 609 313 667 q 216 425 219 551 l 586 425 q 538 609 583 551 q 403 667 492 667 m 168 940 l 168 1034 l 640 1034 l 640 940 l 168 940 z "},"ḗ":{"ha":783,"x_min":66,"x_max":728,"o":"m 728 332 l 217 332 q 249 199 220 249 q 335 125 278 149 q 485 102 393 102 q 688 132 578 102 l 688 17 q 465 -14 573 -14 q 165 81 264 -14 q 66 378 66 176 q 106 591 66 504 q 222 723 146 678 q 405 767 298 767 q 645 667 562 767 q 728 374 728 567 l 728 332 m 403 667 q 266 609 313 667 q 216 425 219 551 l 586 425 q 538 609 583 551 q 403 667 492 667 m 168 940 l 168 1034 l 640 1034 l 640 940 l 168 940 m 334 1132 l 472 1333 l 634 1333 l 472 1132 l 334 1132 z "},"ḕ":{"ha":783,"x_min":66,"x_max":728,"o":"m 728 332 l 217 332 q 249 199 220 249 q 335 125 278 149 q 485 102 393 102 q 688 132 578 102 l 688 17 q 465 -14 573 -14 q 165 81 264 -14 q 66 378 66 176 q 106 591 66 504 q 222 723 146 678 q 405 767 298 767 q 645 667 562 767 q 728 374 728 567 l 728 332 m 403 667 q 266 609 313 667 q 216 425 219 551 l 586 425 q 538 609 583 551 q 403 667 492 667 m 168 940 l 168 1034 l 640 1034 l 640 940 l 168 940 m 335 1132 l 174 1333 l 336 1333 l 474 1132 l 335 1132 z "},"ę":{"ha":783,"x_min":66,"x_max":728,"o":"m 728 332 l 217 332 q 249 199 220 249 q 335 125 278 149 q 485 102 393 102 q 688 132 578 102 l 688 17 q 539 -60 581 -17 q 496 -151 496 -103 q 519 -207 496 -187 q 586 -228 543 -228 q 688 -202 636 -228 l 688 -269 q 569 -294 631 -294 q 448 -259 491 -294 q 405 -161 405 -223 q 491 -13 405 -70 q 465 -14 482 -14 q 165 81 264 -14 q 66 378 66 176 q 106 591 66 504 q 222 723 146 678 q 405 767 298 767 q 645 667 562 767 q 728 374 728 567 l 728 332 m 403 664 q 266 606 313 664 q 216 422 219 549 l 586 422 q 538 606 583 549 q 403 664 492 664 z "},"ẽ":{"ha":783,"x_min":66,"x_max":728,"o":"m 728 332 l 217 332 q 249 199 220 249 q 335 125 278 149 q 485 102 393 102 q 688 132 578 102 l 688 17 q 465 -14 573 -14 q 165 81 264 -14 q 66 378 66 176 q 106 591 66 504 q 222 723 146 678 q 405 767 298 767 q 645 667 562 767 q 728 374 728 567 l 728 332 m 403 667 q 266 609 313 667 q 216 425 219 551 l 586 425 q 538 609 583 551 q 403 667 492 667 m 512 920 q 455 928 483 920 q 392 952 428 937 q 338 973 360 966 q 294 979 316 979 q 227 966 257 979 q 168 925 197 953 l 168 1024 q 224 1061 193 1049 q 297 1073 256 1073 q 353 1065 326 1073 q 416 1041 381 1056 q 470 1020 449 1027 q 514 1014 492 1014 q 581 1027 551 1014 q 640 1069 611 1040 l 640 969 q 584 932 615 944 q 512 920 552 920 z "},"ə":{"ha":783,"x_min":55,"x_max":717,"o":"m 318 769 q 618 675 519 769 q 717 378 717 580 q 677 164 717 251 q 561 33 637 77 q 378 -12 485 -12 q 138 89 221 -12 q 55 382 55 189 l 55 424 l 566 424 q 534 557 563 506 q 447 630 505 607 q 298 653 390 653 q 95 624 205 653 l 95 739 q 318 769 210 769 m 379 89 q 517 147 469 89 q 567 331 564 204 l 197 331 q 245 147 199 204 q 379 89 290 89 z "},"f":{"ha":555,"x_min":18,"x_max":588,"o":"m 494 1015 q 355 974 399 1015 q 311 841 311 933 l 311 756 l 556 756 l 556 635 l 311 635 l 311 0 l 161 0 l 161 635 l 18 635 l 18 756 l 161 756 l 161 834 q 241 1058 161 981 q 475 1136 322 1136 q 588 1127 528 1136 l 588 1006 q 494 1015 540 1015 z "},"g":{"ha":865,"x_min":66,"x_max":758,"o":"m 369 -319 q 241 -310 308 -319 q 117 -284 175 -301 l 117 -163 q 360 -201 245 -201 q 502 -179 447 -201 q 582 -107 556 -156 q 608 23 608 -58 l 608 83 l 601 83 q 503 17 560 40 q 376 -7 447 -7 q 218 32 288 -7 q 107 155 148 72 q 66 363 66 238 q 172 665 66 562 q 485 767 278 767 q 626 757 555 767 q 758 728 698 747 l 758 49 q 716 -162 758 -81 q 588 -281 673 -243 q 369 -319 502 -319 m 425 117 q 526 136 478 117 q 608 194 574 156 l 608 634 q 472 650 546 650 q 281 583 345 650 q 217 376 217 517 q 272 177 217 236 q 425 117 327 117 z "},"ǵ":{"ha":865,"x_min":66,"x_max":758,"o":"m 369 -319 q 241 -310 308 -319 q 117 -284 175 -301 l 117 -163 q 360 -201 245 -201 q 502 -179 447 -201 q 582 -107 556 -156 q 608 23 608 -58 l 608 83 l 601 83 q 503 17 560 40 q 376 -7 447 -7 q 218 32 288 -7 q 107 155 148 72 q 66 363 66 238 q 172 665 66 562 q 485 767 278 767 q 626 757 555 767 q 758 728 698 747 l 758 49 q 716 -162 758 -81 q 588 -281 673 -243 q 369 -319 502 -319 m 425 117 q 526 136 478 117 q 608 194 574 156 l 608 634 q 472 650 546 650 q 281 583 345 650 q 217 376 217 517 q 272 177 217 236 q 425 117 327 117 m 377 865 l 546 1122 l 710 1122 l 519 865 l 377 865 z "},"ğ":{"ha":865,"x_min":66,"x_max":758,"o":"m 369 -319 q 241 -310 308 -319 q 117 -284 175 -301 l 117 -163 q 360 -201 245 -201 q 502 -179 447 -201 q 582 -107 556 -156 q 608 23 608 -58 l 608 83 l 601 83 q 503 17 560 40 q 376 -7 447 -7 q 218 32 288 -7 q 107 155 148 72 q 66 363 66 238 q 172 665 66 562 q 485 767 278 767 q 626 757 555 767 q 758 728 698 747 l 758 49 q 716 -162 758 -81 q 588 -281 673 -243 q 369 -319 502 -319 m 425 117 q 526 136 478 117 q 608 194 574 156 l 608 634 q 472 650 546 650 q 281 583 345 650 q 217 376 217 517 q 272 177 217 236 q 425 117 327 117 m 449 872 q 277 934 339 872 q 210 1105 216 996 l 307 1105 q 449 955 318 955 q 550 993 516 955 q 589 1105 584 1032 l 685 1105 q 619 934 680 995 q 449 872 558 872 z "},"ǧ":{"ha":865,"x_min":66,"x_max":758,"o":"m 369 -319 q 241 -310 308 -319 q 117 -284 175 -301 l 117 -163 q 360 -201 245 -201 q 502 -179 447 -201 q 582 -107 556 -156 q 608 23 608 -58 l 608 83 l 601 83 q 503 17 560 40 q 376 -7 447 -7 q 218 32 288 -7 q 107 155 148 72 q 66 363 66 238 q 172 665 66 562 q 485 767 278 767 q 626 757 555 767 q 758 728 698 747 l 758 49 q 716 -162 758 -81 q 588 -281 673 -243 q 369 -319 502 -319 m 425 117 q 526 136 478 117 q 608 194 574 156 l 608 634 q 472 650 546 650 q 281 583 345 650 q 217 376 217 517 q 272 177 217 236 q 425 117 327 117 m 569 1122 l 687 1122 l 512 865 l 384 865 l 209 1122 l 326 1122 l 448 939 l 569 1122 z "},"ĝ":{"ha":865,"x_min":66,"x_max":758,"o":"m 369 -319 q 241 -310 308 -319 q 117 -284 175 -301 l 117 -163 q 360 -201 245 -201 q 502 -179 447 -201 q 582 -107 556 -156 q 608 23 608 -58 l 608 83 l 601 83 q 503 17 560 40 q 376 -7 447 -7 q 218 32 288 -7 q 107 155 148 72 q 66 363 66 238 q 172 665 66 562 q 485 767 278 767 q 626 757 555 767 q 758 728 698 747 l 758 49 q 716 -162 758 -81 q 588 -281 673 -243 q 369 -319 502 -319 m 425 117 q 526 136 478 117 q 608 194 574 156 l 608 634 q 472 650 546 650 q 281 583 345 650 q 217 376 217 517 q 272 177 217 236 q 425 117 327 117 m 684 865 l 567 865 l 448 1047 l 329 865 l 212 865 l 384 1122 l 512 1122 l 684 865 z "},"ģ":{"ha":865,"x_min":66,"x_max":758,"o":"m 369 -319 q 241 -310 308 -319 q 117 -284 175 -301 l 117 -163 q 360 -201 245 -201 q 502 -179 447 -201 q 582 -107 556 -156 q 608 23 608 -58 l 608 83 l 601 83 q 503 17 560 40 q 376 -7 447 -7 q 218 32 288 -7 q 107 155 148 72 q 66 363 66 238 q 172 665 66 562 q 485 767 278 767 q 626 757 555 767 q 758 728 698 747 l 758 49 q 716 -162 758 -81 q 588 -281 673 -243 q 369 -319 502 -319 m 425 117 q 526 136 478 117 q 608 194 574 156 l 608 634 q 472 650 546 650 q 281 583 345 650 q 217 376 217 517 q 272 177 217 236 q 425 117 327 117 m 462 1030 q 520 1011 501 1027 q 539 967 539 994 q 516 920 539 938 q 449 903 494 903 q 357 988 357 903 q 369 1059 357 1021 q 401 1128 381 1097 l 494 1128 q 462 1030 468 1074 z "},"ġ":{"ha":865,"x_min":66,"x_max":758,"o":"m 369 -319 q 241 -310 308 -319 q 117 -284 175 -301 l 117 -163 q 360 -201 245 -201 q 502 -179 447 -201 q 582 -107 556 -156 q 608 23 608 -58 l 608 83 l 601 83 q 503 17 560 40 q 376 -7 447 -7 q 218 32 288 -7 q 107 155 148 72 q 66 363 66 238 q 172 665 66 562 q 485 767 278 767 q 626 757 555 767 q 758 728 698 747 l 758 49 q 716 -162 758 -81 q 588 -281 673 -243 q 369 -319 502 -319 m 425 117 q 526 136 478 117 q 608 194 574 156 l 608 634 q 472 650 546 650 q 281 583 345 650 q 217 376 217 517 q 272 177 217 236 q 425 117 327 117 m 448 902 q 375 924 399 902 q 350 986 350 946 q 375 1049 350 1027 q 448 1072 400 1072 q 521 1049 496 1072 q 546 986 546 1027 q 521 924 546 946 q 448 902 497 902 z "},"ḡ":{"ha":865,"x_min":66,"x_max":758,"o":"m 369 -319 q 241 -310 308 -319 q 117 -284 175 -301 l 117 -163 q 360 -201 245 -201 q 502 -179 447 -201 q 582 -107 556 -156 q 608 23 608 -58 l 608 83 l 601 83 q 503 17 560 40 q 376 -7 447 -7 q 218 32 288 -7 q 107 155 148 72 q 66 363 66 238 q 172 665 66 562 q 485 767 278 767 q 626 757 555 767 q 758 728 698 747 l 758 49 q 716 -162 758 -81 q 588 -281 673 -243 q 369 -319 502 -319 m 425 117 q 526 136 478 117 q 608 194 574 156 l 608 634 q 472 650 546 650 q 281 583 345 650 q 217 376 217 517 q 272 177 217 236 q 425 117 327 117 m 212 940 l 212 1034 l 684 1034 l 684 940 l 212 940 z "},"h":{"ha":865,"x_min":106,"x_max":768,"o":"m 106 1122 l 256 1122 l 256 674 l 264 674 q 374 744 312 720 q 507 767 436 767 q 698 697 627 767 q 768 478 768 627 l 768 0 l 618 0 l 618 469 q 577 598 618 559 q 461 636 537 636 q 349 614 403 636 q 256 547 294 592 l 256 0 l 106 0 l 106 1122 z "},"ħ":{"ha":865,"x_min":6,"x_max":768,"o":"m 507 767 q 698 697 627 767 q 768 478 768 627 l 768 0 l 618 0 l 618 469 q 577 598 618 559 q 461 636 537 636 q 349 614 403 636 q 256 547 294 592 l 256 0 l 106 0 l 106 892 l 6 892 l 6 989 l 106 989 l 106 1122 l 256 1122 l 256 989 l 524 989 l 524 892 l 256 892 l 256 674 l 264 674 q 374 744 312 720 q 507 767 436 767 z "},"ḫ":{"ha":865,"x_min":106,"x_max":768,"o":"m 106 1122 l 256 1122 l 256 674 l 264 674 q 374 744 312 720 q 507 767 436 767 q 698 697 627 767 q 768 478 768 627 l 768 0 l 618 0 l 618 469 q 577 598 618 559 q 461 636 537 636 q 349 614 403 636 q 256 547 294 592 l 256 0 l 106 0 l 106 1122 m 438 -300 q 311 -276 364 -300 q 230 -208 258 -251 q 200 -105 202 -164 l 297 -105 q 334 -188 299 -159 q 438 -217 369 -217 q 578 -105 573 -217 l 675 -105 q 611 -248 672 -195 q 438 -300 550 -300 z "},"ĥ":{"ha":865,"x_min":106,"x_max":768,"o":"m 106 1122 l 256 1122 l 256 674 l 264 674 q 374 744 312 720 q 507 767 436 767 q 698 697 627 767 q 768 478 768 627 l 768 0 l 618 0 l 618 469 q 577 598 618 559 q 461 636 537 636 q 349 614 403 636 q 256 547 294 592 l 256 0 l 106 0 l 106 1122 m 694 1181 l 567 1181 l 438 1320 l 308 1181 l 181 1181 l 371 1382 l 504 1382 l 694 1181 z "},"ḥ":{"ha":865,"x_min":106,"x_max":768,"o":"m 106 1122 l 256 1122 l 256 674 l 264 674 q 374 744 312 720 q 507 767 436 767 q 698 697 627 767 q 768 478 768 627 l 768 0 l 618 0 l 618 469 q 577 598 618 559 q 461 636 537 636 q 349 614 403 636 q 256 547 294 592 l 256 0 l 106 0 l 106 1122 m 438 -268 q 373 -247 396 -268 q 349 -187 349 -225 q 373 -127 349 -149 q 438 -106 396 -106 q 502 -127 479 -106 q 526 -187 526 -149 q 502 -247 526 -225 q 438 -268 479 -268 z "},"i":{"ha":363,"x_min":83,"x_max":279,"o":"m 106 0 l 106 756 l 256 756 l 256 0 l 106 0 m 181 902 q 108 924 133 902 q 83 986 83 946 q 108 1049 83 1027 q 181 1072 133 1072 q 254 1049 229 1072 q 279 986 279 1027 q 255 924 279 946 q 181 902 230 902 z "},"ı":{"ha":363,"x_min":106,"x_max":256,"o":"m 106 0 l 106 756 l 256 756 l 256 0 l 106 0 z "},"í":{"ha":363,"x_min":106,"x_max":443,"o":"m 106 0 l 106 756 l 256 756 l 256 0 l 106 0 m 110 865 l 279 1122 l 443 1122 l 252 865 l 110 865 z "},"ĭ":{"ha":363,"x_min":-56,"x_max":419,"o":"m 106 0 l 106 756 l 256 756 l 256 0 l 106 0 m 182 872 q 11 934 72 872 q -56 1105 -51 996 l 40 1105 q 182 955 51 955 q 283 993 249 955 q 322 1105 317 1032 l 419 1105 q 352 934 413 995 q 182 872 291 872 z "},"î":{"ha":363,"x_min":-55,"x_max":417,"o":"m 106 0 l 106 756 l 256 756 l 256 0 l 106 0 m 417 865 l 300 865 l 181 1047 l 63 865 l -55 865 l 117 1122 l 245 1122 l 417 865 z "},"ȉ":{"ha":363,"x_min":-126,"x_max":369,"o":"m 106 0 l 106 756 l 256 756 l 256 0 l 106 0 m -6 865 l -126 1122 l -3 1122 l 108 865 l -6 865 m 254 865 l 135 1122 l 258 1122 l 369 865 l 254 865 z "},"ï":{"ha":363,"x_min":-76,"x_max":438,"o":"m 106 0 l 106 756 l 256 756 l 256 0 l 106 0 m 13 903 q -52 926 -29 903 q -76 986 -76 948 q -52 1048 -76 1025 q 13 1070 -29 1070 q 78 1048 55 1070 q 101 986 101 1025 q 78 926 101 948 q 13 903 55 903 m 350 903 q 285 926 308 903 q 262 986 262 948 q 285 1048 262 1025 q 350 1070 308 1070 q 415 1048 392 1070 q 438 986 438 1025 q 415 926 438 948 q 350 903 392 903 z "},"ḯ":{"ha":363,"x_min":-76,"x_max":468,"o":"m 106 0 l 106 756 l 256 756 l 256 0 l 106 0 m 13 903 q -52 926 -29 903 q -76 986 -76 948 q -52 1048 -76 1025 q 13 1070 -29 1070 q 78 1048 55 1070 q 101 986 101 1025 q 78 926 101 948 q 13 903 55 903 m 350 903 q 285 926 308 903 q 262 986 262 948 q 285 1048 262 1025 q 350 1070 308 1070 q 415 1048 392 1070 q 438 986 438 1025 q 415 926 438 948 q 350 903 392 903 m 168 1276 l 306 1478 l 468 1478 l 306 1276 l 168 1276 z "},"ị":{"ha":363,"x_min":83,"x_max":279,"o":"m 106 0 l 106 756 l 256 756 l 256 0 l 106 0 m 181 902 q 108 924 133 902 q 83 986 83 946 q 108 1049 83 1027 q 181 1072 133 1072 q 254 1049 229 1072 q 279 986 279 1027 q 255 924 279 946 q 181 902 230 902 m 181 -268 q 116 -247 140 -268 q 93 -187 93 -225 q 116 -127 93 -149 q 181 -106 140 -106 q 246 -127 223 -106 q 269 -187 269 -149 q 246 -247 269 -225 q 181 -268 223 -268 z "},"ì":{"ha":363,"x_min":-81,"x_max":256,"o":"m 106 0 l 106 756 l 256 756 l 256 0 l 106 0 m 110 865 l -81 1122 l 83 1122 l 252 865 l 110 865 z "},"ỉ":{"ha":363,"x_min":55,"x_max":338,"o":"m 106 0 l 106 756 l 256 756 l 256 0 l 106 0 m 140 865 q 151 912 140 892 q 175 944 161 932 q 210 970 189 956 q 243 997 233 986 q 253 1022 253 1007 q 234 1055 253 1044 q 172 1065 215 1065 q 55 1048 112 1065 l 55 1113 q 113 1126 79 1122 q 178 1131 147 1131 q 299 1105 260 1131 q 338 1030 338 1080 q 330 991 338 1007 q 310 964 322 974 q 278 939 299 953 q 239 906 252 921 q 223 865 225 890 l 140 865 z "},"ȋ":{"ha":363,"x_min":-56,"x_max":419,"o":"m 106 0 l 106 756 l 256 756 l 256 0 l 106 0 m -56 885 q 10 1056 -51 995 q 181 1117 70 1117 q 351 1056 290 1117 q 419 885 413 994 l 322 885 q 181 1035 311 1035 q 79 997 113 1035 q 40 885 45 958 l -56 885 z "},"ī":{"ha":363,"x_min":-55,"x_max":417,"o":"m 106 0 l 106 756 l 256 756 l 256 0 l 106 0 m -55 940 l -55 1034 l 417 1034 l 417 940 l -55 940 z "},"į":{"ha":363,"x_min":25,"x_max":307,"o":"m 181 902 q 108 924 133 902 q 83 986 83 946 q 108 1049 83 1027 q 181 1072 133 1072 q 254 1049 229 1072 q 279 986 279 1027 q 255 924 279 946 q 181 902 230 902 m 206 -228 q 307 -202 256 -228 l 307 -269 q 190 -294 251 -294 q 68 -259 111 -294 q 25 -161 25 -223 q 50 -74 25 -113 q 128 0 74 -34 l 106 0 l 106 756 l 256 756 l 256 0 q 148 -72 180 -36 q 116 -152 116 -108 q 140 -208 116 -187 q 206 -228 163 -228 z "},"ĩ":{"ha":363,"x_min":-55,"x_max":417,"o":"m 106 0 l 106 756 l 256 756 l 256 0 l 106 0 m 289 920 q 232 928 260 920 q 169 952 205 937 q 115 973 137 966 q 72 979 93 979 q 4 966 34 979 q -55 925 -26 953 l -55 1024 q 1 1061 -30 1049 q 74 1073 33 1073 q 130 1065 103 1073 q 193 1041 158 1056 q 248 1020 226 1027 q 291 1014 269 1014 q 358 1027 328 1014 q 417 1069 388 1040 l 417 969 q 361 932 392 944 q 289 920 329 920 z "},"j":{"ha":363,"x_min":-19,"x_max":277,"o":"m -19 -258 q 77 -85 48 -173 q 106 119 106 3 l 106 756 l 256 756 l 256 126 q 215 -113 256 -7 q 78 -324 174 -219 l -19 -258 m 179 906 q 106 928 131 906 q 81 990 81 950 q 106 1053 81 1031 q 179 1076 131 1076 q 252 1053 227 1076 q 277 990 277 1031 q 252 928 277 950 q 179 906 228 906 z "},"ȷ":{"ha":363,"x_min":-19,"x_max":256,"o":"m -19 -258 q 77 -85 48 -173 q 106 119 106 3 l 106 756 l 256 756 l 256 126 q 215 -113 256 -7 q 78 -324 174 -219 l -19 -258 z "},"ĵ":{"ha":363,"x_min":-57,"x_max":415,"o":"m -19 -258 q 77 -85 48 -173 q 106 119 106 3 l 106 756 l 256 756 l 256 126 q 215 -113 256 -7 q 78 -324 174 -219 l -19 -258 m 415 869 l 298 869 l 179 1051 l 60 869 l -57 869 l 115 1126 l 243 1126 l 415 869 z "},"k":{"ha":801,"x_min":106,"x_max":817,"o":"m 649 0 l 389 326 l 256 326 l 256 0 l 106 0 l 106 1122 l 256 1122 l 256 449 l 388 449 l 628 756 l 793 756 l 511 390 l 817 0 l 649 0 z "},"ķ":{"ha":801,"x_min":106,"x_max":817,"o":"m 649 0 l 389 326 l 256 326 l 256 0 l 106 0 l 106 1122 l 256 1122 l 256 449 l 388 449 l 628 756 l 793 756 l 511 390 l 817 0 l 649 0 m 422 -106 q 515 -190 515 -106 q 503 -261 515 -223 q 470 -331 491 -299 l 378 -331 q 410 -232 403 -276 q 352 -213 371 -229 q 333 -169 333 -197 q 355 -123 333 -140 q 422 -106 378 -106 z "},"ĸ":{"ha":801,"x_min":106,"x_max":817,"o":"m 649 0 l 389 326 l 256 326 l 256 0 l 106 0 l 106 756 l 256 756 l 256 449 l 388 449 l 628 756 l 793 756 l 511 390 l 817 0 l 649 0 z "},"l":{"ha":363,"x_min":106,"x_max":256,"o":"m 106 0 l 106 1122 l 256 1122 l 256 0 l 106 0 z "},"ĺ":{"ha":363,"x_min":106,"x_max":411,"o":"m 106 0 l 106 1122 l 256 1122 l 256 0 l 106 0 m 111 1181 l 249 1382 l 411 1382 l 249 1181 l 111 1181 z "},"ľ":{"ha":363,"x_min":106,"x_max":442,"o":"m 106 0 l 106 1122 l 256 1122 l 256 0 l 106 0 m 319 819 q 337 1122 337 947 l 442 1122 q 432 964 442 1044 q 403 819 422 885 l 319 819 z "},"ļ":{"ha":363,"x_min":90,"x_max":272,"o":"m 106 0 l 106 1122 l 256 1122 l 256 0 l 106 0 m 179 -106 q 272 -190 272 -106 q 260 -261 272 -223 q 227 -331 248 -299 l 135 -331 q 167 -232 160 -276 q 109 -213 128 -229 q 90 -169 90 -197 q 112 -123 90 -140 q 179 -106 135 -106 z "},"ŀ":{"ha":484,"x_min":106,"x_max":515,"o":"m 106 0 l 106 1122 l 256 1122 l 256 0 l 106 0 m 417 467 q 344 489 369 467 q 319 551 319 510 q 344 613 319 591 q 417 635 369 635 q 490 613 465 635 q 515 551 515 591 q 490 489 515 510 q 417 467 465 467 z "},"ḷ":{"ha":363,"x_min":92,"x_max":269,"o":"m 106 0 l 106 1122 l 256 1122 l 256 0 l 106 0 m 181 -268 q 116 -247 139 -268 q 92 -187 92 -225 q 116 -127 92 -149 q 181 -106 139 -106 q 245 -127 222 -106 q 269 -187 269 -149 q 245 -247 269 -225 q 181 -268 222 -268 z "},"ǉ":{"ha":725,"x_min":106,"x_max":640,"o":"m 106 0 l 106 1122 l 256 1122 l 256 0 l 106 0 m 344 -258 q 440 -85 410 -173 q 469 119 469 3 l 469 756 l 619 756 l 619 126 q 577 -113 619 -7 q 441 -324 536 -219 l 344 -258 m 542 906 q 468 928 493 906 q 444 990 444 950 q 469 1053 444 1031 q 542 1076 494 1076 q 615 1053 590 1076 q 640 990 640 1031 q 615 928 640 950 q 542 906 590 906 z "},"ḻ":{"ha":363,"x_min":-41,"x_max":402,"o":"m 106 0 l 106 1122 l 256 1122 l 256 0 l 106 0 m -41 -233 l -41 -140 l 402 -140 l 402 -233 l -41 -233 z "},"ł":{"ha":363,"x_min":-17,"x_max":381,"o":"m 381 564 l 256 485 l 256 0 l 106 0 l 106 391 l 31 344 l -17 428 l 106 506 l 106 1122 l 256 1122 l 256 599 l 333 648 l 381 564 z "},"m":{"ha":1272,"x_min":106,"x_max":1174,"o":"m 924 767 q 1107 698 1040 767 q 1174 478 1174 628 l 1174 0 l 1024 0 l 1024 470 q 988 598 1024 559 q 885 637 951 637 q 791 617 837 637 q 712 555 745 597 q 717 481 717 524 l 717 0 l 569 0 l 569 470 q 534 598 569 560 q 434 637 499 637 q 337 614 384 637 q 256 546 290 591 l 256 0 l 106 0 l 106 756 l 231 756 l 241 672 l 249 672 q 352 743 294 719 q 478 767 410 767 q 678 661 619 767 q 795 742 731 716 q 924 767 858 767 z "},"ṃ":{"ha":1272,"x_min":106,"x_max":1174,"o":"m 924 767 q 1107 698 1040 767 q 1174 478 1174 628 l 1174 0 l 1024 0 l 1024 470 q 988 598 1024 559 q 885 637 951 637 q 791 617 837 637 q 712 555 745 597 q 717 481 717 524 l 717 0 l 569 0 l 569 470 q 534 598 569 560 q 434 637 499 637 q 337 614 384 637 q 256 546 290 591 l 256 0 l 106 0 l 106 756 l 231 756 l 241 672 l 249 672 q 352 743 294 719 q 478 767 410 767 q 678 661 619 767 q 795 742 731 716 q 924 767 858 767 m 643 -268 q 578 -247 601 -268 q 555 -187 555 -225 q 578 -127 555 -149 q 643 -106 601 -106 q 708 -127 685 -106 q 731 -187 731 -149 q 708 -247 731 -225 q 643 -268 685 -268 z "},"n":{"ha":865,"x_min":106,"x_max":768,"o":"m 106 756 l 231 756 l 241 672 l 249 672 q 364 743 299 718 q 500 767 428 767 q 697 697 625 767 q 768 476 768 626 l 768 0 l 618 0 l 618 469 q 578 598 618 559 q 461 637 538 637 q 350 615 405 637 q 256 548 295 593 l 256 0 l 106 0 l 106 756 z "},"ń":{"ha":865,"x_min":106,"x_max":768,"o":"m 106 756 l 231 756 l 241 672 l 249 672 q 364 743 299 718 q 500 767 428 767 q 697 697 625 767 q 768 476 768 626 l 768 0 l 618 0 l 618 469 q 578 598 618 559 q 461 637 538 637 q 350 615 405 637 q 256 548 295 593 l 256 0 l 106 0 l 106 756 m 367 865 l 535 1122 l 699 1122 l 508 865 l 367 865 z "},"ŉ":{"ha":865,"x_min":9,"x_max":768,"o":"m 106 756 l 231 756 l 241 672 l 249 672 q 364 743 299 718 q 500 767 428 767 q 697 697 625 767 q 768 476 768 626 l 768 0 l 618 0 l 618 469 q 578 598 618 559 q 461 637 538 637 q 350 615 405 637 q 256 548 295 593 l 256 0 l 106 0 l 106 756 m 99 1128 q 191 1044 191 1128 q 179 973 191 1011 q 147 903 167 935 l 54 903 q 86 1002 80 959 q 28 1021 47 1005 q 9 1065 9 1038 q 32 1112 9 1095 q 99 1128 54 1128 z "},"ň":{"ha":865,"x_min":106,"x_max":768,"o":"m 106 756 l 231 756 l 241 672 l 249 672 q 364 743 299 718 q 500 767 428 767 q 697 697 625 767 q 768 476 768 626 l 768 0 l 618 0 l 618 469 q 578 598 618 559 q 461 637 538 637 q 350 615 405 637 q 256 548 295 593 l 256 0 l 106 0 l 106 756 m 559 1122 l 676 1122 l 501 865 l 374 865 l 199 1122 l 316 1122 l 438 939 l 559 1122 z "},"ņ":{"ha":865,"x_min":106,"x_max":768,"o":"m 106 756 l 231 756 l 241 672 l 249 672 q 364 743 299 718 q 500 767 428 767 q 697 697 625 767 q 768 476 768 626 l 768 0 l 618 0 l 618 469 q 578 598 618 559 q 461 637 538 637 q 350 615 405 637 q 256 548 295 593 l 256 0 l 106 0 l 106 756 m 436 -106 q 528 -190 528 -106 q 517 -261 528 -223 q 484 -331 505 -299 l 392 -331 q 424 -232 417 -276 q 366 -213 385 -229 q 347 -169 347 -197 q 369 -123 347 -140 q 436 -106 392 -106 z "},"ṅ":{"ha":865,"x_min":106,"x_max":768,"o":"m 106 756 l 231 756 l 241 672 l 249 672 q 364 743 299 718 q 500 767 428 767 q 697 697 625 767 q 768 476 768 626 l 768 0 l 618 0 l 618 469 q 578 598 618 559 q 461 637 538 637 q 350 615 405 637 q 256 548 295 593 l 256 0 l 106 0 l 106 756 m 438 902 q 364 924 389 902 q 340 986 340 946 q 365 1049 340 1027 q 438 1072 390 1072 q 510 1049 485 1072 q 535 986 535 1027 q 511 924 535 946 q 438 902 486 902 z "},"ṇ":{"ha":865,"x_min":106,"x_max":768,"o":"m 106 756 l 231 756 l 241 672 l 249 672 q 364 743 299 718 q 500 767 428 767 q 697 697 625 767 q 768 476 768 626 l 768 0 l 618 0 l 618 469 q 578 598 618 559 q 461 637 538 637 q 350 615 405 637 q 256 548 295 593 l 256 0 l 106 0 l 106 756 m 438 -268 q 373 -247 396 -268 q 349 -187 349 -225 q 373 -127 349 -149 q 438 -106 396 -106 q 502 -127 479 -106 q 526 -187 526 -149 q 502 -247 526 -225 q 438 -268 479 -268 z "},"ŋ":{"ha":865,"x_min":106,"x_max":768,"o":"m 493 -258 q 589 -85 560 -173 q 618 119 618 3 l 618 471 q 577 599 618 560 q 461 638 537 638 q 350 615 404 638 q 256 549 295 592 l 256 0 l 106 0 l 106 756 l 231 756 l 241 672 l 249 672 q 363 743 299 719 q 501 767 427 767 q 697 698 626 767 q 768 478 768 628 l 768 109 q 724 -119 764 -18 q 590 -324 683 -221 l 493 -258 z "},"ǌ":{"ha":1228,"x_min":106,"x_max":1142,"o":"m 106 756 l 231 756 l 241 672 l 249 672 q 364 743 299 718 q 500 767 428 767 q 697 697 625 767 q 768 476 768 626 l 768 0 l 618 0 l 618 469 q 578 598 618 559 q 461 637 538 637 q 350 615 405 637 q 256 548 295 593 l 256 0 l 106 0 l 106 756 m 847 -258 q 942 -85 913 -173 q 972 119 972 3 l 972 756 l 1122 756 l 1122 126 q 1080 -113 1122 -7 q 944 -324 1039 -219 l 847 -258 m 1044 906 q 971 928 996 906 q 947 990 947 950 q 972 1053 947 1031 q 1044 1076 997 1076 q 1117 1053 1092 1076 q 1142 990 1142 1031 q 1118 928 1142 950 q 1044 906 1093 906 z "},"ṉ":{"ha":865,"x_min":106,"x_max":768,"o":"m 106 756 l 231 756 l 241 672 l 249 672 q 364 743 299 718 q 500 767 428 767 q 697 697 625 767 q 768 476 768 626 l 768 0 l 618 0 l 618 469 q 578 598 618 559 q 461 637 538 637 q 350 615 405 637 q 256 548 295 593 l 256 0 l 106 0 l 106 756 m 216 -233 l 216 -140 l 659 -140 l 659 -233 l 216 -233 z "},"ñ":{"ha":865,"x_min":106,"x_max":768,"o":"m 106 756 l 231 756 l 241 672 l 249 672 q 364 743 299 718 q 500 767 428 767 q 697 697 625 767 q 768 476 768 626 l 768 0 l 618 0 l 618 469 q 578 598 618 559 q 461 637 538 637 q 350 615 405 637 q 256 548 295 593 l 256 0 l 106 0 l 106 756 m 545 920 q 489 928 516 920 q 426 952 461 937 q 371 973 393 966 q 328 979 349 979 q 260 966 290 979 q 201 925 231 953 l 201 1024 q 258 1061 226 1049 q 330 1073 289 1073 q 386 1065 359 1073 q 449 1041 414 1056 q 504 1020 482 1027 q 547 1014 526 1014 q 615 1027 585 1014 q 674 1069 644 1040 l 674 969 q 617 932 649 944 q 545 920 585 920 z "},"o":{"ha":849,"x_min":66,"x_max":783,"o":"m 424 -14 q 234 29 314 -14 q 110 159 153 72 q 66 377 66 247 q 160 669 66 572 q 424 767 255 767 q 689 670 594 767 q 783 377 783 572 q 739 160 783 248 q 614 30 694 73 q 424 -14 534 -14 m 424 105 q 578 168 525 105 q 631 376 631 232 q 578 585 631 522 q 424 649 525 649 q 270 585 324 649 q 217 378 217 522 q 270 169 217 233 q 424 105 323 105 z "},"ó":{"ha":849,"x_min":66,"x_max":783,"o":"m 424 -14 q 234 29 314 -14 q 110 159 153 72 q 66 377 66 247 q 160 669 66 572 q 424 767 255 767 q 689 670 594 767 q 783 377 783 572 q 739 160 783 248 q 614 30 694 73 q 424 -14 534 -14 m 424 105 q 578 168 525 105 q 631 376 631 232 q 578 585 631 522 q 424 649 525 649 q 270 585 324 649 q 217 378 217 522 q 270 169 217 233 q 424 105 323 105 m 353 865 l 522 1122 l 686 1122 l 495 865 l 353 865 z "},"ŏ":{"ha":849,"x_min":66,"x_max":783,"o":"m 424 -14 q 234 29 314 -14 q 110 159 153 72 q 66 377 66 247 q 160 669 66 572 q 424 767 255 767 q 689 670 594 767 q 783 377 783 572 q 739 160 783 248 q 614 30 694 73 q 424 -14 534 -14 m 424 105 q 578 168 525 105 q 631 376 631 232 q 578 585 631 522 q 424 649 525 649 q 270 585 324 649 q 217 378 217 522 q 270 169 217 233 q 424 105 323 105 m 425 872 q 254 934 315 872 q 187 1105 192 996 l 283 1105 q 425 955 294 955 q 526 993 492 955 q 565 1105 560 1032 l 662 1105 q 595 934 656 995 q 425 872 534 872 z "},"ô":{"ha":849,"x_min":66,"x_max":783,"o":"m 424 -14 q 234 29 314 -14 q 110 159 153 72 q 66 377 66 247 q 160 669 66 572 q 424 767 255 767 q 689 670 594 767 q 783 377 783 572 q 739 160 783 248 q 614 30 694 73 q 424 -14 534 -14 m 424 105 q 578 168 525 105 q 631 376 631 232 q 578 585 631 522 q 424 649 525 649 q 270 585 324 649 q 217 378 217 522 q 270 169 217 233 q 424 105 323 105 m 660 865 l 543 865 l 424 1047 l 306 865 l 188 865 l 360 1122 l 488 1122 l 660 865 z "},"ố":{"ha":849,"x_min":66,"x_max":854,"o":"m 424 -14 q 234 29 314 -14 q 110 159 153 72 q 66 377 66 247 q 160 669 66 572 q 424 767 255 767 q 689 670 594 767 q 783 377 783 572 q 739 160 783 248 q 614 30 694 73 q 424 -14 534 -14 m 424 105 q 578 168 525 105 q 631 376 631 232 q 578 585 631 522 q 424 649 525 649 q 270 585 324 649 q 217 378 217 522 q 270 169 217 233 q 424 105 323 105 m 719 1297 l 854 1297 l 693 1109 l 581 1109 l 719 1297 m 360 1122 l 488 1122 l 660 865 l 543 865 l 424 1047 l 306 865 l 188 865 l 360 1122 z "},"ộ":{"ha":849,"x_min":66,"x_max":783,"o":"m 424 -14 q 234 29 314 -14 q 110 159 153 72 q 66 377 66 247 q 160 669 66 572 q 424 767 255 767 q 689 670 594 767 q 783 377 783 572 q 739 160 783 248 q 614 30 694 73 q 424 -14 534 -14 m 424 105 q 578 168 525 105 q 631 376 631 232 q 578 585 631 522 q 424 649 525 649 q 270 585 324 649 q 217 378 217 522 q 270 169 217 233 q 424 105 323 105 m 424 -268 q 359 -247 383 -268 q 336 -187 336 -225 q 359 -127 336 -149 q 424 -106 383 -106 q 489 -127 466 -106 q 513 -187 513 -149 q 489 -247 513 -225 q 424 -268 466 -268 m 660 865 l 543 865 l 424 1047 l 306 865 l 188 865 l 360 1122 l 488 1122 l 660 865 z "},"ồ":{"ha":849,"x_min":66,"x_max":783,"o":"m 424 -14 q 234 29 314 -14 q 110 159 153 72 q 66 377 66 247 q 160 669 66 572 q 424 767 255 767 q 689 670 594 767 q 783 377 783 572 q 739 160 783 248 q 614 30 694 73 q 424 -14 534 -14 m 424 105 q 578 168 525 105 q 631 376 631 232 q 578 585 631 522 q 424 649 525 649 q 270 585 324 649 q 217 378 217 522 q 270 169 217 233 q 424 105 323 105 m 713 1109 l 601 1109 l 440 1297 l 576 1297 l 713 1109 m 360 1122 l 488 1122 l 660 865 l 543 865 l 424 1047 l 306 865 l 188 865 l 360 1122 z "},"ổ":{"ha":849,"x_min":66,"x_max":783,"o":"m 424 -14 q 234 29 314 -14 q 110 159 153 72 q 66 377 66 247 q 160 669 66 572 q 424 767 255 767 q 689 670 594 767 q 783 377 783 572 q 739 160 783 248 q 614 30 694 73 q 424 -14 534 -14 m 424 105 q 578 168 525 105 q 631 376 631 232 q 578 585 631 522 q 424 649 525 649 q 270 585 324 649 q 217 378 217 522 q 270 169 217 233 q 424 105 323 105 m 627 1304 q 778 1225 778 1304 q 763 1186 778 1200 q 717 1159 747 1173 q 677 1137 691 1147 q 661 1109 663 1126 l 582 1109 q 602 1153 583 1138 q 654 1183 621 1169 q 686 1199 676 1192 q 697 1217 697 1206 q 678 1239 697 1231 q 618 1247 660 1247 q 483 1227 548 1247 l 483 1284 q 549 1299 510 1293 q 627 1304 588 1304 m 360 1122 l 488 1122 l 660 865 l 543 865 l 424 1047 l 306 865 l 188 865 l 360 1122 z "},"ỗ":{"ha":849,"x_min":66,"x_max":783,"o":"m 424 -14 q 234 29 314 -14 q 110 159 153 72 q 66 377 66 247 q 160 669 66 572 q 424 767 255 767 q 689 670 594 767 q 783 377 783 572 q 739 160 783 248 q 614 30 694 73 q 424 -14 534 -14 m 424 105 q 578 168 525 105 q 631 376 631 232 q 578 585 631 522 q 424 649 525 649 q 270 585 324 649 q 217 378 217 522 q 270 169 217 233 q 424 105 323 105 m 537 1142 q 478 1149 506 1142 q 413 1168 449 1156 q 356 1185 378 1180 q 310 1191 333 1191 q 241 1180 272 1191 q 181 1145 211 1169 l 181 1228 q 312 1272 230 1272 q 371 1265 342 1272 q 435 1246 399 1258 q 493 1228 471 1234 q 539 1223 515 1223 q 607 1234 577 1223 q 667 1268 638 1244 l 667 1185 q 611 1152 643 1163 q 537 1142 579 1142 m 672 866 l 549 866 l 424 1037 l 299 866 l 177 866 l 358 1101 l 491 1101 l 672 866 z "},"ȍ":{"ha":849,"x_min":66,"x_max":783,"o":"m 424 -14 q 234 29 314 -14 q 110 159 153 72 q 66 377 66 247 q 160 669 66 572 q 424 767 255 767 q 689 670 594 767 q 783 377 783 572 q 739 160 783 248 q 614 30 694 73 q 424 -14 534 -14 m 424 105 q 578 168 525 105 q 631 376 631 232 q 578 585 631 522 q 424 649 525 649 q 270 585 324 649 q 217 378 217 522 q 270 169 217 233 q 424 105 323 105 m 237 865 l 117 1122 l 240 1122 l 351 865 l 237 865 m 497 865 l 378 1122 l 501 1122 l 612 865 l 497 865 z "},"ö":{"ha":849,"x_min":66,"x_max":783,"o":"m 424 -14 q 234 29 314 -14 q 110 159 153 72 q 66 377 66 247 q 160 669 66 572 q 424 767 255 767 q 689 670 594 767 q 783 377 783 572 q 739 160 783 248 q 614 30 694 73 q 424 -14 534 -14 m 424 105 q 578 168 525 105 q 631 376 631 232 q 578 585 631 522 q 424 649 525 649 q 270 585 324 649 q 217 378 217 522 q 270 169 217 233 q 424 105 323 105 m 256 903 q 191 926 214 903 q 167 986 167 948 q 191 1048 167 1025 q 256 1070 214 1070 q 321 1048 298 1070 q 344 986 344 1025 q 321 926 344 948 q 256 903 298 903 m 593 903 q 528 926 551 903 q 505 986 505 948 q 528 1048 505 1025 q 593 1070 551 1070 q 658 1048 635 1070 q 681 986 681 1025 q 658 926 681 948 q 593 903 635 903 z "},"ȫ":{"ha":849,"x_min":66,"x_max":783,"o":"m 424 -14 q 234 29 314 -14 q 110 159 153 72 q 66 377 66 247 q 160 669 66 572 q 424 767 255 767 q 689 670 594 767 q 783 377 783 572 q 739 160 783 248 q 614 30 694 73 q 424 -14 534 -14 m 424 105 q 578 168 525 105 q 631 376 631 232 q 578 585 631 522 q 424 649 525 649 q 270 585 324 649 q 217 378 217 522 q 270 169 217 233 q 424 105 323 105 m 256 903 q 191 926 214 903 q 167 986 167 948 q 191 1048 167 1025 q 256 1070 214 1070 q 321 1048 298 1070 q 344 986 344 1025 q 321 926 344 948 q 256 903 298 903 m 593 903 q 528 926 551 903 q 505 986 505 948 q 528 1048 505 1025 q 593 1070 551 1070 q 658 1048 635 1070 q 681 986 681 1025 q 658 926 681 948 q 593 903 635 903 m 188 1166 l 188 1260 l 660 1260 l 660 1166 l 188 1166 z "},"ȱ":{"ha":849,"x_min":66,"x_max":783,"o":"m 424 -14 q 234 29 314 -14 q 110 159 153 72 q 66 377 66 247 q 160 669 66 572 q 424 767 255 767 q 689 670 594 767 q 783 377 783 572 q 739 160 783 248 q 614 30 694 73 q 424 -14 534 -14 m 424 105 q 578 168 525 105 q 631 376 631 232 q 578 585 631 522 q 424 649 525 649 q 270 585 324 649 q 217 378 217 522 q 270 169 217 233 q 424 105 323 105 m 424 902 q 351 924 376 902 q 326 986 326 946 q 351 1049 326 1027 q 424 1072 376 1072 q 497 1049 472 1072 q 522 986 522 1027 q 498 924 522 946 q 424 902 473 902 m 188 1167 l 188 1260 l 660 1260 l 660 1167 l 188 1167 z "},"ọ":{"ha":849,"x_min":66,"x_max":783,"o":"m 424 -14 q 234 29 314 -14 q 110 159 153 72 q 66 377 66 247 q 160 669 66 572 q 424 767 255 767 q 689 670 594 767 q 783 377 783 572 q 739 160 783 248 q 614 30 694 73 q 424 -14 534 -14 m 424 105 q 578 168 525 105 q 631 376 631 232 q 578 585 631 522 q 424 649 525 649 q 270 585 324 649 q 217 378 217 522 q 270 169 217 233 q 424 105 323 105 m 424 -268 q 359 -247 383 -268 q 336 -187 336 -225 q 359 -127 336 -149 q 424 -106 383 -106 q 489 -127 466 -106 q 513 -187 513 -149 q 489 -247 513 -225 q 424 -268 466 -268 z "},"ò":{"ha":849,"x_min":66,"x_max":783,"o":"m 424 -14 q 234 29 314 -14 q 110 159 153 72 q 66 377 66 247 q 160 669 66 572 q 424 767 255 767 q 689 670 594 767 q 783 377 783 572 q 739 160 783 248 q 614 30 694 73 q 424 -14 534 -14 m 424 105 q 578 168 525 105 q 631 376 631 232 q 578 585 631 522 q 424 649 525 649 q 270 585 324 649 q 217 378 217 522 q 270 169 217 233 q 424 105 323 105 m 353 865 l 163 1122 l 326 1122 l 495 865 l 353 865 z "},"ỏ":{"ha":849,"x_min":66,"x_max":783,"o":"m 424 -14 q 234 29 314 -14 q 110 159 153 72 q 66 377 66 247 q 160 669 66 572 q 424 767 255 767 q 689 670 594 767 q 783 377 783 572 q 739 160 783 248 q 614 30 694 73 q 424 -14 534 -14 m 424 105 q 578 168 525 105 q 631 376 631 232 q 578 585 631 522 q 424 649 525 649 q 270 585 324 649 q 217 378 217 522 q 270 169 217 233 q 424 105 323 105 m 383 865 q 394 912 383 892 q 418 944 404 932 q 453 970 432 956 q 486 997 476 986 q 497 1022 497 1007 q 477 1055 497 1044 q 415 1065 458 1065 q 298 1048 355 1065 l 298 1113 q 356 1126 322 1122 q 422 1131 390 1131 q 542 1105 503 1131 q 581 1030 581 1080 q 573 991 581 1007 q 553 964 565 974 q 522 939 542 953 q 482 906 495 921 q 466 865 468 890 l 383 865 z "},"ơ":{"ha":849,"x_min":66,"x_max":807,"o":"m 670 687 q 783 377 783 589 q 739 160 783 248 q 614 30 694 73 q 424 -14 534 -14 q 234 29 314 -14 q 110 159 153 72 q 66 377 66 247 q 161 669 66 572 q 428 767 256 767 q 515 763 457 767 q 567 760 554 760 q 670 787 635 760 q 705 872 705 814 q 701 918 705 896 q 691 969 698 940 l 792 969 q 803 919 800 943 q 807 867 807 895 q 772 748 807 794 q 670 687 736 703 m 424 105 q 578 168 525 105 q 631 376 631 232 q 578 585 631 522 q 424 649 525 649 q 270 585 324 649 q 217 378 217 522 q 270 169 217 233 q 424 105 323 105 z "},"ớ":{"ha":849,"x_min":66,"x_max":807,"o":"m 677 1122 l 490 865 l 351 865 l 517 1122 l 677 1122 m 670 687 q 783 377 783 589 q 739 160 783 248 q 614 30 694 73 q 424 -14 534 -14 q 234 29 314 -14 q 110 159 153 72 q 66 377 66 247 q 161 669 66 572 q 428 767 256 767 q 515 763 457 767 q 567 760 554 760 q 670 787 635 760 q 705 872 705 814 q 701 918 705 896 q 691 969 698 940 l 792 969 q 803 919 800 943 q 807 867 807 895 q 772 748 807 794 q 670 687 736 703 m 424 105 q 578 168 525 105 q 631 376 631 232 q 578 585 631 522 q 424 649 525 649 q 270 585 324 649 q 217 378 217 522 q 270 169 217 233 q 424 105 323 105 z "},"ợ":{"ha":849,"x_min":66,"x_max":807,"o":"m 670 687 q 783 377 783 589 q 739 160 783 248 q 614 30 694 73 q 424 -14 534 -14 q 234 29 314 -14 q 110 159 153 72 q 66 377 66 247 q 161 669 66 572 q 428 767 256 767 q 515 763 457 767 q 567 760 554 760 q 670 787 635 760 q 705 872 705 814 q 701 918 705 896 q 691 969 698 940 l 792 969 q 803 919 800 943 q 807 867 807 895 q 772 748 807 794 q 670 687 736 703 m 424 105 q 578 168 525 105 q 631 376 631 232 q 578 585 631 522 q 424 649 525 649 q 270 585 324 649 q 217 378 217 522 q 270 169 217 233 q 424 105 323 105 m 422 -268 q 357 -247 381 -268 q 334 -187 334 -225 q 357 -127 334 -149 q 422 -106 381 -106 q 487 -127 464 -106 q 510 -187 510 -149 q 487 -247 510 -225 q 422 -268 464 -268 z "},"ờ":{"ha":849,"x_min":66,"x_max":807,"o":"m 670 687 q 783 377 783 589 q 739 160 783 248 q 614 30 694 73 q 424 -14 534 -14 q 234 29 314 -14 q 110 159 153 72 q 66 377 66 247 q 161 669 66 572 q 428 767 256 767 q 515 763 457 767 q 567 760 554 760 q 670 787 635 760 q 705 872 705 814 q 701 918 705 896 q 691 969 698 940 l 792 969 q 803 919 800 943 q 807 867 807 895 q 772 748 807 794 q 670 687 736 703 m 424 105 q 578 168 525 105 q 631 376 631 232 q 578 585 631 522 q 424 649 525 649 q 270 585 324 649 q 217 378 217 522 q 270 169 217 233 q 424 105 323 105 m 349 865 l 158 1122 l 322 1122 l 491 865 l 349 865 z "},"ở":{"ha":849,"x_min":66,"x_max":807,"o":"m 670 687 q 783 377 783 589 q 739 160 783 248 q 614 30 694 73 q 424 -14 534 -14 q 234 29 314 -14 q 110 159 153 72 q 66 377 66 247 q 161 669 66 572 q 428 767 256 767 q 515 763 457 767 q 567 760 554 760 q 670 787 635 760 q 705 872 705 814 q 701 918 705 896 q 691 969 698 940 l 792 969 q 803 919 800 943 q 807 867 807 895 q 772 748 807 794 q 670 687 736 703 m 424 105 q 578 168 525 105 q 631 376 631 232 q 578 585 631 522 q 424 649 525 649 q 270 585 324 649 q 217 378 217 522 q 270 169 217 233 q 424 105 323 105 m 378 865 q 390 912 379 892 q 414 944 400 932 q 449 970 428 956 q 482 997 472 986 q 492 1022 492 1007 q 473 1055 492 1044 q 410 1065 453 1065 q 294 1048 351 1065 l 294 1113 q 352 1126 318 1122 q 417 1131 386 1131 q 538 1105 499 1131 q 577 1030 577 1080 q 569 991 577 1007 q 549 964 560 974 q 517 939 538 953 q 477 906 491 921 q 462 865 464 890 l 378 865 z "},"ỡ":{"ha":849,"x_min":66,"x_max":807,"o":"m 521 920 q 467 928 492 920 q 406 951 442 936 q 354 972 376 965 q 310 979 333 979 q 246 966 276 979 q 188 925 217 953 l 188 1024 q 313 1073 236 1073 q 366 1065 341 1073 q 428 1042 392 1057 q 480 1021 459 1028 q 524 1014 501 1014 q 588 1027 558 1014 q 646 1069 617 1040 l 646 969 q 521 920 597 920 m 670 687 q 783 377 783 589 q 739 160 783 248 q 614 30 694 73 q 424 -14 534 -14 q 234 29 314 -14 q 110 159 153 72 q 66 377 66 247 q 161 669 66 572 q 428 767 256 767 q 515 763 457 767 q 567 760 554 760 q 670 787 635 760 q 705 872 705 814 q 701 918 705 896 q 691 969 698 940 l 792 969 q 803 919 800 943 q 807 867 807 895 q 772 748 807 794 q 670 687 736 703 m 424 105 q 578 168 525 105 q 631 376 631 232 q 578 585 631 522 q 424 649 525 649 q 270 585 324 649 q 217 378 217 522 q 270 169 217 233 q 424 105 323 105 z "},"ő":{"ha":849,"x_min":66,"x_max":783,"o":"m 424 -14 q 234 29 314 -14 q 110 159 153 72 q 66 377 66 247 q 160 669 66 572 q 424 767 255 767 q 689 670 594 767 q 783 377 783 572 q 739 160 783 248 q 614 30 694 73 q 424 -14 534 -14 m 424 105 q 578 168 525 105 q 631 376 631 232 q 578 585 631 522 q 424 649 525 649 q 270 585 324 649 q 217 378 217 522 q 270 169 217 233 q 424 105 323 105 m 238 865 l 349 1122 l 471 1122 l 351 865 l 238 865 m 497 865 l 608 1122 l 730 1122 l 610 865 l 497 865 z "},"ȏ":{"ha":849,"x_min":66,"x_max":783,"o":"m 424 -14 q 234 29 314 -14 q 110 159 153 72 q 66 377 66 247 q 160 669 66 572 q 424 767 255 767 q 689 670 594 767 q 783 377 783 572 q 739 160 783 248 q 614 30 694 73 q 424 -14 534 -14 m 424 105 q 578 168 525 105 q 631 376 631 232 q 578 585 631 522 q 424 649 525 649 q 270 585 324 649 q 217 378 217 522 q 270 169 217 233 q 424 105 323 105 m 187 885 q 253 1056 192 995 q 424 1117 313 1117 q 594 1056 533 1117 q 662 885 656 994 l 565 885 q 424 1035 554 1035 q 322 997 356 1035 q 283 885 288 958 l 187 885 z "},"ō":{"ha":849,"x_min":66,"x_max":783,"o":"m 424 -14 q 234 29 314 -14 q 110 159 153 72 q 66 377 66 247 q 160 669 66 572 q 424 767 255 767 q 689 670 594 767 q 783 377 783 572 q 739 160 783 248 q 614 30 694 73 q 424 -14 534 -14 m 424 105 q 578 168 525 105 q 631 376 631 232 q 578 585 631 522 q 424 649 525 649 q 270 585 324 649 q 217 378 217 522 q 270 169 217 233 q 424 105 323 105 m 188 940 l 188 1034 l 660 1034 l 660 940 l 188 940 z "},"ṓ":{"ha":849,"x_min":66,"x_max":783,"o":"m 424 -14 q 234 29 314 -14 q 110 159 153 72 q 66 377 66 247 q 160 669 66 572 q 424 767 255 767 q 689 670 594 767 q 783 377 783 572 q 739 160 783 248 q 614 30 694 73 q 424 -14 534 -14 m 424 105 q 578 168 525 105 q 631 376 631 232 q 578 585 631 522 q 424 649 525 649 q 270 585 324 649 q 217 378 217 522 q 270 169 217 233 q 424 105 323 105 m 188 940 l 188 1034 l 660 1034 l 660 940 l 188 940 m 354 1132 l 492 1333 l 654 1333 l 492 1132 l 354 1132 z "},"ṑ":{"ha":849,"x_min":66,"x_max":783,"o":"m 424 -14 q 234 29 314 -14 q 110 159 153 72 q 66 377 66 247 q 160 669 66 572 q 424 767 255 767 q 689 670 594 767 q 783 377 783 572 q 739 160 783 248 q 614 30 694 73 q 424 -14 534 -14 m 424 105 q 578 168 525 105 q 631 376 631 232 q 578 585 631 522 q 424 649 525 649 q 270 585 324 649 q 217 378 217 522 q 270 169 217 233 q 424 105 323 105 m 188 940 l 188 1034 l 660 1034 l 660 940 l 188 940 m 355 1132 l 194 1333 l 356 1333 l 494 1132 l 355 1132 z "},"ǫ":{"ha":849,"x_min":66,"x_max":783,"o":"m 555 5 q 423 -65 460 -25 q 385 -150 385 -104 q 409 -207 385 -187 q 476 -228 433 -228 q 569 -206 521 -228 l 577 -269 q 459 -294 522 -294 q 338 -259 381 -294 q 294 -161 294 -224 q 383 -12 294 -69 q 150 97 233 -1 q 66 377 66 195 q 160 669 66 572 q 424 767 255 767 q 689 670 594 767 q 783 377 783 572 q 723 132 783 225 q 555 5 664 39 m 217 378 q 270 169 217 233 q 424 105 323 105 q 578 168 525 105 q 631 376 631 232 q 578 585 631 522 q 424 649 525 649 q 270 585 324 649 q 217 378 217 522 z "},"ø":{"ha":849,"x_min":66,"x_max":783,"o":"m 692 666 q 783 377 783 567 q 739 160 783 248 q 614 30 694 73 q 424 -14 534 -14 q 219 38 303 -14 l 169 -29 l 104 22 l 156 90 q 66 377 66 190 q 160 669 66 572 q 424 767 255 767 q 628 718 547 767 l 678 785 l 744 734 l 692 666 m 424 651 q 268 587 322 651 q 215 378 215 524 q 247 202 215 267 l 554 613 q 424 651 506 651 m 424 103 q 580 167 526 103 q 634 376 634 231 q 601 553 634 487 l 293 142 q 424 103 342 103 z "},"ǿ":{"ha":849,"x_min":66,"x_max":783,"o":"m 692 666 q 783 377 783 567 q 739 160 783 248 q 614 30 694 73 q 424 -14 534 -14 q 219 38 303 -14 l 169 -29 l 104 22 l 156 90 q 66 377 66 190 q 160 669 66 572 q 424 767 255 767 q 628 718 547 767 l 678 785 l 744 734 l 692 666 m 424 651 q 268 587 322 651 q 215 378 215 524 q 247 202 215 267 l 554 613 q 424 651 506 651 m 424 103 q 580 167 526 103 q 634 376 634 231 q 601 553 634 487 l 293 142 q 424 103 342 103 m 349 865 l 517 1122 l 681 1122 l 490 865 l 349 865 z "},"õ":{"ha":849,"x_min":66,"x_max":783,"o":"m 424 -14 q 234 29 314 -14 q 110 159 153 72 q 66 377 66 247 q 160 669 66 572 q 424 767 255 767 q 689 670 594 767 q 783 377 783 572 q 739 160 783 248 q 614 30 694 73 q 424 -14 534 -14 m 424 105 q 578 168 525 105 q 631 376 631 232 q 578 585 631 522 q 424 649 525 649 q 270 585 324 649 q 217 378 217 522 q 270 169 217 233 q 424 105 323 105 m 532 920 q 475 928 503 920 q 413 952 448 937 q 358 973 380 966 q 315 979 336 979 q 247 966 277 979 q 188 925 217 953 l 188 1024 q 244 1061 213 1049 q 317 1073 276 1073 q 373 1065 346 1073 q 436 1041 401 1056 q 491 1020 469 1027 q 534 1014 513 1014 q 601 1027 572 1014 q 660 1069 631 1040 l 660 969 q 604 932 635 944 q 532 920 572 920 z "},"ṍ":{"ha":849,"x_min":66,"x_max":783,"o":"m 424 -14 q 234 29 314 -14 q 110 159 153 72 q 66 377 66 247 q 160 669 66 572 q 424 767 255 767 q 689 670 594 767 q 783 377 783 572 q 739 160 783 248 q 614 30 694 73 q 424 -14 534 -14 m 424 105 q 578 168 525 105 q 631 376 631 232 q 578 585 631 522 q 424 649 525 649 q 270 585 324 649 q 217 378 217 522 q 270 169 217 233 q 424 105 323 105 m 532 920 q 475 928 503 920 q 413 952 448 937 q 358 973 380 966 q 315 979 336 979 q 247 966 277 979 q 188 925 217 953 l 188 1024 q 244 1061 213 1049 q 317 1073 276 1073 q 373 1065 346 1073 q 436 1041 401 1056 q 491 1020 469 1027 q 534 1014 513 1014 q 601 1027 572 1014 q 660 1069 631 1040 l 660 969 q 604 932 635 944 q 532 920 572 920 m 411 1276 l 549 1478 l 711 1478 l 549 1276 l 411 1276 z "},"ṏ":{"ha":849,"x_min":66,"x_max":783,"o":"m 424 -14 q 234 29 314 -14 q 110 159 153 72 q 66 377 66 247 q 160 669 66 572 q 424 767 255 767 q 689 670 594 767 q 783 377 783 572 q 739 160 783 248 q 614 30 694 73 q 424 -14 534 -14 m 424 105 q 578 168 525 105 q 631 376 631 232 q 578 585 631 522 q 424 649 525 649 q 270 585 324 649 q 217 378 217 522 q 270 169 217 233 q 424 105 323 105 m 532 920 q 475 928 503 920 q 413 952 448 937 q 358 973 380 966 q 315 979 336 979 q 247 966 277 979 q 188 925 217 953 l 188 1024 q 244 1061 213 1049 q 317 1073 276 1073 q 373 1065 346 1073 q 436 1041 401 1056 q 491 1020 469 1027 q 534 1014 513 1014 q 601 1027 572 1014 q 660 1069 631 1040 l 660 969 q 604 932 635 944 q 532 920 572 920 m 256 1129 q 191 1151 214 1129 q 167 1212 167 1174 q 191 1273 167 1251 q 256 1296 214 1296 q 321 1273 298 1296 q 344 1212 344 1251 q 321 1151 344 1174 q 256 1129 298 1129 m 593 1129 q 528 1151 551 1129 q 505 1212 505 1174 q 528 1273 505 1251 q 593 1296 551 1296 q 658 1273 635 1296 q 681 1212 681 1251 q 658 1151 681 1174 q 593 1129 635 1129 z "},"ȭ":{"ha":849,"x_min":66,"x_max":783,"o":"m 424 -14 q 234 29 314 -14 q 110 159 153 72 q 66 377 66 247 q 160 669 66 572 q 424 767 255 767 q 689 670 594 767 q 783 377 783 572 q 739 160 783 248 q 614 30 694 73 q 424 -14 534 -14 m 424 105 q 578 168 525 105 q 631 376 631 232 q 578 585 631 522 q 424 649 525 649 q 270 585 324 649 q 217 378 217 522 q 270 169 217 233 q 424 105 323 105 m 532 920 q 475 928 503 920 q 413 952 448 937 q 358 973 380 966 q 315 979 336 979 q 247 966 277 979 q 188 925 217 953 l 188 1024 q 244 1061 213 1049 q 317 1073 276 1073 q 373 1065 346 1073 q 436 1041 401 1056 q 491 1020 469 1027 q 534 1014 513 1014 q 601 1027 572 1014 q 660 1069 631 1040 l 660 969 q 604 932 635 944 q 532 920 572 920 m 188 1166 l 188 1260 l 660 1260 l 660 1166 l 188 1166 z "},"œ":{"ha":1340,"x_min":66,"x_max":1285,"o":"m 1285 332 l 779 332 q 811 199 783 249 q 897 125 840 149 q 1043 102 953 102 q 1244 132 1137 102 l 1244 17 q 1024 -14 1132 -14 q 823 22 903 -14 q 697 131 742 58 q 584 23 655 59 q 417 -14 513 -14 q 232 29 310 -14 q 109 159 153 72 q 66 377 66 247 q 109 594 66 507 q 230 725 151 682 q 417 767 309 767 q 590 730 518 767 q 703 618 663 692 q 810 729 742 691 q 970 767 878 767 q 1203 667 1121 767 q 1285 375 1285 567 l 1285 332 m 963 667 q 828 609 874 667 q 778 425 781 551 l 1143 425 q 1095 609 1140 552 q 963 667 1050 667 m 422 105 q 575 169 522 105 q 628 376 628 233 q 575 585 628 522 q 422 649 522 649 q 270 585 323 649 q 217 378 217 522 q 270 169 217 233 q 422 105 322 105 z "},"p":{"ha":865,"x_min":106,"x_max":799,"o":"m 106 756 l 233 756 l 243 671 l 251 671 q 348 742 290 716 q 476 767 406 767 q 641 728 569 767 q 756 606 714 690 q 799 392 799 522 q 694 90 799 192 q 389 -13 590 -13 q 256 -3 328 -13 l 256 -306 l 106 -306 l 106 756 m 386 104 q 583 171 519 104 q 647 381 647 238 q 592 582 647 522 q 438 642 537 642 q 338 622 385 642 q 256 559 290 601 l 256 119 q 386 104 318 104 z "},"þ":{"ha":865,"x_min":106,"x_max":799,"o":"m 106 1122 l 256 1122 l 256 676 l 264 676 q 361 743 304 719 q 488 767 417 767 q 647 728 576 767 q 758 605 717 689 q 799 392 799 521 q 694 90 799 192 q 389 -13 590 -13 q 256 -3 328 -13 l 256 -306 l 106 -306 l 106 1122 m 386 104 q 583 171 519 104 q 647 381 647 238 q 592 582 647 522 q 439 642 537 642 q 338 622 386 642 q 256 560 290 602 l 256 119 q 386 104 318 104 z "},"q":{"ha":865,"x_min":66,"x_max":758,"o":"m 608 77 l 601 77 q 503 10 560 34 q 376 -13 447 -13 q 218 26 288 -13 q 107 149 148 65 q 66 360 66 233 q 172 665 66 563 q 485 767 277 767 q 626 757 555 767 q 758 728 698 747 l 758 -306 l 608 -306 l 608 77 m 425 111 q 525 130 477 111 q 608 188 574 149 l 608 634 q 472 650 546 650 q 281 583 344 650 q 217 373 217 516 q 272 172 217 232 q 425 111 327 111 z "},"r":{"ha":557,"x_min":106,"x_max":547,"o":"m 106 756 l 230 756 l 242 657 l 251 657 q 350 736 289 708 q 479 764 410 764 q 547 758 515 764 l 547 622 q 471 627 515 627 q 352 603 412 627 q 256 533 292 579 l 256 0 l 106 0 l 106 756 z "},"ŕ":{"ha":557,"x_min":106,"x_max":587,"o":"m 106 756 l 230 756 l 242 657 l 251 657 q 350 736 289 708 q 479 764 410 764 q 547 758 515 764 l 547 622 q 471 627 515 627 q 352 603 412 627 q 256 533 292 579 l 256 0 l 106 0 l 106 756 m 254 865 l 423 1122 l 587 1122 l 396 865 l 254 865 z "},"ř":{"ha":557,"x_min":86,"x_max":564,"o":"m 106 756 l 230 756 l 242 657 l 251 657 q 350 736 289 708 q 479 764 410 764 q 547 758 515 764 l 547 622 q 471 627 515 627 q 352 603 412 627 q 256 533 292 579 l 256 0 l 106 0 l 106 756 m 447 1122 l 564 1122 l 389 865 l 261 865 l 86 1122 l 203 1122 l 325 939 l 447 1122 z "},"ŗ":{"ha":557,"x_min":90,"x_max":547,"o":"m 106 756 l 230 756 l 242 657 l 251 657 q 350 736 289 708 q 479 764 410 764 q 547 758 515 764 l 547 622 q 471 627 515 627 q 352 603 412 627 q 256 533 292 579 l 256 0 l 106 0 l 106 756 m 180 -106 q 272 -190 272 -106 q 260 -261 272 -223 q 228 -331 249 -299 l 135 -331 q 167 -232 161 -276 q 109 -213 128 -229 q 90 -169 90 -197 q 113 -123 90 -140 q 180 -106 135 -106 z "},"ȑ":{"ha":557,"x_min":18,"x_max":547,"o":"m 106 756 l 230 756 l 242 657 l 251 657 q 350 736 289 708 q 479 764 410 764 q 547 758 515 764 l 547 622 q 471 627 515 627 q 352 603 412 627 q 256 533 292 579 l 256 0 l 106 0 l 106 756 m 138 865 l 18 1122 l 141 1122 l 252 865 l 138 865 m 398 865 l 278 1122 l 401 1122 l 513 865 l 398 865 z "},"ṛ":{"ha":557,"x_min":93,"x_max":547,"o":"m 106 756 l 230 756 l 242 657 l 251 657 q 350 736 289 708 q 479 764 410 764 q 547 758 515 764 l 547 622 q 471 627 515 627 q 352 603 412 627 q 256 533 292 579 l 256 0 l 106 0 l 106 756 m 181 -268 q 116 -247 140 -268 q 93 -187 93 -225 q 116 -127 93 -149 q 181 -106 140 -106 q 246 -127 223 -106 q 269 -187 269 -149 q 246 -247 269 -225 q 181 -268 223 -268 z "},"ȓ":{"ha":557,"x_min":88,"x_max":563,"o":"m 106 756 l 230 756 l 242 657 l 251 657 q 350 736 289 708 q 479 764 410 764 q 547 758 515 764 l 547 622 q 471 627 515 627 q 352 603 412 627 q 256 533 292 579 l 256 0 l 106 0 l 106 756 m 88 885 q 153 1056 93 995 q 324 1117 214 1117 q 495 1056 433 1117 q 563 885 557 994 l 466 885 q 324 1035 455 1035 q 223 997 257 1035 q 184 885 189 958 l 88 885 z "},"ṟ":{"ha":557,"x_min":-40,"x_max":547,"o":"m 106 756 l 230 756 l 242 657 l 251 657 q 350 736 289 708 q 479 764 410 764 q 547 758 515 764 l 547 622 q 471 627 515 627 q 352 603 412 627 q 256 533 292 579 l 256 0 l 106 0 l 106 756 m -40 -233 l -40 -140 l 403 -140 l 403 -233 l -40 -233 z "},"s":{"ha":693,"x_min":65,"x_max":644,"o":"m 318 -14 q 79 19 185 -14 l 79 131 q 318 98 193 98 q 458 126 415 98 q 501 208 501 154 q 477 274 501 251 q 393 309 453 297 l 272 330 q 114 401 163 350 q 65 540 65 453 q 101 659 65 608 q 212 739 137 710 q 401 767 288 767 q 602 742 510 767 l 602 629 q 403 656 507 656 q 207 544 207 656 q 231 481 207 505 q 312 445 254 456 l 433 424 q 593 355 542 404 q 644 215 644 306 q 607 93 644 144 q 497 14 569 42 q 318 -14 424 -14 z "},"ś":{"ha":693,"x_min":65,"x_max":644,"o":"m 318 -14 q 79 19 185 -14 l 79 131 q 318 98 193 98 q 458 126 415 98 q 501 208 501 154 q 477 274 501 251 q 393 309 453 297 l 272 330 q 114 401 163 350 q 65 540 65 453 q 101 659 65 608 q 212 739 137 710 q 401 767 288 767 q 602 742 510 767 l 602 629 q 403 656 507 656 q 207 544 207 656 q 231 481 207 505 q 312 445 254 456 l 433 424 q 593 355 542 404 q 644 215 644 306 q 607 93 644 144 q 497 14 569 42 q 318 -14 424 -14 m 280 865 l 449 1122 l 613 1122 l 422 865 l 280 865 z "},"ṥ":{"ha":693,"x_min":65,"x_max":644,"o":"m 318 -14 q 79 19 185 -14 l 79 131 q 318 98 193 98 q 458 126 415 98 q 501 208 501 154 q 477 274 501 251 q 393 309 453 297 l 272 330 q 114 401 163 350 q 65 540 65 453 q 101 659 65 608 q 212 739 137 710 q 401 767 288 767 q 602 742 510 767 l 602 629 q 403 656 507 656 q 207 544 207 656 q 231 481 207 505 q 312 445 254 456 l 433 424 q 593 355 542 404 q 644 215 644 306 q 607 93 644 144 q 497 14 569 42 q 318 -14 424 -14 m 271 1094 q 209 1112 231 1094 q 188 1160 188 1130 q 210 1209 188 1191 q 271 1227 231 1227 q 333 1209 311 1227 q 354 1160 354 1191 q 333 1112 354 1130 q 271 1094 311 1094 m 280 865 l 449 1122 l 613 1122 l 422 865 l 280 865 z "},"š":{"ha":693,"x_min":65,"x_max":644,"o":"m 318 -14 q 79 19 185 -14 l 79 131 q 318 98 193 98 q 458 126 415 98 q 501 208 501 154 q 477 274 501 251 q 393 309 453 297 l 272 330 q 114 401 163 350 q 65 540 65 453 q 101 659 65 608 q 212 739 137 710 q 401 767 288 767 q 602 742 510 767 l 602 629 q 403 656 507 656 q 207 544 207 656 q 231 481 207 505 q 312 445 254 456 l 433 424 q 593 355 542 404 q 644 215 644 306 q 607 93 644 144 q 497 14 569 42 q 318 -14 424 -14 m 472 1122 l 590 1122 l 415 865 l 287 865 l 112 1122 l 229 1122 l 351 939 l 472 1122 z "},"ṧ":{"ha":693,"x_min":65,"x_max":644,"o":"m 318 -14 q 79 19 185 -14 l 79 131 q 318 98 193 98 q 458 126 415 98 q 501 208 501 154 q 477 274 501 251 q 393 309 453 297 l 272 330 q 114 401 163 350 q 65 540 65 453 q 101 659 65 608 q 212 739 137 710 q 401 767 288 767 q 602 742 510 767 l 602 629 q 403 656 507 656 q 207 544 207 656 q 231 481 207 505 q 312 445 254 456 l 433 424 q 593 355 542 404 q 644 215 644 306 q 607 93 644 144 q 497 14 569 42 q 318 -14 424 -14 m 351 1133 q 289 1150 310 1133 q 268 1198 268 1167 q 290 1247 268 1228 q 351 1265 311 1265 q 412 1247 390 1265 q 433 1198 433 1228 q 412 1150 433 1167 q 351 1133 391 1133 m 472 1122 l 590 1122 l 415 865 l 287 865 l 112 1122 l 229 1122 l 351 939 l 472 1122 z "},"ş":{"ha":693,"x_min":65,"x_max":644,"o":"m 644 215 q 580 63 644 122 q 394 -10 516 4 l 394 -68 q 480 -103 450 -74 q 509 -181 509 -133 q 469 -265 509 -235 q 353 -294 428 -294 q 285 -288 319 -294 q 226 -270 251 -281 l 226 -204 q 286 -224 254 -217 q 347 -230 318 -230 q 406 -217 387 -230 q 426 -175 426 -203 q 406 -132 426 -146 q 347 -119 386 -119 l 316 -119 l 316 -14 q 79 19 184 -14 l 79 131 q 318 98 193 98 q 458 126 415 98 q 501 208 501 154 q 477 274 501 251 q 393 309 453 297 l 272 330 q 114 401 163 350 q 65 540 65 453 q 101 659 65 608 q 212 739 137 710 q 401 767 288 767 q 602 742 510 767 l 602 629 q 403 656 507 656 q 207 544 207 656 q 231 481 207 505 q 312 445 254 456 l 433 424 q 593 355 542 404 q 644 215 644 306 z "},"ŝ":{"ha":693,"x_min":65,"x_max":644,"o":"m 318 -14 q 79 19 185 -14 l 79 131 q 318 98 193 98 q 458 126 415 98 q 501 208 501 154 q 477 274 501 251 q 393 309 453 297 l 272 330 q 114 401 163 350 q 65 540 65 453 q 101 659 65 608 q 212 739 137 710 q 401 767 288 767 q 602 742 510 767 l 602 629 q 403 656 507 656 q 207 544 207 656 q 231 481 207 505 q 312 445 254 456 l 433 424 q 593 355 542 404 q 644 215 644 306 q 607 93 644 144 q 497 14 569 42 q 318 -14 424 -14 m 587 865 l 469 865 l 351 1047 l 232 865 l 115 865 l 287 1122 l 415 1122 l 587 865 z "},"ș":{"ha":693,"x_min":65,"x_max":644,"o":"m 318 -14 q 79 19 185 -14 l 79 131 q 318 98 193 98 q 458 126 415 98 q 501 208 501 154 q 477 274 501 251 q 393 309 453 297 l 272 330 q 114 401 163 350 q 65 540 65 453 q 101 659 65 608 q 212 739 137 710 q 401 767 288 767 q 602 742 510 767 l 602 629 q 403 656 507 656 q 207 544 207 656 q 231 481 207 505 q 312 445 254 456 l 433 424 q 593 355 542 404 q 644 215 644 306 q 607 93 644 144 q 497 14 569 42 q 318 -14 424 -14 m 349 -106 q 442 -190 442 -106 q 430 -261 442 -223 q 397 -331 418 -299 l 305 -331 q 337 -232 331 -276 q 279 -213 298 -229 q 260 -169 260 -197 q 282 -123 260 -140 q 349 -106 305 -106 z "}}}
